<svg width="49" height="49" viewBox="0 0 49 49" fill="none" xmlns="http://www.w3.org/2000/svg">
<g clip-path="url(#clip0_928_1010)">
<path d="M33.976 34.2152C34.0167 34.1752 34.0565 34.136 34.0962 34.0962C34.1579 34.0345 34.219 33.9723 34.2793 33.9094L37.5081 37.1625C37.918 36.8301 38.4252 36.6494 38.9602 36.6494C39.2686 36.6494 39.5681 36.7096 39.8451 36.8241C40.1218 36.9388 40.376 37.108 40.5942 37.3262C41.0306 37.7628 41.271 38.3431 41.271 38.9602C41.271 39.5773 41.0306 40.1578 40.5942 40.5942C40.1578 41.0306 39.5773 41.2712 38.9602 41.2712C38.3431 41.2712 37.7626 41.0306 37.3262 40.5942C36.8898 40.1578 36.6494 39.5773 36.6494 38.9602C36.6494 38.5494 36.7558 38.1551 36.9555 37.8087L33.6734 34.5015C33.7757 34.4078 33.8763 34.3124 33.976 34.2152Z" fill="#0080FF"/>
<path d="M38.96 12.3496C38.5066 12.3496 38.0532 12.2176 37.6635 11.9527L34.4159 15.2354C34.3231 15.1357 34.228 15.0371 34.1315 14.94C34.1199 14.9279 34.1078 14.9161 34.0957 14.904C34.0046 14.8126 33.9121 14.7227 33.8184 14.6348L37.0611 11.3572C36.787 10.9629 36.6501 10.5015 36.6501 10.04C36.6501 9.44825 36.8752 8.8565 37.326 8.40599C38.2267 7.50497 39.693 7.50497 40.594 8.40599C41.4947 9.30702 41.4947 10.773 40.594 11.674C40.1432 12.1245 39.5517 12.3496 38.96 12.3496Z" fill="#0080FF"/>
<path d="M10.0396 36.6495C10.5175 36.6495 10.9732 36.7936 11.3571 37.0614L14.635 33.8193C14.7229 33.9127 14.8125 34.005 14.9039 34.0963C14.9148 34.1076 14.9264 34.1188 14.9379 34.1303C15.0359 34.2275 15.1348 34.3232 15.2354 34.4166L11.9529 37.6638C12.2115 38.0431 12.3504 38.4911 12.3504 38.9603C12.3504 39.269 12.2905 39.5685 12.1757 39.8452C12.0613 40.1219 11.8918 40.3764 11.6736 40.5943C11.2372 41.0307 10.657 41.2714 10.0396 41.2714C9.42222 41.2714 8.84201 41.0307 8.40591 40.5943C7.96952 40.1579 7.72884 39.5774 7.72884 38.9603C7.72884 38.3432 7.96952 37.763 8.40562 37.3263C8.84201 36.8899 9.42251 36.6495 10.0396 36.6495Z" fill="#0080FF"/>
<path d="M14.9039 14.904C14.8918 14.9159 14.8799 14.928 14.8681 14.9401C14.7716 15.0372 14.6765 15.1358 14.5836 15.2355L11.3367 11.9534C10.9571 12.2119 10.5089 12.3509 10.0396 12.3509C9.7312 12.3509 9.43172 12.2906 9.15473 12.1762C8.87802 12.0615 8.6238 11.892 8.40561 11.6741C7.96951 11.2374 7.72883 10.6572 7.72883 10.0401C7.72883 9.42296 7.96951 8.84246 8.40561 8.40607C8.84199 7.96939 9.4225 7.729 10.0396 7.729C10.6567 7.729 11.2372 7.96939 11.6736 8.40607C12.11 8.84246 12.3504 9.42296 12.3504 10.0401C12.3504 10.5177 12.2066 10.9734 11.9388 11.3573L15.1812 14.6348C15.0875 14.7227 14.995 14.813 14.9039 14.904Z" fill="#0080FF"/>
<path d="M4.05028 20.4497C6.14085 20.4497 7.86623 22.0414 8.07866 24.0766H11.7831C11.8338 22.5086 12.1673 20.987 12.776 19.5473C13.3568 18.1747 14.1642 16.9292 15.1799 15.8382C15.2759 15.7351 15.3739 15.633 15.4736 15.5327C15.4831 15.5226 15.4929 15.5131 15.503 15.503C15.5932 15.4128 15.6846 15.3237 15.7771 15.237C16.8825 14.1944 18.149 13.3678 19.547 12.7763C20.9867 12.1676 22.5086 11.8338 24.0766 11.7833V8.07866C22.0414 7.86623 20.4497 6.14085 20.4497 4.05057C20.4497 1.81704 22.2668 0 24.5 0C26.7332 0 28.5503 1.81704 28.5503 4.05057C28.5503 6.14085 26.9586 7.86623 24.9234 8.07866V11.7833C26.4914 11.8338 28.0133 12.1676 29.453 12.7763C30.851 13.3678 32.1175 14.1944 33.2229 15.237C33.3154 15.3237 33.4068 15.4128 33.497 15.503C33.5071 15.5131 33.5169 15.5226 33.5264 15.5327C33.6261 15.633 33.7241 15.7351 33.8201 15.8382C34.8358 16.9292 35.6432 18.1747 36.224 19.5473C36.8327 20.987 37.1662 22.5086 37.2169 24.0766H40.9213C41.1338 22.0414 42.8591 20.4497 44.9497 20.4497C47.183 20.4497 49 22.2668 49 24.5C49 26.7332 47.183 28.5506 44.9497 28.5506C42.8591 28.5506 41.1338 26.9589 40.9213 24.9237H37.2169C37.1662 26.4917 36.8327 28.0133 36.224 29.453C35.6172 30.8873 34.7629 32.1826 33.6823 33.3079C33.6215 33.3716 33.5595 33.4347 33.497 33.4973C33.4595 33.5347 33.422 33.5716 33.3843 33.6088C33.2831 33.7077 33.1802 33.8048 33.0762 33.8996C32.0059 34.8779 30.7896 35.6585 29.453 36.224C28.0133 36.8327 26.4914 37.1665 24.9234 37.2169V40.9216C26.9586 41.1338 28.5503 42.8594 28.5503 44.9497C28.5503 47.1833 26.7332 49 24.5 49C22.2668 49 20.4497 47.1833 20.4497 44.9497C20.4497 42.8594 22.0414 41.1338 24.0766 40.9216V37.2169C22.5086 37.1665 20.9867 36.8327 19.547 36.224C18.1747 35.6432 16.9289 34.8361 15.8382 33.8204C15.7351 33.7244 15.633 33.6267 15.5327 33.527L15.503 33.4973C15.4128 33.407 15.324 33.3157 15.2373 33.2234C14.1947 32.1181 13.3678 30.8513 12.776 29.453C12.1673 28.0133 11.8338 26.4917 11.7831 24.9237H8.07866C7.86623 26.9589 6.14085 28.5506 4.05028 28.5506C1.81704 28.5506 0 26.7335 0 24.5C0 22.2665 1.81704 20.4497 4.05028 20.4497ZM32.0546 30.6581C31.6557 27.9845 30.8536 25.9227 29.662 24.5C29.289 24.0547 28.8777 23.6722 28.4286 23.3531C28.9071 22.6066 29.159 21.7445 29.159 20.8452C29.159 20.5639 29.1342 20.2886 29.0861 20.0208C28.6958 17.8441 26.7877 16.1867 24.5003 16.1867H24.5C22.212 16.1867 20.3044 17.8441 19.9142 20.0211C19.9142 20.0211 19.8413 20.5641 19.8413 20.8452C19.8413 21.7445 20.0932 22.6066 20.5714 23.3528C20.124 23.671 19.7124 24.0541 19.3386 24.5C18.8964 25.0278 18.5073 25.6429 18.1741 26.3421C17.6063 27.534 17.1929 28.9864 16.9454 30.6587C16.935 30.7296 16.9298 30.8005 16.9298 30.8712C16.9298 31.0657 16.969 31.2577 17.0442 31.4361L16.973 31.5064L17.2711 31.8076C17.2754 31.8131 17.28 31.8183 17.2846 31.8238C17.3333 31.8803 17.3852 31.9319 17.4411 31.9794L17.4417 31.98L17.5685 32.1083L17.5873 32.0898C17.8265 32.2486 18.109 32.3357 18.4015 32.3357H30.5982C30.8582 32.3357 31.1101 32.2671 31.3306 32.1405L31.3655 32.1757L31.6073 31.9356L31.6661 31.8774L31.9667 31.5791L31.914 31.526C32.048 31.2603 32.0987 30.9576 32.0544 30.6579L32.0546 30.6581Z" fill="#0080FF"/>
<path d="M25.8208 24.4205C25.7885 24.4326 25.7559 24.4445 25.7231 24.4557C25.6764 24.4716 25.6297 24.4865 25.5827 24.5001C25.4726 24.533 25.3613 24.5609 25.2486 24.5831C25.0034 24.6324 24.7512 24.6569 24.4998 24.6569C24.2485 24.6569 23.9957 24.6324 23.7518 24.5834C23.6389 24.5609 23.527 24.533 23.4169 24.5001C22.7952 24.3153 22.2265 23.9715 21.7708 23.504C21.6941 23.4253 21.6209 23.3431 21.5509 23.2578V23.2572C20.9943 22.5784 20.6882 21.7221 20.6882 20.8453C20.6882 20.8314 20.6882 20.8176 20.6885 20.8041C20.7107 18.7216 22.4115 17.0339 24.4998 17.0339H24.5001C26.5878 17.0339 28.2892 18.7213 28.3117 20.8038C28.312 20.8176 28.312 20.8314 28.312 20.8453C28.312 21.7218 28.0056 22.5781 27.4496 23.2572C27.0173 23.7853 26.452 24.1865 25.8208 24.4205Z" fill="#0080FF"/>
<path d="M31.0689 31.2759L31.0124 31.3318L31.0119 31.3327C30.8977 31.433 30.7513 31.4889 30.5985 31.4889H18.4018C18.2753 31.4889 18.1531 31.4506 18.0502 31.3808L17.8781 31.207C17.7957 31.0819 17.7614 30.9312 17.7836 30.7827C18.2122 27.8863 19.1247 25.7787 20.5016 24.5001C20.6896 24.3254 20.8864 24.166 21.0917 24.0225C21.1288 24.0622 21.1669 24.1017 21.2052 24.1403C21.3338 24.2689 21.4687 24.3891 21.6088 24.5001C22.2221 24.9872 22.9413 25.3077 23.7103 25.438H23.7106C23.7106 25.438 24.2326 25.5043 24.5 25.5043H24.5003C24.7632 25.5043 25.0229 25.4827 25.2771 25.44C26.0507 25.3112 26.7748 24.9901 27.3916 24.5001C27.5317 24.3891 27.6663 24.2689 27.7949 24.1403C27.8335 24.1017 27.8715 24.0622 27.9084 24.0227C28.1134 24.1663 28.3096 24.3254 28.4973 24.5001C29.8713 25.7784 30.7847 27.8863 31.2165 30.783C31.2427 30.9574 31.1906 31.1352 31.0735 31.2704C31.0721 31.2724 31.0704 31.2742 31.0689 31.2759Z" fill="#0080FF"/>
</g>
<defs>
<clipPath id="clip0_928_1010">
<rect width="49" height="49" fill="white" transform="matrix(-1 0 0 1 49 0)"/>
</clipPath>
</defs>
</svg>
