<svg width="39" height="47" viewBox="0 0 39 47" fill="none" xmlns="http://www.w3.org/2000/svg">
<g clip-path="url(#clip0_928_1081)">
<path d="M31.1796 24.4489C31.1271 23.061 31.1411 21.673 31.1516 20.324C31.1586 19.7185 31.1656 19.113 31.1656 18.5111V16.9425V16.4999C31.1656 14.8181 31.1586 13.0796 31.1761 11.3588C29.0582 10.8383 26.9229 10.2965 24.8575 9.77251C23.1702 9.34407 21.4235 8.90502 19.7082 8.47659C19.5856 8.44826 19.4211 8.44472 19.3126 8.47305C17.6288 8.89086 15.9135 9.32637 14.2543 9.74772C12.1469 10.2824 9.97304 10.8312 7.82369 11.3588L7.83069 12.7999C7.85169 16.6734 7.87269 20.6816 7.81668 24.6295C7.77818 27.3913 8.62532 29.7919 10.4071 31.9801C12.5845 34.6534 15.4795 36.746 19.4981 38.5518C22.9217 37.0399 25.6347 35.1951 27.7875 32.9113C30.1924 30.362 31.3021 27.5967 31.1831 24.4525L31.1796 24.4489ZM27.1259 18.8368C26.0897 20.1788 25.0536 21.5207 24.0209 22.8662C22.3406 25.058 20.6673 27.2532 18.9835 29.4449C18.0349 30.6771 17.2753 30.663 16.3721 29.4166C14.8809 27.3559 13.3931 25.2916 11.9019 23.2274C11.3978 22.5298 11.4048 21.8075 11.9089 21.3366C12.413 20.8657 13.1341 20.9117 13.7712 21.4712C14.8634 22.4307 15.952 23.3973 17.0407 24.3569C17.2158 24.5127 17.4048 24.6508 17.7653 24.9376C17.9054 24.7074 17.9999 24.4666 18.1644 24.3002C20.4643 21.9598 22.7677 19.6264 25.0851 17.3037C25.3336 17.0523 25.6592 16.8151 25.9882 16.7266C26.5343 16.5778 27.0174 16.7974 27.3009 17.3179C27.595 17.8561 27.4865 18.3695 27.1224 18.8404L27.1259 18.8368Z" fill="#0080FF"/>
<path d="M38.986 24.3602C38.9545 23.5104 38.944 22.643 38.944 21.7755H38.9755V15.2959C38.9685 13.175 38.965 10.9833 38.9895 8.84109C39.0175 6.22802 37.5472 4.2983 35.0513 3.68929C32.6219 3.09445 30.1435 2.46773 27.7456 1.85872L26.6779 1.58963C24.8646 1.12933 22.9918 0.654866 21.1435 0.198109C20.0828 -0.0674481 18.9241 -0.0674481 17.881 0.191027C15.8541 0.693814 13.8343 1.20368 11.9545 1.68169C9.6266 2.26945 6.73162 3.00239 3.97316 3.67867C1.47724 4.28768 -0.00350679 6.2351 0.00699496 8.88358L0.0174967 11.1886C0.0420008 15.6252 0.0630043 20.214 -6.20936e-06 24.7072C-0.0630167 29.3244 1.40373 33.506 4.35822 37.1388C7.54725 41.0549 11.6884 44.0539 17.3839 46.5749C18.014 46.8511 18.7316 46.9998 19.4632 46.9998C20.1949 46.9998 20.965 46.8476 21.6371 46.5537C26.4434 44.4611 30.294 41.8409 33.4026 38.548C37.3022 34.4124 39.1785 29.6395 38.979 24.3602H38.986ZM30.1155 35.6021C27.35 38.5339 23.874 40.9168 19.4947 42.8713C14.3454 40.5309 10.6313 37.8257 7.8308 34.3947C5.54842 31.594 4.46324 28.5171 4.51225 24.9834C4.58576 19.7325 4.55775 14.4072 4.52975 9.25182L4.52275 7.78595C7.2357 7.12029 9.96966 6.4263 12.6231 5.75356C14.8355 5.19412 17.1213 4.61343 19.3757 4.05399C19.4282 4.03983 19.5578 4.03629 19.6523 4.06107C21.8856 4.61697 24.154 5.19057 26.3489 5.74647C29.0058 6.41922 31.7398 7.11321 34.4667 7.78595C34.4527 9.91748 34.4562 12.0596 34.4597 14.1451C34.4597 14.1841 34.4597 14.223 34.4597 14.262V16.8609C34.4597 17.6611 34.4492 18.4649 34.4422 19.2686C34.4247 21.0567 34.4072 22.9085 34.4772 24.7603C34.6313 28.7826 33.203 32.3269 30.119 35.5986L30.1155 35.6021Z" fill="#0080FF"/>
</g>
<defs>
<clipPath id="clip0_928_1081">
<rect width="39" height="47" fill="white"/>
</clipPath>
</defs>
</svg>
