<svg width="39" height="40" viewBox="0 0 39 40" fill="none" xmlns="http://www.w3.org/2000/svg">
<path d="M16.9394 2.88021C18.4149 1.62847 20.5851 1.62847 22.0606 2.88021L24.5704 5.00933C25.2027 5.54573 25.9888 5.8699 26.817 5.93568L30.104 6.1968C32.0365 6.35032 33.571 7.87793 33.7253 9.80168L33.9876 13.0738C34.0536 13.8982 34.3793 14.6808 34.9181 15.3102L37.0569 17.8086C38.3144 19.2775 38.3144 21.4379 37.0569 22.9067L34.9181 25.4051C34.3793 26.0345 34.0536 26.8171 33.9876 27.6415L33.7253 30.9137C33.571 32.8374 32.0365 34.365 30.104 34.5185L26.817 34.7797C25.9888 34.8454 25.2027 35.1696 24.5704 35.706L22.0606 37.8351C20.5851 39.0869 18.4149 39.0869 16.9394 37.8351L14.4296 35.706C13.7973 35.1696 13.0112 34.8454 12.183 34.7797L8.89601 34.5185C6.96352 34.365 5.42896 32.8374 5.27475 30.9137L5.01244 27.6415C4.94635 26.8171 4.62071 26.0345 4.08188 25.4051L1.94307 22.9067C0.685642 21.4379 0.685642 19.2775 1.94307 17.8086L4.08188 15.3102C4.62071 14.6808 4.94635 13.8982 5.01244 13.0738L5.27475 9.80168C5.42896 7.87793 6.96352 6.35032 8.89601 6.1968L12.183 5.93568C13.0112 5.8699 13.7973 5.54573 14.4296 5.00933L16.9394 2.88021Z" stroke="#0080FF" stroke-width="2" stroke-linecap="round" stroke-linejoin="round"/>
<path d="M25.6663 16.2654L17.4441 24.4504L13.333 20.3579" stroke="#0080FF" stroke-width="2" stroke-linecap="round" stroke-linejoin="round"/>
</svg>
