<svg width="32" height="41" viewBox="0 0 32 41" fill="none" xmlns="http://www.w3.org/2000/svg">
<g clip-path="url(#clip0_928_1094)">
<path d="M21.8164 36.5859C20.893 39.1737 18.6528 40.9999 16.0352 40.9999C13.4175 40.9999 11.1771 39.1737 10.2539 36.5859H21.8167H21.8164Z" fill="#0080FF"/>
<path d="M0.108236 32.3778C0.268675 31.1975 0.799394 29.1553 2.52604 27.2104C4.79139 24.6588 4.54662 20.9998 4.62821 17.7021C4.67187 15.9382 3.76838 6.72349 12.4632 3.97891C12.4632 3.97891 12.3732 0.0253417 16.0001 0C19.6271 0.0255977 19.537 3.97891 19.537 3.97891C28.2319 6.72349 27.3284 15.9382 27.372 17.7021C27.4536 20.9998 27.2088 24.6588 29.4739 27.2104C31.2006 29.1553 31.7313 31.1975 31.8917 32.3778C31.9511 32.7686 31.9826 33.2069 31.9993 33.714C32.0225 34.4169 31.4738 35 30.7884 35H16.0001H1.21159C0.526175 35 -0.0222602 34.4169 0.000695231 33.714C0.0174128 33.2069 0.0491012 32.7686 0.108236 32.3778Z" fill="#0080FF"/>
</g>
<defs>
<clipPath id="clip0_928_1094">
<rect width="32" height="41" fill="white"/>
</clipPath>
</defs>
</svg>
