<svg width="43" height="43" viewBox="0 0 43 43" fill="none" xmlns="http://www.w3.org/2000/svg">
<g clip-path="url(#clip0_928_1023)">
<path d="M28.2099 36.73L31.3799 36.94C23.9399 41.8 13.9999 40.85 7.57991 34.44C2.40991 29.26 0.669909 21.74 3.04991 14.81L1.15991 14.16C-1.47009 21.82 0.44991 30.13 6.16991 35.85C10.2499 39.93 15.6299 42.01 21.0299 42.01C25.1699 42.01 29.3199 40.77 32.9099 38.29L32.6799 41.82L34.8399 39.92L35.1499 35.14L30.3699 34.83L28.2099 36.73Z" fill="#0080FF"/>
<path d="M35.8699 6.15002C28.6499 -1.06998 17.3899 -1.99998 9.11988 3.71002L9.34988 0.170021L7.18988 2.07002L6.87988 6.85002L11.6599 7.16002L13.8199 5.26002L10.6499 5.05002C18.0999 0.200021 28.0399 1.15002 34.4499 7.57002C39.6299 12.75 41.3599 20.26 38.9799 27.19L40.8699 27.84C43.4999 20.18 41.5799 11.87 35.8599 6.15002H35.8699Z" fill="#0080FF"/>
<path d="M21.02 12C18.23 12 15.96 14.27 15.96 17.06C15.96 19.85 18.23 22.12 21.02 22.12C23.81 22.12 26.08 19.85 26.08 17.06C26.08 14.27 23.81 12 21.02 12Z" fill="#0080FF"/>
<path d="M13.2798 28.41V31.04L13.6898 31.34C15.3998 32.59 18.2098 33.22 21.0198 33.22C23.8298 33.22 26.6398 32.6 28.3498 31.34L28.7598 31.04V28.41C28.7598 24.97 25.9398 23 21.0198 23C16.0998 23 13.2798 24.97 13.2798 28.41Z" fill="#0080FF"/>
<path d="M26.9802 18.04L27.4802 18.38C28.2402 18.9 29.1302 19.18 30.0602 19.18C32.5902 19.18 34.6502 17.12 34.6502 14.58C34.6502 12.04 32.5902 10 30.0602 10C28.2902 10 26.6602 11.04 25.9102 12.64L25.6602 13.16L25.9902 13.63C26.7002 14.64 27.0702 15.82 27.0702 17.06C27.0702 17.19 27.0702 17.32 27.0502 17.44L26.9802 18.04Z" fill="#0080FF"/>
<path d="M30.06 19.72C28.63 19.72 27.4 19.9 26.39 20.26L26.07 20.37L25.89 20.65C25.78 20.82 25.64 20.99 25.48 21.16L24.46 22.23L25.84 22.77C29.05 24.04 29.67 26.61 29.75 28.03L29.81 29.01L30.8 28.97C33.19 28.87 35.31 28.26 36.63 27.3L37.04 27V24.62C37.04 21.5 34.5 19.71 30.08 19.71L30.06 19.72Z" fill="#0080FF"/>
<path d="M11.9801 10C9.45014 10 7.39014 12.05 7.39014 14.58C7.39014 17.11 9.45014 19.18 11.9801 19.18C12.9001 19.18 13.7901 18.91 14.5501 18.39L15.0501 18.05L14.9801 17.45C14.9701 17.33 14.9601 17.2 14.9601 17.07C14.9601 15.83 15.3301 14.65 16.0401 13.64L16.3701 13.17L16.1201 12.65C15.3701 11.05 13.7401 10.01 11.9701 10.01L11.9801 10Z" fill="#0080FF"/>
<path d="M11.2598 28.98L12.2398 29.02L12.2998 28.04C12.3798 26.62 12.9998 24.05 16.2098 22.78L17.5898 22.24L16.5698 21.17C16.4098 21 16.2698 20.83 16.1598 20.66L15.9798 20.38L15.6598 20.27C14.6498 19.91 13.4198 19.73 11.9898 19.73C7.56978 19.73 5.02979 21.52 5.02979 24.64V27.02L5.43979 27.32C6.74978 28.28 8.87979 28.89 11.2698 28.99L11.2598 28.98Z" fill="#0080FF"/>
</g>
<defs>
<clipPath id="clip0_928_1023">
<rect width="42.04" height="42.01" fill="white"/>
</clipPath>
</defs>
</svg>
