<svg width="113" height="43" viewBox="0 0 113 43" fill="none" xmlns="http://www.w3.org/2000/svg">
<g clip-path="url(#clip0_938_560)">
<path d="M21.59 0C9.68569 0 0 9.70527 0 21.6336C0 32.3858 7.86771 41.3305 18.1364 42.9911L19.4313 36.7898C17.9157 36.0036 16.8772 34.4171 16.8772 32.5929C16.8772 29.9902 18.9912 27.8707 21.59 27.8707C24.1887 27.8707 26.3027 29.9902 26.3027 32.5929C26.3027 34.536 25.1251 36.2094 23.4475 36.9329L24.995 43C35.288 41.3586 43.1799 32.4024 43.1799 21.6336C43.1799 9.70527 33.4942 0 21.59 0ZM24.4502 37.7434C26.2516 36.7335 27.4713 34.8045 27.4713 32.5929C27.4713 29.3433 24.833 26.6997 21.59 26.6997C18.3469 26.6997 15.7074 29.3433 15.7074 32.5929C15.7074 34.8045 16.927 36.7335 18.7284 37.7434C15.9408 36.607 13.971 33.8649 13.971 30.669C13.971 26.4594 17.3888 23.0372 21.59 23.0372C25.7911 23.0372 29.2063 26.4594 29.2063 30.669C29.2063 33.8649 27.2378 36.607 24.4502 37.7434ZM30.3762 30.669C30.3762 25.8138 26.4354 21.865 21.59 21.865C16.7446 21.865 12.8024 25.8138 12.8024 30.669C12.8024 34.0681 14.7352 37.0237 17.5572 38.49C13.5322 36.8792 10.6808 32.933 10.6808 28.3322C10.6808 22.3047 15.5734 17.401 21.59 17.401C27.6065 17.401 32.4991 22.3047 32.4991 28.3322C32.4991 32.933 29.6465 36.8805 25.6201 38.49C28.4434 37.025 30.3762 34.0681 30.3762 30.669ZM33.6677 28.3322C33.6677 21.6579 28.2495 16.2287 21.59 16.2287C14.9304 16.2287 9.51091 21.6579 9.51091 28.3322C9.51091 33.1464 12.3316 37.3139 16.4052 39.2621C11.1273 37.1835 7.38164 32.0253 7.38164 26.0068C7.38164 18.1565 13.7541 11.7698 21.59 11.7698C29.4258 11.7698 35.7983 18.1565 35.7983 26.0068C35.7983 32.0253 32.0513 37.1835 26.7734 39.2621C30.847 37.3139 33.6677 33.1464 33.6677 28.3322ZM36.9669 26.0068C36.9669 17.5096 30.0688 10.5976 21.59 10.5976C13.1111 10.5976 6.21175 17.5096 6.21175 26.0068C6.21175 31.817 9.43691 36.8856 14.1892 39.5114C8.28489 36.7194 4.18837 30.6971 4.18837 23.7326C4.18837 14.1181 11.9948 6.29717 21.59 6.29717C31.1851 6.29717 38.9903 14.1181 38.9903 23.7326C38.9903 30.6971 34.895 36.7194 28.9907 39.5114C33.743 36.8856 36.9669 31.817 36.9669 26.0068ZM30.6607 39.9652C36.3239 36.7757 40.1601 30.6946 40.1601 23.7326C40.1601 13.4726 31.8281 5.1262 21.59 5.1262C11.3519 5.1262 3.01976 13.4726 3.01976 23.7326C3.01976 30.6946 6.85474 36.7757 12.5192 39.9652C5.79713 36.6108 1.16861 29.654 1.16861 21.6336C1.16861 10.3508 10.33 1.17225 21.59 1.17225C32.85 1.17225 42.01 10.3508 42.01 21.6336C42.01 29.654 37.3815 36.6108 30.6607 39.9652Z" fill="white"/>
</g>
<path d="M65.5909 27.6555C66.9741 27.6555 68.0683 27.0568 68.8735 25.8594C69.6787 24.662 70.0812 22.9794 70.0812 20.8117C70.0812 18.7884 69.6787 17.2091 68.8735 16.0736C68.0683 14.9381 66.9741 14.3704 65.5909 14.3704C64.2077 14.3704 63.1135 14.9381 62.3084 16.0736C61.5032 17.2091 61.1006 18.7884 61.1006 20.8117C61.1006 22.9794 61.5032 24.662 62.3084 25.8594C63.1135 27.0568 64.2077 27.6555 65.5909 27.6555ZM72.249 36.6361C71.1754 36.6361 70.1845 36.4916 69.2761 36.2026C68.3677 35.9342 67.5419 35.5522 66.7987 35.0568C66.0761 34.5819 65.4361 34.0039 64.8787 33.3226C64.3213 32.6619 63.8671 31.9394 63.5161 31.1548C62.4426 30.9277 61.4619 30.5355 60.5742 29.9781C59.7071 29.4 58.9639 28.6671 58.3445 27.7794C57.7252 26.8916 57.2503 25.8697 56.92 24.7136C56.5897 23.5368 56.4245 22.2362 56.4245 20.8117C56.4245 19.16 56.6413 17.6942 57.0748 16.4143C57.529 15.1136 58.1587 14.0297 58.9639 13.1627C59.769 12.2749 60.729 11.6039 61.8438 11.1498C62.9793 10.6749 64.2283 10.4375 65.5909 10.4375C66.9535 10.4375 68.1922 10.6749 69.307 11.1498C70.4425 11.6039 71.4128 12.2749 72.218 13.1627C73.0232 14.0504 73.6425 15.1446 74.0761 16.4452C74.5302 17.7252 74.7573 19.1807 74.7573 20.8117C74.7573 23.5368 74.1793 25.7768 73.0232 27.5316C71.867 29.2865 70.3083 30.4426 68.347 31C68.8219 31.7226 69.4619 32.2284 70.267 32.5174C71.0722 32.8271 71.9083 32.9819 72.7754 32.9819C73.209 32.9819 73.6115 32.951 73.9831 32.889C74.3754 32.8271 74.716 32.7445 75.0051 32.6413L75.8102 35.9548C75.4386 36.1406 74.9431 36.2955 74.3238 36.4193C73.7251 36.5638 73.0335 36.6361 72.249 36.6361ZM78.5538 31V10.8091H91.1886V14.6491H83.106V18.7059H89.9808V22.5149H83.106V27.16H91.4982V31H78.5538ZM95.5194 31V10.8091H101.217C102.766 10.8091 104.159 11.0052 105.398 11.3975C106.637 11.7898 107.7 12.3988 108.588 13.2246C109.476 14.0297 110.157 15.062 110.632 16.3213C111.106 17.5807 111.344 19.0775 111.344 20.8117C111.344 22.5458 111.106 24.0529 110.632 25.3329C110.157 26.6129 109.486 27.6761 108.619 28.5226C107.752 29.3484 106.709 29.9677 105.491 30.3806C104.294 30.7935 102.952 31 101.465 31H95.5194ZM100.072 27.3149H100.939C101.806 27.3149 102.59 27.2013 103.292 26.9742C103.994 26.7471 104.593 26.3858 105.088 25.8903C105.584 25.3742 105.966 24.7033 106.234 23.8774C106.523 23.0516 106.668 22.0297 106.668 20.8117C106.668 19.6142 106.523 18.613 106.234 17.8078C105.966 16.982 105.584 16.3317 105.088 15.8568C104.593 15.3614 103.994 15.0104 103.292 14.8039C102.59 14.5975 101.806 14.4943 100.939 14.4943H100.072V27.3149Z" fill="white"/>
<defs>
<clipPath id="clip0_938_560">
<rect width="43.1799" height="43" fill="white"/>
</clipPath>
</defs>
</svg>
