<?xml version="1.0" encoding="utf-8"?>
<!-- Generator: Adobe Illustrator 16.0.0, SVG Export Plug-In . SVG Version: 6.00 Build 0)  -->
<!DOCTYPE svg PUBLIC "-//W3C//DTD SVG 1.1//EN" "http://www.w3.org/Graphics/SVG/1.1/DTD/svg11.dtd">
<svg version="1.1" id="Layer_1" xmlns="http://www.w3.org/2000/svg" xmlns:xlink="http://www.w3.org/1999/xlink" x="0px" y="0px"
	 width="37px" height="40px" viewBox="0 0 37 40" enable-background="new 0 0 37 40" xml:space="preserve">
<g>
	<defs>
		<rect id="SVGID_1_" x="0.441" width="36.118" height="39.75"/>
	</defs>
	<clipPath id="SVGID_2_">
		<use xlink:href="#SVGID_1_"  overflow="visible"/>
	</clipPath>
	<g clip-path="url(#SVGID_2_)">
		<path fill="#0080FF" d="M0.448,26.129v7.508c0,3.354,8.073,6.113,18.037,6.113c9.964,0,18.068-2.756,18.068-6.113v-7.508
			c-4.353,2.757-11.56,3.822-18.068,3.822C11.976,29.951,4.797,28.886,0.448,26.129z"/>
		<path fill="#0080FF" d="M0.448,12.347v7.507c0,3.354,8.073,6.113,18.037,6.113c9.964,0,18.068-2.757,18.068-6.113v-7.507
			c-4.353,2.756-11.56,3.822-18.068,3.822C11.976,16.169,4.797,15.104,0.448,12.347z"/>
		<path fill="#0080FF" d="M18.5,12.183c9.973,0,18.059-2.728,18.059-6.091S28.474,0,18.5,0S0.441,2.728,0.441,6.091
			S8.527,12.183,18.5,12.183z"/>
	</g>
</g>
</svg>
