<svg width="42" height="41" viewBox="0 0 42 41" fill="none" xmlns="http://www.w3.org/2000/svg">
<path d="M0.00537109 22.4277V28.8717C0.00537109 31.7505 6.99397 34.1192 15.6189 34.1192C24.2438 34.1192 31.2598 31.7532 31.2598 28.8717V22.4277C27.4919 24.7937 21.253 25.7081 15.6189 25.7081C9.98478 25.7081 3.77057 24.7937 0.00537109 22.4277Z" fill="#0080FF"/>
<path d="M0.00537109 10.5979V17.0419C0.00537109 19.9206 6.99397 22.2893 15.6189 22.2893C24.2438 22.2893 31.2598 19.9234 31.2598 17.0419V10.5979C27.4919 12.9639 21.253 13.8782 15.6189 13.8782C9.98478 13.8782 3.77057 12.9639 0.00537109 10.5979Z" fill="#0080FF"/>
<path d="M15.6327 10.4569C24.2658 10.4569 31.2654 8.11535 31.2654 5.22844C31.2654 2.34154 24.2658 0 15.6327 0C6.99954 0 0 2.34154 0 5.22844C0 8.11535 6.99954 10.4569 15.6327 10.4569Z" fill="#0080FF"/>
<path d="M31.2024 39.9283C31.0054 39.8143 30.8029 39.7031 30.5895 39.5864C28.9203 38.6557 27.024 37.5949 25.3904 35.8475C23.8554 34.2033 22.5556 31.9459 21.9208 28.6113C21.7292 27.6372 21.6006 26.5709 21.5349 25.3988C21.4474 23.8576 21.4747 22.1347 21.6444 20.2002C23.278 19.9804 26.5862 19.2315 31.2571 16.6512C31.2763 16.6404 31.3009 16.6268 31.3201 16.616C32.7813 17.4001 36.5574 19.2587 40.952 20.0916C40.952 20.6289 40.9711 21.2122 40.9903 21.8498C41.1627 27.176 41.4199 35.1801 31.1997 39.9283H31.2024Z" fill="#0080FF"/>
</svg>
