<svg width="35" height="44" viewBox="0 0 35 44" fill="none" xmlns="http://www.w3.org/2000/svg">
<path fill-rule="evenodd" clip-rule="evenodd" d="M27.3693 0H7.10504C3.18103 0 0 3.18103 0 7.10504V36.0649C0 39.9889 3.18103 43.17 7.10504 43.17H27.3693C31.2933 43.17 34.4743 39.9889 34.4743 36.0649V7.10504C34.4743 3.18103 31.2933 0 27.3693 0ZM29.9194 14.1587H4.55488C4.03914 14.1587 3.62106 14.5768 3.62106 15.0925C3.62106 15.6082 4.03914 16.0263 4.55488 16.0263H29.9194C30.4352 16.0263 30.8532 15.6082 30.8532 15.0925C30.8532 14.5768 30.4352 14.1587 29.9194 14.1587ZM4.55488 21.5836H19.2876C19.8033 21.5836 20.2214 22.0016 20.2214 22.5174C20.2214 23.0331 19.8033 23.4512 19.2876 23.4512H4.55488C4.03914 23.4512 3.62106 23.0331 3.62106 22.5174C3.62106 22.0016 4.03914 21.5836 4.55488 21.5836Z" fill="#0080FF"/>
</svg>
