<svg width="156" height="59" viewBox="0 0 156 59" fill="none" xmlns="http://www.w3.org/2000/svg">
<g clip-path="url(#clip0_920_155)">
<path d="M29.6234 0C13.2897 0 0 13.3165 0 29.6833C0 44.4364 10.7952 56.7092 24.8849 58.9877L26.6616 50.479C24.582 49.4002 23.1571 47.2235 23.1571 44.7205C23.1571 41.1493 26.0577 38.2412 29.6234 38.2412C33.1892 38.2412 36.0897 41.1493 36.0897 44.7205C36.0897 47.3866 34.474 49.6826 32.1721 50.6754L34.2955 59C48.4184 56.7478 59.2469 44.4592 59.2469 29.6833C59.2469 13.3165 45.9572 0 29.6234 0ZM33.548 51.7875C36.0197 50.4018 37.6932 47.755 37.6932 44.7205C37.6932 40.2618 34.0732 36.6345 29.6234 36.6345C25.1737 36.6345 21.552 40.2618 21.552 44.7205C21.552 47.755 23.2254 50.4018 25.6971 51.7875C21.8723 50.2281 19.1695 46.4658 19.1695 42.0807C19.1695 36.3047 23.8591 31.6092 29.6234 31.6092C35.3878 31.6092 40.0738 36.3047 40.0738 42.0807C40.0738 46.4658 37.3728 50.2281 33.548 51.7875ZM41.679 42.0807C41.679 35.4189 36.2718 30.0008 29.6234 30.0008C22.9751 30.0008 17.5661 35.4189 17.5661 42.0807C17.5661 46.7447 20.2181 50.8 24.0901 52.8118C18.5674 50.6017 14.655 45.1871 14.655 38.8744C14.655 30.6042 21.3681 23.8757 29.6234 23.8757C37.8787 23.8757 44.5918 30.6042 44.5918 38.8744C44.5918 45.1871 40.6777 50.6035 35.1532 52.8118C39.027 50.8017 41.679 46.7447 41.679 42.0807ZM46.1953 38.8744C46.1953 29.7166 38.7609 22.2673 29.6234 22.2673C20.4859 22.2673 13.0499 29.7166 13.0499 38.8744C13.0499 45.48 16.9202 51.1981 22.5095 53.8712C15.2677 51.0192 10.1283 43.9417 10.1283 35.6838C10.1283 24.9124 18.872 16.1493 29.6234 16.1493C40.3749 16.1493 49.1186 24.9124 49.1186 35.6838C49.1186 43.9417 43.9774 51.0192 36.7356 53.8712C42.3249 51.1981 46.1953 45.48 46.1953 38.8744ZM50.722 35.6838C50.722 24.0248 41.2571 14.5408 29.6234 14.5408C17.9897 14.5408 8.5231 24.0248 8.5231 35.6838C8.5231 43.6558 12.9483 50.6105 19.4689 54.2133C11.3676 50.3825 5.74684 42.1193 5.74684 32.5634C5.74684 19.3714 16.458 8.64031 29.6234 8.64031C42.7888 8.64031 53.4983 19.3714 53.4983 32.5634C53.4983 42.1193 47.8792 50.3825 39.778 54.2133C46.2985 50.6105 50.722 43.6558 50.722 35.6838ZM42.0694 54.836C49.8398 50.4597 55.1035 42.1158 55.1035 32.5634C55.1035 18.4856 43.6711 7.03362 29.6234 7.03362C15.5758 7.03362 4.14339 18.4856 4.14339 32.5634C4.14339 42.1158 9.40535 50.4597 17.1775 54.836C7.9542 50.2334 1.60344 40.688 1.60344 29.6833C1.60344 14.2023 14.1737 1.60844 29.6234 1.60844C45.0732 1.60844 57.6417 14.2023 57.6417 29.6833C57.6417 40.688 51.2909 50.2334 42.0694 54.836Z" fill="#F3F3F3"/>
</g>
<path d="M89.9966 37.411C91.8945 37.411 93.3958 36.5895 94.5006 34.9466C95.6053 33.2753 96.1577 30.9666 96.1577 28.0206C96.1577 25.2446 95.6053 23.0776 94.5006 21.5196C93.3958 19.9616 91.8945 19.1826 89.9966 19.1826C88.0987 19.1826 86.5973 19.9616 85.4926 21.5196C84.3878 23.0776 83.8355 25.2446 83.8355 28.0206C83.8355 30.9666 84.3878 33.2753 85.4926 34.9466C86.5973 36.5895 88.0987 37.411 89.9966 37.411ZM99.132 49.7333C96.2143 49.7333 93.7357 49.0109 91.6962 47.5662C89.6567 46.1499 88.1412 44.3653 87.1497 42.2125C84.2037 41.5893 81.8384 40.0454 80.0538 37.581C78.2975 35.1165 77.4194 31.9298 77.4194 28.0206C77.4194 24.9897 77.9435 22.4261 78.9916 20.3299C80.068 18.2053 81.541 16.5907 83.4106 15.486C85.3085 14.3529 87.5038 13.7863 89.9966 13.7863C92.4894 13.7863 94.6705 14.3529 96.5401 15.486C98.438 16.5907 99.911 18.2053 100.959 20.3299C102.036 22.4544 102.574 25.018 102.574 28.0206C102.574 31.7315 101.781 34.805 100.194 37.2411C98.608 39.6489 96.4693 41.2352 93.7782 42C94.4297 42.9631 95.3079 43.6571 96.4126 44.082C97.5457 44.5069 98.693 44.7194 99.8544 44.7194C100.449 44.7194 101.002 44.6627 101.511 44.5494C102.05 44.4644 102.517 44.3653 102.914 44.252L104.018 48.7985C103.509 49.0534 102.829 49.2659 101.979 49.4358C101.157 49.6341 100.208 49.7333 99.132 49.7333ZM107.783 42V14.2962H125.119V19.565H114.029V25.1313H123.462V30.3576H114.029V36.7312H125.544V42H107.783ZM131.061 42V14.2962H138.88C141.712 14.2962 144.162 14.7778 146.23 15.7409C148.298 16.704 149.899 18.2053 151.032 20.2449C152.193 22.2561 152.774 24.848 152.774 28.0206C152.774 31.1933 152.207 33.8135 151.074 35.8814C149.941 37.9492 148.355 39.4931 146.315 40.5128C144.304 41.5043 141.939 42 139.219 42H131.061ZM137.307 36.9436H138.497C140.083 36.9436 141.457 36.6604 142.619 36.0938C143.808 35.5273 144.729 34.5925 145.381 33.2895C146.032 31.9864 146.358 30.2301 146.358 28.0206C146.358 25.8111 146.032 24.0832 145.381 22.8368C144.729 21.5621 143.808 20.6698 142.619 20.1599C141.457 19.6217 140.083 19.3526 138.497 19.3526H137.307V36.9436Z" fill="#F3F3F3"/>
<defs>
<clipPath id="clip0_920_155">
<rect width="59.2469" height="59" fill="white"/>
</clipPath>
</defs>
</svg>
