<svg width="30" height="29" viewBox="0 0 30 29" fill="none" xmlns="http://www.w3.org/2000/svg">
<path d="M14.5207 0C6.51427 0 0 6.52743 0 14.55C0 21.7816 5.29156 27.7975 12.198 28.9143L13.0689 24.7436C12.0495 24.2148 11.3511 23.1478 11.3511 21.9209C11.3511 20.1704 12.7728 18.7449 14.5207 18.7449C16.2685 18.7449 17.6903 20.1704 17.6903 21.9209C17.6903 23.2278 16.8983 24.3532 15.77 24.8398L16.8108 28.9204C23.7335 27.8164 29.0414 21.7928 29.0414 14.55C29.0414 6.52743 22.5271 0 14.5207 0ZM16.4444 25.3849C17.656 24.7057 18.4763 23.4083 18.4763 21.9209C18.4763 19.7353 16.7018 17.9573 14.5207 17.9573C12.3395 17.9573 10.5642 19.7353 10.5642 21.9209C10.5642 23.4083 11.3845 24.7057 12.5961 25.3849C10.7213 24.6206 9.39644 22.7764 9.39644 20.6269C9.39644 17.7957 11.6951 15.4941 14.5207 15.4941C17.3462 15.4941 19.6432 17.7957 19.6432 20.6269C19.6432 22.7764 18.3192 24.6206 16.4444 25.3849ZM20.43 20.6269C20.43 17.3615 17.7795 14.7056 14.5207 14.7056C11.2618 14.7056 8.61047 17.3615 8.61047 20.6269C8.61047 22.9131 9.91041 24.9009 11.8084 25.8871C9.10127 24.8037 7.18354 22.1496 7.18354 19.0553C7.18354 15.0014 10.4741 11.7033 14.5207 11.7033C18.5672 11.7033 21.8578 15.0014 21.8578 19.0553C21.8578 22.1496 19.9392 24.8046 17.2312 25.8871C19.1301 24.9018 20.43 22.9131 20.43 20.6269ZM22.6438 19.0553C22.6438 14.5664 18.9997 10.9149 14.5207 10.9149C10.0417 10.9149 6.39672 14.5664 6.39672 19.0553C6.39672 22.2932 8.29385 25.0961 11.0336 26.4064C7.48386 25.0084 4.96464 21.5392 4.96464 17.4913C4.96464 12.2114 9.25057 7.91598 14.5207 7.91598C19.7908 7.91598 24.0767 12.2114 24.0767 17.4913C24.0767 21.5392 21.5566 25.0084 18.0069 26.4064C20.7466 25.0961 22.6438 22.2932 22.6438 19.0553ZM24.8627 17.4913C24.8627 11.7764 20.2232 7.12756 14.5207 7.12756C8.81812 7.12756 4.17782 11.7764 4.17782 17.4913C4.17782 21.399 6.34695 24.808 9.54317 26.574C5.57214 24.6963 2.81696 20.6459 2.81696 15.9618C2.81696 9.49539 8.06733 4.23527 14.5207 4.23527C20.974 4.23527 26.2235 9.49539 26.2235 15.9618C26.2235 20.6459 23.4692 24.6963 19.4982 26.574C22.6944 24.808 24.8627 21.399 24.8627 17.4913ZM20.6214 26.8792C24.4302 24.7341 27.0104 20.6441 27.0104 15.9618C27.0104 9.0612 21.4065 3.44771 14.5207 3.44771C7.63487 3.44771 2.03099 9.0612 2.03099 15.9618C2.03099 20.6441 4.61027 24.7341 8.41998 26.8792C3.89895 24.6232 0.785968 19.9443 0.785968 14.55C0.785968 6.96162 6.94758 0.788417 14.5207 0.788417C22.0938 0.788417 28.2545 6.96162 28.2545 14.55C28.2545 19.9443 25.1415 24.6232 20.6214 26.8792Z" fill="white"/>
</svg>
