<svg width="32" height="45" viewBox="0 0 32 45" fill="none" xmlns="http://www.w3.org/2000/svg">
<mask id="path-1-inside-1_1101_2527" fill="white">
<path fill-rule="evenodd" clip-rule="evenodd" d="M8 0C3.58172 0 0 3.58173 0 8.00001V36.1905C0 40.6088 3.58172 44.1905 8 44.1905H24C28.4183 44.1905 32 40.6087 32 36.1905V8C32 3.58172 28.4183 0 24 0H8ZM11.0476 3.04762C6.62934 3.04762 3.04762 6.62934 3.04762 11.0476V30.8571C3.04762 35.2754 6.62933 38.8571 11.0476 38.8571H20.9524C25.3707 38.8571 28.9524 35.2754 28.9524 30.8571V11.0476C28.9524 6.62934 25.3707 3.04762 20.9524 3.04762H11.0476Z"/>
</mask>
<path fill-rule="evenodd" clip-rule="evenodd" d="M8 0C3.58172 0 0 3.58173 0 8.00001V36.1905C0 40.6088 3.58172 44.1905 8 44.1905H24C28.4183 44.1905 32 40.6087 32 36.1905V8C32 3.58172 28.4183 0 24 0H8ZM11.0476 3.04762C6.62934 3.04762 3.04762 6.62934 3.04762 11.0476V30.8571C3.04762 35.2754 6.62933 38.8571 11.0476 38.8571H20.9524C25.3707 38.8571 28.9524 35.2754 28.9524 30.8571V11.0476C28.9524 6.62934 25.3707 3.04762 20.9524 3.04762H11.0476Z" fill="#0080FF"/>
<path d="M1 8.00001C1 4.13401 4.13401 1 8 1V-1C3.02944 -1 -1 3.02945 -1 8.00001H1ZM1 36.1905V8.00001H-1V36.1905H1ZM8 43.1905C4.13401 43.1905 1 40.0565 1 36.1905H-1C-1 41.161 3.02944 45.1905 8 45.1905V43.1905ZM24 43.1905H8V45.1905H24V43.1905ZM31 36.1905C31 40.0565 27.866 43.1905 24 43.1905V45.1905C28.9706 45.1905 33 41.161 33 36.1905H31ZM31 8V36.1905H33V8H31ZM24 1C27.866 1 31 4.13401 31 8H33C33 3.02944 28.9706 -1 24 -1V1ZM8 1H24V-1H8V1ZM4.04762 11.0476C4.04762 7.18162 7.18163 4.04762 11.0476 4.04762V2.04762C6.07706 2.04762 2.04762 6.07705 2.04762 11.0476H4.04762ZM4.04762 30.8571V11.0476H2.04762V30.8571H4.04762ZM11.0476 37.8571C7.18162 37.8571 4.04762 34.7231 4.04762 30.8571H2.04762C2.04762 35.8277 6.07705 39.8571 11.0476 39.8571V37.8571ZM20.9524 37.8571H11.0476V39.8571H20.9524V37.8571ZM27.9524 30.8571C27.9524 34.7231 24.8184 37.8571 20.9524 37.8571V39.8571C25.9229 39.8571 29.9524 35.8277 29.9524 30.8571H27.9524ZM27.9524 11.0476V30.8571H29.9524V11.0476H27.9524ZM20.9524 4.04762C24.8184 4.04762 27.9524 7.18162 27.9524 11.0476H29.9524C29.9524 6.07706 25.923 2.04762 20.9524 2.04762V4.04762ZM11.0476 4.04762H20.9524V2.04762H11.0476V4.04762Z" fill="#0080FF" mask="url(#path-1-inside-1_1101_2527)"/>
</svg>
