<svg width="335" height="229" viewBox="0 0 335 229" fill="none" xmlns="http://www.w3.org/2000/svg">
<g clip-path="url(#clip0_966_833)">
<path d="M164.232 116.889L164.176 135.202L135.877 151.634L135.934 133.32L164.232 116.889Z" fill="#97AAF3"/>
<path d="M135.933 133.32L135.877 151.634L107.396 135.202L107.453 116.889L135.933 133.32Z" fill="#889CEC"/>
<path d="M164.232 116.889L135.933 133.32L107.453 116.889L135.752 100.446L164.232 116.889Z" fill="#DCDCDC"/>
<path d="M167.001 105.288L166.933 129.544L135.877 147.574L135.945 123.33L167.001 105.288Z" fill="#E3E5F9"/>
<path d="M135.945 123.33L135.877 147.574L104.628 129.544L104.696 105.288L135.945 123.33Z" fill="url(#paint0_linear_966_833)"/>
<path d="M167.001 105.288L135.945 123.33L104.696 105.288L135.752 87.2585L167.001 105.288Z" fill="url(#paint1_linear_966_833)"/>
<path d="M160.363 99.1197L160.317 106.49L135.865 120.688L135.922 113.317L160.363 99.1197Z" fill="#97AAF3"/>
<path d="M135.922 113.317L135.865 120.688L111.254 106.49L111.311 99.1197L135.922 113.317Z" fill="#889CEC"/>
<path d="M160.362 99.1197L135.921 113.317L111.311 99.1197L135.763 84.9225L160.362 99.1197Z" fill="#BBC8F9"/>
<path d="M151.659 99.1311L147.926 101.297L135.774 94.2777L123.747 101.263L120.014 99.1084L135.774 89.9686L151.659 99.1311Z" fill="#97AAF3"/>
<path d="M147.926 101.297L135.91 108.282L123.746 101.263L135.774 94.2777L147.926 101.297Z" fill="#3E55AC"/>
<path d="M135.774 89.9686V94.2777L147.927 101.297L151.66 99.1311L135.774 89.9686Z" fill="#889CEC"/>
<g clip-path="url(#clip1_966_833)">
<path opacity="0.9" d="M122.039 90.4486V93.4628C122.047 95.5409 123.413 97.6163 126.135 99.2012C131.6 102.379 140.456 102.379 145.921 99.2012C148.645 97.6163 150.009 95.5409 150.017 93.4628V90.4302L122.039 90.4486Z" fill="#FFB700"/>
<path d="M136.031 98.592C143.758 98.592 150.022 94.9484 150.022 90.4539C150.022 85.9593 143.758 82.3158 136.031 82.3158C128.303 82.3158 122.039 85.9593 122.039 90.4539C122.039 94.9484 128.303 98.592 136.031 98.592Z" fill="#FFDE38"/>
<path d="M136.031 97.9275C132.408 97.9275 129.011 97.1126 126.467 95.6332C124.039 94.2197 122.701 92.3816 122.701 90.4539C122.701 88.5262 124.039 86.6881 126.467 85.2773C129.011 83.7979 132.406 82.983 136.031 82.983C139.655 82.983 143.05 83.7979 145.594 85.2773C148.023 86.6908 149.36 88.5288 149.36 90.4539C149.36 92.379 148.023 94.2197 145.594 95.6332C143.05 97.1126 139.655 97.9275 136.031 97.9275ZM136.031 83.1781C132.442 83.1781 129.079 83.9824 126.567 85.446C124.198 86.8226 122.895 88.6027 122.895 90.4539C122.895 92.3051 124.198 94.0852 126.564 95.4618C129.079 96.9254 132.44 97.7297 136.028 97.7297C139.616 97.7297 142.979 96.9254 145.492 95.4618C147.858 94.0852 149.161 92.3078 149.161 90.4539C149.161 88.6 147.858 86.8226 145.492 85.446C142.977 83.9824 139.616 83.1781 136.028 83.1781H136.031Z" fill="#FFB700"/>
<path d="M136.031 96.9755C132.636 96.9755 129.467 96.2186 127.106 94.8447C124.983 93.6105 123.813 92.0493 123.813 90.4539C123.813 88.8585 124.983 87.2999 127.106 86.0631C129.467 84.6892 132.636 83.9323 136.031 83.9323C139.425 83.9323 142.594 84.6892 144.955 86.0631C147.078 87.2973 148.248 88.8585 148.248 90.4539C148.248 92.0493 147.078 93.6079 144.955 94.8447C142.594 96.2186 139.425 96.9755 136.031 96.9755ZM136.031 84.1301C132.67 84.1301 129.537 84.8764 127.203 86.2345C125.143 87.4344 124.007 88.9323 124.007 90.4539C124.007 91.9755 125.143 93.476 127.203 94.6733C129.535 96.0314 132.67 96.7777 136.031 96.7777C139.391 96.7777 142.524 96.0314 144.858 94.6733C146.918 93.4734 148.054 91.9755 148.054 90.4539C148.054 88.9323 146.918 87.4318 144.858 86.2345C142.526 84.8764 139.391 84.1301 136.031 84.1301Z" fill="#FFB700"/>
<path d="M128.399 95.4565L128.302 95.2851L142.228 87.1839L142.327 87.3527L142.283 87.379L128.399 95.4565Z" fill="#FFB700"/>
<path d="M133.219 96.775L133.122 96.6036L144.049 90.2456L144.146 90.417L143.824 90.6042L133.219 96.775Z" fill="#FFB700"/>
<path d="M142.274 93.2018H138.995V93.3995H142.274V93.2018Z" fill="#FFB700"/>
<path d="M136.104 93.4127H131.961V93.215H136.052L143.097 89.1169L143.194 89.2857L136.104 93.4127Z" fill="#FFB700"/>
<path d="M142.628 93.6764C142.494 93.6764 142.361 93.6474 142.259 93.5868C142.144 93.5209 142.078 93.4206 142.078 93.3152C142.078 93.2097 142.144 93.1095 142.259 93.0435C142.465 92.9222 142.79 92.9222 142.999 93.0435C143.115 93.1095 143.18 93.2097 143.18 93.3152C143.18 93.4206 143.115 93.5209 142.999 93.5868C142.895 93.6474 142.761 93.6764 142.63 93.6764H142.628ZM142.628 93.149C142.528 93.149 142.429 93.1701 142.356 93.2123C142.303 93.244 142.272 93.2809 142.272 93.3152C142.272 93.3494 142.303 93.3864 142.356 93.418C142.502 93.505 142.753 93.5024 142.9 93.418C142.952 93.3864 142.984 93.3494 142.984 93.3152C142.984 93.2809 142.952 93.244 142.9 93.2123C142.827 93.1701 142.727 93.149 142.628 93.149Z" fill="#FFB700"/>
<path d="M139.982 94.5361H136.703V94.7339H139.982V94.5361Z" fill="#FFB700"/>
<path d="M140.042 94.4939C139.909 94.5704 139.909 94.697 140.042 94.7735C140.176 94.85 140.391 94.85 140.524 94.7735C140.658 94.697 140.658 94.5704 140.524 94.4939C140.391 94.4175 140.176 94.4175 140.042 94.4939Z" fill="#FFB700"/>
<path d="M140.283 94.9317C140.179 94.9317 140.074 94.908 139.993 94.8605C139.899 94.8051 139.844 94.7234 139.844 94.6363C139.844 94.5493 139.899 94.4649 139.993 94.4122C140.155 94.3173 140.409 94.3173 140.571 94.4122C140.666 94.4676 140.721 94.5493 140.721 94.6363C140.721 94.7234 140.666 94.8078 140.571 94.8605C140.49 94.908 140.386 94.9317 140.281 94.9317H140.283ZM140.283 94.5361C140.213 94.5361 140.142 94.552 140.092 94.581C140.058 94.6021 140.043 94.6232 140.043 94.6363C140.043 94.6495 140.058 94.6706 140.092 94.6917C140.194 94.7524 140.375 94.7524 140.477 94.6917C140.511 94.6706 140.527 94.6495 140.527 94.6363C140.527 94.6232 140.511 94.6021 140.477 94.581C140.425 94.552 140.354 94.5361 140.286 94.5361H140.283Z" fill="#FFB700"/>
<path d="M143.387 89.4123C143.259 89.4123 143.131 89.3832 143.029 89.3252C142.916 89.2593 142.854 89.1644 142.854 89.0615C142.854 88.9587 142.919 88.8611 143.029 88.7978C143.23 88.6818 143.544 88.6818 143.743 88.7978C143.856 88.8637 143.921 88.9587 143.919 89.0615C143.919 89.1644 143.853 89.2619 143.743 89.3252C143.644 89.3832 143.516 89.4123 143.385 89.4123H143.387ZM143.128 88.9666C143.079 88.9956 143.05 89.0299 143.05 89.0615C143.05 89.0905 143.079 89.1274 143.128 89.1565C143.27 89.2382 143.508 89.2382 143.649 89.1565C143.699 89.1274 143.728 89.0932 143.728 89.0615C143.728 89.0299 143.699 88.9956 143.649 88.9666C143.508 88.8848 143.27 88.8848 143.128 88.9666Z" fill="#FFB700"/>
<path d="M142.518 87.4608C142.398 87.4608 142.28 87.4344 142.186 87.379C142.081 87.3184 142.019 87.2261 142.019 87.1285C142.019 87.0309 142.079 86.9386 142.186 86.878C142.372 86.7699 142.665 86.7699 142.851 86.878C142.956 86.9386 143.018 87.0309 143.018 87.1285C143.018 87.2261 142.958 87.3184 142.851 87.379C142.757 87.4344 142.639 87.4608 142.518 87.4608ZM142.518 86.994C142.432 86.994 142.348 87.0125 142.283 87.0494C142.241 87.0731 142.215 87.1048 142.215 87.1285C142.215 87.1523 142.241 87.1839 142.283 87.2076C142.411 87.2815 142.626 87.2815 142.754 87.2076C142.796 87.1813 142.822 87.1523 142.822 87.1285C142.822 87.1022 142.796 87.0731 142.754 87.0494C142.691 87.0125 142.605 86.994 142.518 86.994Z" fill="#FFB700"/>
<path d="M143.777 90.1454C143.599 90.2482 143.599 90.417 143.777 90.5198C143.955 90.6227 144.243 90.6227 144.421 90.5198C144.599 90.417 144.599 90.2482 144.421 90.1454C144.243 90.0425 143.955 90.0425 143.777 90.1454Z" fill="#FFB700"/>
<path d="M144.099 90.6965C143.965 90.6965 143.832 90.6675 143.727 90.6068C143.612 90.5383 143.544 90.4407 143.544 90.3352C143.544 90.2297 143.609 90.1295 143.727 90.0636C143.934 89.9423 144.261 89.9423 144.468 90.0636C144.583 90.1322 144.651 90.2297 144.651 90.3352C144.651 90.4407 144.586 90.5409 144.468 90.6068C144.363 90.6675 144.23 90.6965 144.096 90.6965H144.099ZM144.099 90.1665C143.999 90.1665 143.9 90.1875 143.827 90.2297C143.774 90.2614 143.743 90.2983 143.743 90.3326C143.743 90.3669 143.774 90.4038 143.827 90.4354C143.976 90.5225 144.224 90.5225 144.374 90.4354C144.426 90.4038 144.457 90.3669 144.457 90.3326C144.457 90.2983 144.426 90.2614 144.374 90.2297C144.3 90.1875 144.201 90.1665 144.101 90.1665H144.099Z" fill="#FFB700"/>
<path d="M126.177 94.167L126.08 93.9982L138.153 86.9756L138.253 87.1443L138.182 87.1865L126.177 94.167Z" fill="#FFB700"/>
<path d="M131.914 88.0251H131.718V90.7756H131.914V88.0251Z" fill="#FFB700"/>
<path d="M131.814 88.2071C131.691 88.2071 131.566 88.1781 131.469 88.1227C131.359 88.0594 131.299 87.9645 131.299 87.8643C131.299 87.7641 131.362 87.6691 131.469 87.6058C131.663 87.4924 131.964 87.4924 132.157 87.6058C132.267 87.6691 132.327 87.7641 132.327 87.8643C132.327 87.9645 132.265 88.0594 132.157 88.1227C132.06 88.1781 131.937 88.2071 131.812 88.2071H131.814ZM131.814 87.7192C131.725 87.7192 131.634 87.7377 131.568 87.7772C131.521 87.8036 131.495 87.8353 131.495 87.8643C131.495 87.8933 131.524 87.9249 131.568 87.9513C131.702 88.0304 131.93 88.0304 132.063 87.9513C132.11 87.9249 132.136 87.8933 132.136 87.8643C132.136 87.8353 132.108 87.8036 132.063 87.7772C131.995 87.7377 131.906 87.7192 131.817 87.7192H131.814Z" fill="#FFB700"/>
<path d="M138.135 86.7382C137.963 86.8384 137.963 86.9993 138.135 87.0995C138.308 87.1997 138.586 87.1997 138.756 87.0995C138.928 86.9993 138.928 86.8384 138.756 86.7382C138.583 86.638 138.306 86.638 138.135 86.7382Z" fill="#FFB700"/>
<path d="M138.444 87.2736C138.316 87.2736 138.185 87.2446 138.085 87.1865C137.973 87.1206 137.907 87.023 137.907 86.9202C137.907 86.8173 137.973 86.7198 138.085 86.6538C138.287 86.5378 138.603 86.5378 138.805 86.6538C138.917 86.7198 138.983 86.8173 138.983 86.9202C138.983 87.023 138.917 87.1206 138.805 87.1865C138.705 87.2446 138.575 87.2736 138.446 87.2736H138.444ZM138.444 86.762C138.35 86.762 138.253 86.7831 138.182 86.8226C138.132 86.8516 138.104 86.8885 138.104 86.9176C138.104 86.9466 138.132 86.9835 138.185 87.0125C138.326 87.0942 138.567 87.0942 138.708 87.0125C138.758 86.9835 138.787 86.9466 138.787 86.9176C138.787 86.8859 138.758 86.8516 138.708 86.8226C138.637 86.7804 138.541 86.762 138.446 86.762H138.444Z" fill="#FFB700"/>
<path d="M124.954 93.0198L124.857 92.851L126.737 91.7566V89.0747L132.895 85.4909L132.994 85.6623L132.62 85.8785L126.933 89.1881V91.87L124.954 93.0198Z" fill="#FFB700"/>
<path d="M132.585 85.5252C132.452 85.6016 132.452 85.7282 132.585 85.8047C132.719 85.8812 132.934 85.8812 133.067 85.8047C133.201 85.7282 133.201 85.6016 133.067 85.5252C132.934 85.4487 132.719 85.4487 132.585 85.5252Z" fill="#FFB700"/>
<path d="M132.829 85.9603C132.725 85.9603 132.62 85.9365 132.539 85.8891C132.445 85.8337 132.39 85.7519 132.39 85.6649C132.39 85.5779 132.445 85.4935 132.539 85.4408C132.701 85.3458 132.955 85.3458 133.117 85.4408C133.211 85.4961 133.266 85.5779 133.266 85.6649C133.266 85.7546 133.211 85.8363 133.117 85.8891C133.036 85.9365 132.931 85.9603 132.827 85.9603H132.829ZM132.829 85.5647C132.759 85.5647 132.688 85.5805 132.638 85.6095C132.604 85.6306 132.589 85.6517 132.589 85.6649C132.589 85.6781 132.604 85.6992 132.638 85.7203C132.74 85.781 132.921 85.781 133.023 85.7203C133.057 85.6992 133.073 85.6781 133.073 85.6649C133.073 85.6517 133.057 85.6306 133.023 85.6095C132.971 85.5805 132.9 85.5647 132.832 85.5647H132.829Z" fill="#FFB700"/>
</g>
<path d="M120.456 129.192C120.433 129.045 120.399 128.898 120.354 128.75C120.354 128.739 120.354 128.728 120.343 128.705C120.297 128.546 120.229 128.387 120.161 128.229C120.093 128.07 120.013 127.911 119.923 127.752C119.923 127.752 119.923 127.752 119.923 127.741C119.832 127.594 119.741 127.446 119.639 127.31C119.639 127.299 119.616 127.287 119.605 127.276C119.514 127.151 119.412 127.027 119.31 126.913C119.287 126.89 119.265 126.868 119.242 126.845C119.162 126.754 119.072 126.686 118.981 126.607C118.947 126.573 118.901 126.539 118.867 126.505C118.743 126.403 118.618 126.312 118.482 126.244C118.357 126.165 118.232 126.119 118.107 126.074C118.085 126.074 118.062 126.051 118.039 126.051C117.926 126.017 117.812 125.983 117.699 125.983C117.699 125.983 117.676 125.983 117.665 125.983C117.551 125.983 117.438 125.983 117.336 125.995C117.336 125.995 117.336 125.995 117.324 125.995C117.222 126.017 117.12 126.051 117.029 126.108L118.641 125.099C118.675 125.076 118.709 125.065 118.743 125.053C118.777 125.042 118.811 125.031 118.845 125.019C118.867 125.019 118.89 125.008 118.913 125.008C118.913 125.008 118.913 125.008 118.924 125.008C118.924 125.008 118.936 125.008 118.947 125.008C118.992 125.008 119.026 124.997 119.072 124.997C119.117 124.997 119.162 124.997 119.208 124.997C119.219 124.997 119.242 124.997 119.253 124.997C119.253 124.997 119.276 124.997 119.287 124.997C119.31 124.997 119.333 124.997 119.367 124.997C119.423 124.997 119.48 125.019 119.548 125.031C119.571 125.031 119.605 125.053 119.628 125.053C119.65 125.053 119.673 125.065 119.696 125.076C119.73 125.076 119.752 125.099 119.787 125.11C119.877 125.144 119.979 125.201 120.07 125.258C120.206 125.337 120.331 125.428 120.456 125.518C120.501 125.552 120.535 125.586 120.569 125.62C120.626 125.677 120.694 125.723 120.751 125.779C120.774 125.802 120.796 125.836 120.83 125.859C120.853 125.881 120.876 125.904 120.899 125.927C120.921 125.949 120.955 125.983 120.978 126.006C121.035 126.074 121.091 126.142 121.148 126.21C121.171 126.233 121.182 126.255 121.205 126.278C121.205 126.289 121.228 126.301 121.239 126.312C121.262 126.335 121.273 126.358 121.296 126.38C121.341 126.437 121.375 126.494 121.409 126.562C121.443 126.618 121.477 126.675 121.511 126.732C121.511 126.732 121.511 126.732 121.511 126.743C121.511 126.743 121.511 126.743 121.511 126.754C121.534 126.8 121.568 126.856 121.591 126.902C121.625 126.959 121.647 127.015 121.681 127.072C121.704 127.117 121.727 127.174 121.75 127.231C121.75 127.231 121.75 127.231 121.75 127.242C121.75 127.242 121.75 127.242 121.75 127.253C121.772 127.31 121.806 127.378 121.829 127.435C121.852 127.503 121.874 127.56 121.897 127.628C121.897 127.662 121.92 127.684 121.931 127.718C121.931 127.73 121.931 127.741 121.942 127.764C121.942 127.786 121.954 127.809 121.965 127.832C121.988 127.911 122.01 127.99 122.022 128.07C122.022 128.115 122.033 128.161 122.045 128.206C122.045 128.229 122.045 128.251 122.056 128.285C122.056 128.308 122.056 128.331 122.067 128.353C122.09 128.489 122.09 128.625 122.09 128.75C122.09 129.238 121.965 129.612 121.738 129.85C121.67 129.93 121.579 129.998 121.489 130.054L119.877 131.063C120.24 130.848 120.467 130.394 120.467 129.759C120.467 129.612 120.456 129.453 120.433 129.294C120.433 129.272 120.433 129.249 120.422 129.226L120.456 129.192Z" fill="url(#paint2_linear_966_833)"/>
<path d="M118.471 126.21C117.347 125.564 116.428 126.085 116.417 127.378C116.417 128.671 117.325 130.247 118.448 130.905C119.571 131.551 120.49 131.029 120.502 129.737C120.502 128.444 119.594 126.868 118.471 126.221V126.21Z" fill="url(#paint3_linear_966_833)"/>
<path d="M100.112 160.456L99.6465 159.56L110.38 153.97C111.515 153.38 112.219 152.223 112.219 150.942V133.83C112.219 132.47 112.956 131.2 114.125 130.508L118.221 128.127L118.732 129L114.635 131.381C113.773 131.891 113.228 132.821 113.228 133.83V150.942C113.228 152.597 112.321 154.106 110.846 154.865L100.112 160.456Z" fill="url(#paint4_linear_966_833)"/>
<path d="M106.703 141.779L106.59 174.574L55.9385 204L56.0519 171.206L106.703 141.779Z" fill="#97AAF3"/>
<path d="M56.052 171.206L55.9385 204L4.95801 174.574L5.07147 141.779L56.052 171.206Z" fill="#8A9EED"/>
<path d="M106.703 141.779L56.0518 171.206L5.07129 141.779L55.7227 112.364L106.703 141.779Z" fill="#DCDCDC"/>
<path d="M111.662 121.028L111.537 164.447L55.9502 196.731L56.075 153.312L111.662 121.028Z" fill="#E3E5F9"/>
<path d="M56.0751 153.312L55.9503 196.731L0 164.447L0.124813 121.028L56.0751 153.312Z" fill="url(#paint5_linear_966_833)"/>
<path d="M111.663 121.028L56.0753 153.312L0.125 121.028L55.7122 88.744L111.663 121.028Z" fill="url(#paint6_linear_966_833)"/>
<path d="M99.7825 109.994L99.6918 123.182L55.9277 148.606L56.0185 135.407L99.7825 109.994Z" fill="#97AAF3"/>
<path d="M56.0184 135.407L55.9276 148.606L11.8799 123.182L11.9707 109.994L56.0184 135.407Z" fill="#889CEC"/>
<path d="M99.7824 109.994L56.0184 135.407L11.9707 109.994L55.7347 84.571L99.7824 109.994Z" fill="#BBC8F9"/>
<path d="M84.1917 110.006L77.5199 113.895L55.757 101.32L34.2324 113.816L27.5605 109.96L55.757 93.5973L84.1917 110.006Z" fill="#97AAF3"/>
<path d="M77.5199 113.895L56.0066 126.392L34.2324 113.816L55.757 101.32L77.5199 113.895Z" fill="#3E55AC"/>
<path d="M55.7578 93.5973V101.32L77.5207 113.895L84.1925 110.006L55.7578 93.5973Z" fill="#889CEC"/>
<path d="M43.7871 79.2673L43.2451 79.5988L49.6289 90.026L50.1709 89.6946L43.7871 79.2673Z" fill="url(#paint7_linear_966_833)"/>
<path d="M45.3297 74.4107L44.9667 73.889L62.9171 61.3928L37.1602 53.6024L51.5817 36.9445L52.0583 37.3527L38.2835 53.2849L64.3581 61.166L45.3297 74.4107Z" fill="url(#paint8_linear_966_833)"/>
<path d="M31.5322 68.5708L39.5657 73.2994L47.4629 68.9109L39.4976 64.1029L31.5322 68.5708Z" fill="url(#paint9_linear_966_833)"/>
<path d="M47.4627 68.9109V77.8806L39.5654 82.269V73.2994L47.4627 68.9109Z" fill="url(#paint10_linear_966_833)"/>
<path d="M31.5322 68.5708V77.5291L39.5657 82.269V73.2994L31.5322 68.5708Z" fill="url(#paint11_linear_966_833)"/>
<path d="M48.5752 90.5923L54.8839 94.3117L61.0906 90.8532L54.8272 87.0771L48.5752 90.5923Z" fill="url(#paint12_linear_966_833)"/>
<path d="M61.0904 90.8531V97.9064L54.8838 101.354V94.3117L61.0904 90.8531Z" fill="url(#paint13_linear_966_833)"/>
<path d="M48.5752 90.5923V97.6343L54.8839 101.354V94.3117L48.5752 90.5923Z" fill="url(#paint14_linear_966_833)"/>
<path d="M60.8857 56.8229L65.0386 59.2723L69.1234 57.0043L65.0046 54.521L60.8857 56.8229Z" fill="url(#paint15_linear_966_833)"/>
<path d="M69.1239 57.0043V61.6309L65.0391 63.8988V59.2723L69.1239 57.0043Z" fill="url(#paint16_linear_966_833)"/>
<path d="M60.8857 56.8229V61.4608L65.0386 63.8988V59.2723L60.8857 56.8229Z" fill="url(#paint17_linear_966_833)"/>
<path d="M31.5322 48.9419L35.6851 51.3912L39.7699 49.1233L35.6511 46.6399L31.5322 48.9419Z" fill="url(#paint18_linear_966_833)"/>
<path d="M39.7703 49.1233V53.7612L35.6855 56.0291V51.3912L39.7703 49.1233Z" fill="url(#paint19_linear_966_833)"/>
<path d="M31.5322 48.9419V53.5798L35.6851 56.0291V51.3912L31.5322 48.9419Z" fill="url(#paint20_linear_966_833)"/>
<path d="M31.5439 16.8507L33.6431 18.0867L35.6968 16.9414L33.6204 15.6827L31.5439 16.8507Z" fill="url(#paint21_linear_966_833)"/>
<path d="M35.6963 16.9414V19.2774L33.6426 20.4227V18.0867L35.6963 16.9414Z" fill="url(#paint22_linear_966_833)"/>
<path d="M31.5439 16.8507V19.1867L33.6431 20.4227V18.0867L31.5439 16.8507Z" fill="url(#paint23_linear_966_833)"/>
<path d="M35.6514 94.7653L37.7505 96.0013L39.8042 94.856L37.7278 93.6087L35.6514 94.7653Z" fill="url(#paint24_linear_966_833)"/>
<path d="M39.8037 94.856V97.192L37.75 98.3373V96.0013L39.8037 94.856Z" fill="url(#paint25_linear_966_833)"/>
<path d="M35.6514 94.7653V97.1013L37.7505 98.3373V96.0013L35.6514 94.7653Z" fill="url(#paint26_linear_966_833)"/>
<path d="M59.0137 77.2229L61.1128 78.4589L63.1665 77.3136L61.0901 76.0549L59.0137 77.2229Z" fill="url(#paint27_linear_966_833)"/>
<path d="M63.167 77.3136V79.6496L61.1133 80.7949V78.4589L63.167 77.3136Z" fill="url(#paint28_linear_966_833)"/>
<path d="M59.0137 77.2229V79.5589L61.1128 80.7949V78.4589L59.0137 77.2229Z" fill="url(#paint29_linear_966_833)"/>
<path d="M47.5879 105.946L48.5864 106.536L49.5622 105.992L48.5751 105.391L47.5879 105.946Z" fill="url(#paint30_linear_966_833)"/>
<path d="M49.5618 105.992V107.103L48.5859 107.647V106.536L49.5618 105.992Z" fill="url(#paint31_linear_966_833)"/>
<path d="M47.5879 105.946V107.057L48.5864 107.647V106.536L47.5879 105.946Z" fill="url(#paint32_linear_966_833)"/>
<path d="M44.7285 0.555642L45.727 1.1453L46.7028 0.601L45.7157 0L44.7285 0.555642Z" fill="url(#paint33_linear_966_833)"/>
<path d="M46.7024 0.600998V1.71228L45.7266 2.25658V1.1453L46.7024 0.600998Z" fill="url(#paint34_linear_966_833)"/>
<path d="M44.7285 0.555649V1.66693L45.727 2.25659V1.14531L44.7285 0.555649Z" fill="url(#paint35_linear_966_833)"/>
<path d="M55.8252 13.7436L56.9145 14.3787L57.9924 13.7777L56.9031 13.1313L55.8252 13.7436Z" fill="url(#paint36_linear_966_833)"/>
<path d="M57.993 13.7776V15.0023L56.915 15.592V14.3787L57.993 13.7776Z" fill="url(#paint37_linear_966_833)"/>
<path d="M55.8252 13.7436V14.957L56.9145 15.592V14.3787L55.8252 13.7436Z" fill="url(#paint38_linear_966_833)"/>
<path d="M35.6172 37.6589L36.7065 38.3053L37.7731 37.7043L36.6951 37.0579L35.6172 37.6589Z" fill="url(#paint39_linear_966_833)"/>
<path d="M37.7726 37.7043V38.9176L36.7061 39.5186V38.3053L37.7726 37.7043Z" fill="url(#paint40_linear_966_833)"/>
<path d="M35.6172 37.6589V38.8723L36.7065 39.5186V38.3053L35.6172 37.6589Z" fill="url(#paint41_linear_966_833)"/>
<path d="M50.7871 30.0387L56.6079 33.4746L62.338 30.2882L56.5626 26.8069L50.7871 30.0387Z" fill="url(#paint42_linear_966_833)"/>
<path d="M62.3385 30.2882V36.7858L56.6084 39.9722V33.4746L62.3385 30.2882Z" fill="url(#paint43_linear_966_833)"/>
<path d="M50.7871 30.0387V36.5476L56.6079 39.9722V33.4746L50.7871 30.0387Z" fill="url(#paint44_linear_966_833)"/>
</g>
<path d="M331.656 156.899L331.599 175.175L303.276 191.571L303.333 173.296L331.656 156.899Z" fill="#97AAF3"/>
<path d="M303.333 173.296L303.276 191.571L274.771 175.175L274.828 156.899L303.333 173.296Z" fill="#889CEC"/>
<path d="M331.656 156.9L303.333 173.296L274.828 156.9L303.151 140.491L331.656 156.9Z" fill="#DCDCDC"/>
<path d="M334.426 145.323L334.358 169.528L303.275 187.52L303.344 163.327L334.426 145.323Z" fill="#E3E5F9"/>
<path d="M303.344 163.327L303.276 187.52L272 169.528L272.068 145.323L303.344 163.327Z" fill="url(#paint45_linear_966_833)"/>
<path d="M334.427 145.323L303.344 163.327L272.068 145.323L303.151 127.331L334.427 145.323Z" fill="url(#paint46_linear_966_833)"/>
<path d="M327.782 139.167L327.737 146.523L303.264 160.69L303.32 153.335L327.782 139.167Z" fill="#97AAF3"/>
<path d="M303.321 153.335L303.264 160.69L278.632 146.523L278.689 139.167L303.321 153.335Z" fill="#889CEC"/>
<path d="M327.782 139.168L303.321 153.335L278.688 139.168L303.162 125L327.782 139.168Z" fill="#BBC8F9"/>
<path d="M319.073 139.179L315.336 141.34L303.174 134.336L291.136 141.306L287.399 139.156L303.174 130.036L319.073 139.179Z" fill="#97AAF3"/>
<path d="M315.336 141.34L303.31 148.311L291.136 141.306L303.174 134.336L315.336 141.34Z" fill="#3E55AC"/>
<path d="M303.173 130.036V134.336L315.336 141.34L319.072 139.179L303.173 130.036Z" fill="#889CEC"/>
<g clip-path="url(#clip2_966_833)">
<path d="M224.856 216.842C226.35 217.821 229.465 219.424 230.912 219.794C232.424 220.183 233.069 218.967 232.136 217.952L226.54 212.333L224.813 214.43C224.193 215.177 223.891 216.214 224.856 216.842Z" fill="#130F40"/>
<path d="M241.738 165.003C242.597 169.305 243.126 173.705 243.188 178.137C243.253 182.566 242.838 187.024 241.88 191.354C240.925 195.685 239.42 199.878 237.449 203.788C235.482 207.705 233.059 211.336 230.341 214.673C229.51 215.692 228.005 215.848 226.982 215.021C226.02 214.245 225.823 212.878 226.49 211.869L226.512 211.84C228.723 208.518 230.592 205.014 231.999 201.369C233.412 197.727 234.36 193.951 234.822 190.136C235.289 186.316 235.27 182.457 234.844 178.63C234.418 174.804 233.587 171.006 232.461 167.278C231.7 164.76 233.132 162.102 235.66 161.344C238.189 160.586 240.86 162.011 241.621 164.528C241.665 164.673 241.701 164.818 241.73 164.964L241.738 164.996V165.003Z" fill="#F3ABC7"/>
<path d="M211.504 208.96L206.126 211.467C205.568 211.804 204.872 211.742 204.446 211.18C204.016 210.614 204.275 209.827 204.891 209.236L208.782 205.213C211.198 203.244 214.892 206.886 211.507 208.96H211.504Z" fill="#130F40"/>
<path d="M237.481 167.833L233.984 178.91L232.235 184.448L231.798 185.834L231.313 187.339C230.941 188.409 230.501 189.45 229.994 190.458C228.981 192.471 227.702 194.336 226.212 195.99C226.03 196.2 225.837 196.403 225.644 196.603C225.454 196.806 225.258 197.002 225.057 197.194C224.86 197.39 224.66 197.582 224.452 197.763C224.245 197.952 224.037 198.141 223.862 198.289L221.658 200.19L212.844 207.8C211.846 208.659 210.338 208.554 209.474 207.56C208.665 206.632 208.716 205.253 209.536 204.376L217.519 195.91L219.515 193.792C219.694 193.607 219.829 193.454 219.964 193.302C220.106 193.15 220.237 192.99 220.368 192.831C220.503 192.675 220.63 192.511 220.758 192.348C220.885 192.185 221.013 192.022 221.13 191.855C222.099 190.52 222.878 189.066 223.454 187.549C223.742 186.791 223.975 186.015 224.157 185.232L224.722 182.515L225.892 176.828L228.231 165.45C228.759 162.874 231.288 161.213 233.878 161.739C236.465 162.265 238.137 164.782 237.605 167.361C237.573 167.521 237.529 167.68 237.481 167.833Z" fill="#F3ABC7"/>
<path d="M244.146 147.238C244.904 149.109 245.643 150.963 246.445 152.671C246.849 153.513 247.265 154.336 247.705 154.993C247.92 155.319 248.143 155.598 248.325 155.791C248.412 155.878 248.492 155.954 248.54 155.99C248.587 156.026 248.605 156.041 248.602 156.055C248.591 156.066 248.584 156.07 248.584 156.084C248.576 156.099 248.558 156.121 248.576 156.121C248.609 156.139 248.791 156.026 248.977 155.783C249.167 155.548 249.367 155.214 249.553 154.844C249.735 154.474 249.902 154.06 250.059 153.636C250.686 151.913 251.138 149.984 251.542 148.039V148.014C251.772 146.937 252.832 146.244 253.914 146.469C254.996 146.694 255.692 147.749 255.466 148.827C255.455 148.877 255.444 148.928 255.43 148.975C255.291 149.454 255.164 149.936 255.04 150.422L254.654 151.891C254.391 152.878 254.136 153.875 253.808 154.906C253.644 155.421 253.462 155.943 253.24 156.48C253.018 157.02 252.759 157.575 252.373 158.155C251.99 158.721 251.476 159.367 250.628 159.86C250.212 160.103 249.713 160.292 249.207 160.372C248.711 160.455 248.197 160.455 247.698 160.361C247.203 160.266 246.755 160.096 246.365 159.893C245.971 159.693 245.654 159.465 245.355 159.236C244.783 158.776 244.343 158.301 243.953 157.836C243.184 156.904 242.586 156.005 242.018 155.112C240.889 153.331 239.887 151.601 238.823 149.929C237.937 148.536 238.356 146.69 239.755 145.809C241.154 144.927 243.009 145.344 243.894 146.737C243.989 146.886 244.069 147.042 244.135 147.202L244.146 147.231V147.238Z" fill="#3176FF"/>
<path d="M252.011 147.608L252.525 143.393C252.543 143.208 252.693 143.063 252.882 143.056C253.079 143.049 253.25 143.197 253.268 143.393L253.378 144.586L253.698 143.622L254.584 142.323C254.693 142.164 254.912 142.12 255.072 142.229C255.225 142.33 255.276 142.53 255.185 142.693L254.529 143.883L254.478 144.158L255.699 142.943C255.844 142.798 256.085 142.806 256.216 142.961L256.908 143.763C257.007 143.879 257.021 144.042 256.945 144.173L256.555 144.826L256.059 146.204C256.059 146.204 255.418 147.637 254.208 148.301L252.008 147.608H252.011Z" fill="#F3ABC7"/>
<path d="M242.12 158.362C243.111 165.838 243.69 181.13 243.238 186.588C238.003 190.6 224.019 189.697 219.979 182.78C222.263 174.982 226.398 166.396 227.393 161.732L242.12 158.359V158.362Z" fill="#130F40"/>
<path d="M227.393 161.732C228.07 158.558 227.815 150.6 227.815 150.6C231.499 145.185 240.582 143.524 243.154 146.277C243.537 147.274 243.009 153.553 242.123 158.359C239.15 162.468 234.046 163.291 227.396 161.732H227.393Z" fill="#3176FF"/>
<path d="M216.331 175.591C216.156 175.475 216.108 175.239 216.225 175.065L217.067 173.81L217.704 174.231L216.863 175.486C216.746 175.66 216.509 175.707 216.334 175.591H216.331Z" fill="#F3ABC7"/>
<path d="M214.371 174.155C214.386 174.097 214.411 174.046 214.451 173.999L215.253 173.121L215.818 173.632L215.078 174.441L214.557 175.504C214.466 175.692 214.236 175.772 214.047 175.678C213.857 175.587 213.777 175.359 213.872 175.17L214.371 174.155Z" fill="#F3ABC7"/>
<path d="M213.977 173.436C213.992 173.386 214.017 173.338 214.057 173.299L214.688 172.609L215.252 173.121L214.662 173.77L214.254 174.608C214.163 174.797 213.934 174.876 213.744 174.782C213.555 174.691 213.474 174.463 213.569 174.274L213.981 173.436H213.977Z" fill="#F3ABC7"/>
<path d="M214.986 174.543L215.817 173.632L216.382 174.144L215.635 174.96L214.993 176.273C214.902 176.461 214.673 176.541 214.483 176.447C214.294 176.356 214.214 176.128 214.308 175.939L214.986 174.543Z" fill="#F3ABC7"/>
<path d="M213.544 172.776C213.544 172.776 213.613 172.657 213.664 172.599L214.123 172.098L214.688 172.609L214.229 173.11L213.93 173.719C213.839 173.908 213.609 173.988 213.42 173.893C213.23 173.799 213.15 173.574 213.245 173.386L213.544 172.776Z" fill="#F3ABC7"/>
<path d="M218.218 171.848L216.59 170.183C215.697 170.553 214.881 171.206 214.123 172.094L216.386 174.14L218.218 171.844V171.848Z" fill="#F3ABC7"/>
<path d="M217.701 174.231L218.218 171.848L216.386 173.875L217.701 174.231Z" fill="#F3ABC7"/>
<path d="M232.479 154.097C229.233 156.044 226.23 158.159 223.979 160.876C222.842 162.229 221.884 163.734 221.1 165.362C220.317 166.991 219.708 168.736 219.246 170.535C218.969 171.612 217.879 172.254 216.808 171.982C215.737 171.71 215.092 170.625 215.365 169.555C215.376 169.516 215.391 169.468 215.402 169.428C216.029 167.528 216.692 165.62 217.504 163.738C218.317 161.855 219.297 160.002 220.485 158.268C220.772 157.829 221.104 157.423 221.41 156.995C221.727 156.578 222.062 156.179 222.39 155.769L223.425 154.601C223.778 154.227 224.132 153.843 224.492 153.48C225.935 152.015 227.433 150.658 228.912 149.323C230.14 148.214 232.038 148.304 233.153 149.527C234.268 150.749 234.173 152.639 232.945 153.745C232.803 153.875 232.636 153.995 232.479 154.093V154.097Z" fill="#3176FF"/>
<path d="M239.088 143.23L238.254 147.876L235.507 145.874L237.525 140.419L239.088 143.23Z" fill="#F3ABC7"/>
<path d="M240.896 143.266C240.841 143.901 240.153 144.398 239.016 143.814C239.016 143.814 237.569 142.961 237.209 142.399C236.786 141.739 235.573 138.341 237.252 137.416C238.032 136.988 240.368 137.3 240.907 138.003C241.712 139.059 240.896 143.263 240.896 143.263V143.266Z" fill="#F3ABC7"/>
<path d="M230.537 142.171C230.537 140.151 231.066 135.196 236.422 136.941C236.422 132.581 241.114 136.973 242.71 136.618C243.41 138.751 242.164 140.416 237.074 139.512C238.385 153.72 225.626 154.714 225.626 145.53C228.089 145.421 230.537 144.144 230.537 142.171Z" fill="#97AAF3"/>
</g>
<defs>
<linearGradient id="paint0_linear_966_833" x1="104.412" y1="131.438" x2="135.93" y2="121.493" gradientUnits="userSpaceOnUse">
<stop stop-color="#D9DEFC"/>
<stop offset="1" stop-color="#CCD6FF"/>
</linearGradient>
<linearGradient id="paint1_linear_966_833" x1="104.696" y1="105.288" x2="167.001" y2="105.288" gradientUnits="userSpaceOnUse">
<stop stop-color="#E8EAFB"/>
<stop offset="1" stop-color="white"/>
</linearGradient>
<linearGradient id="paint2_linear_966_833" x1="117.018" y1="127.99" x2="122.124" y2="127.99" gradientUnits="userSpaceOnUse">
<stop stop-color="#CFD1D2"/>
<stop offset="1" stop-color="#999B9D"/>
</linearGradient>
<linearGradient id="paint3_linear_966_833" x1="116.428" y1="128.557" x2="120.513" y2="128.557" gradientUnits="userSpaceOnUse">
<stop stop-color="#EBECEC"/>
<stop offset="1" stop-color="#F9FAFA"/>
</linearGradient>
<linearGradient id="paint4_linear_966_833" x1="99.6351" y1="144.286" x2="118.72" y2="144.286" gradientUnits="userSpaceOnUse">
<stop stop-color="#6DB0F2"/>
<stop offset="1" stop-color="#4F85C4"/>
</linearGradient>
<linearGradient id="paint5_linear_966_833" x1="-0.385786" y1="167.838" x2="56.0461" y2="150.026" gradientUnits="userSpaceOnUse">
<stop stop-color="#D9DEFC"/>
<stop offset="1" stop-color="#CCD6FF"/>
</linearGradient>
<linearGradient id="paint6_linear_966_833" x1="0.125" y1="121.028" x2="111.663" y2="121.028" gradientUnits="userSpaceOnUse">
<stop stop-color="#E8EAFB"/>
<stop offset="1" stop-color="white"/>
</linearGradient>
<linearGradient id="paint7_linear_966_833" x1="43.2518" y1="84.6436" x2="50.1846" y2="84.6436" gradientUnits="userSpaceOnUse">
<stop stop-color="#6DB0F2"/>
<stop offset="1" stop-color="#4F85C4"/>
</linearGradient>
<linearGradient id="paint8_linear_966_833" x1="37.1602" y1="55.6776" x2="64.3581" y2="55.6776" gradientUnits="userSpaceOnUse">
<stop stop-color="#6DB0F2"/>
<stop offset="1" stop-color="#4F85C4"/>
</linearGradient>
<linearGradient id="paint9_linear_966_833" x1="31.5322" y1="68.7068" x2="47.4629" y2="68.7068" gradientUnits="userSpaceOnUse">
<stop stop-color="#6DB0F2"/>
<stop offset="1" stop-color="#6DB0F2"/>
</linearGradient>
<linearGradient id="paint10_linear_966_833" x1="67.5803" y1="20.8422" x2="40.4786" y2="82.5649" gradientUnits="userSpaceOnUse">
<stop stop-color="#6DB0F2"/>
<stop offset="1" stop-color="#368DF1"/>
</linearGradient>
<linearGradient id="paint11_linear_966_833" x1="31.5322" y1="75.4199" x2="39.5657" y2="75.4199" gradientUnits="userSpaceOnUse">
<stop stop-color="#456FA0"/>
<stop offset="1" stop-color="#4F85C4"/>
</linearGradient>
<linearGradient id="paint12_linear_966_833" x1="48.5752" y1="90.6944" x2="61.0906" y2="90.6944" gradientUnits="userSpaceOnUse">
<stop stop-color="#6DB0F2"/>
<stop offset="1" stop-color="#6DB0F2"/>
</linearGradient>
<linearGradient id="paint13_linear_966_833" x1="87.2785" y1="29.4944" x2="60.1768" y2="91.217" gradientUnits="userSpaceOnUse">
<stop stop-color="#6DB0F2"/>
<stop offset="1" stop-color="#368DF1"/>
</linearGradient>
<linearGradient id="paint14_linear_966_833" x1="48.5752" y1="95.9787" x2="54.8839" y2="95.9787" gradientUnits="userSpaceOnUse">
<stop stop-color="#456FA0"/>
<stop offset="1" stop-color="#4F85C4"/>
</linearGradient>
<linearGradient id="paint15_linear_966_833" x1="60.8857" y1="56.8909" x2="69.1234" y2="56.8909" gradientUnits="userSpaceOnUse">
<stop stop-color="#6DB0F2"/>
<stop offset="1" stop-color="#6DB0F2"/>
</linearGradient>
<linearGradient id="paint16_linear_966_833" x1="81.764" y1="27.0677" x2="54.6623" y2="88.7903" gradientUnits="userSpaceOnUse">
<stop stop-color="#6DB0F2"/>
<stop offset="1" stop-color="#368DF1"/>
</linearGradient>
<linearGradient id="paint17_linear_966_833" x1="60.8857" y1="60.3609" x2="65.0386" y2="60.3609" gradientUnits="userSpaceOnUse">
<stop stop-color="#456FA0"/>
<stop offset="1" stop-color="#4F85C4"/>
</linearGradient>
<linearGradient id="paint18_linear_966_833" x1="31.5322" y1="49.0212" x2="39.7699" y2="49.0212" gradientUnits="userSpaceOnUse">
<stop stop-color="#6DB0F2"/>
<stop offset="1" stop-color="#6DB0F2"/>
</linearGradient>
<linearGradient id="paint19_linear_966_833" x1="54.2487" y1="14.991" x2="27.1469" y2="76.7136" gradientUnits="userSpaceOnUse">
<stop stop-color="#6DB0F2"/>
<stop offset="1" stop-color="#368DF1"/>
</linearGradient>
<linearGradient id="paint20_linear_966_833" x1="31.5322" y1="52.4912" x2="35.6851" y2="52.4912" gradientUnits="userSpaceOnUse">
<stop stop-color="#456FA0"/>
<stop offset="1" stop-color="#4F85C4"/>
</linearGradient>
<linearGradient id="paint21_linear_966_833" x1="31.5439" y1="16.8847" x2="35.6968" y2="16.8847" gradientUnits="userSpaceOnUse">
<stop stop-color="#6DB0F2"/>
<stop offset="1" stop-color="#6DB0F2"/>
</linearGradient>
<linearGradient id="paint22_linear_966_833" x1="43.0036" y1="-0.272162" x2="29.3337" y2="30.85" gradientUnits="userSpaceOnUse">
<stop stop-color="#6DB0F2"/>
<stop offset="1" stop-color="#368DF1"/>
</linearGradient>
<linearGradient id="paint23_linear_966_833" x1="31.5439" y1="18.631" x2="33.6431" y2="18.631" gradientUnits="userSpaceOnUse">
<stop stop-color="#456FA0"/>
<stop offset="1" stop-color="#4F85C4"/>
</linearGradient>
<linearGradient id="paint24_linear_966_833" x1="35.6514" y1="94.8107" x2="39.8042" y2="94.8107" gradientUnits="userSpaceOnUse">
<stop stop-color="#6DB0F2"/>
<stop offset="1" stop-color="#6DB0F2"/>
</linearGradient>
<linearGradient id="paint25_linear_966_833" x1="47.111" y1="77.6425" x2="33.4411" y2="108.765" gradientUnits="userSpaceOnUse">
<stop stop-color="#6DB0F2"/>
<stop offset="1" stop-color="#368DF1"/>
</linearGradient>
<linearGradient id="paint26_linear_966_833" x1="35.6514" y1="96.557" x2="37.7505" y2="96.557" gradientUnits="userSpaceOnUse">
<stop stop-color="#456FA0"/>
<stop offset="1" stop-color="#4F85C4"/>
</linearGradient>
<linearGradient id="paint27_linear_966_833" x1="59.0137" y1="77.2569" x2="63.1665" y2="77.2569" gradientUnits="userSpaceOnUse">
<stop stop-color="#6DB0F2"/>
<stop offset="1" stop-color="#6DB0F2"/>
</linearGradient>
<linearGradient id="paint28_linear_966_833" x1="70.4743" y1="60.1001" x2="56.8044" y2="91.2222" gradientUnits="userSpaceOnUse">
<stop stop-color="#6DB0F2"/>
<stop offset="1" stop-color="#368DF1"/>
</linearGradient>
<linearGradient id="paint29_linear_966_833" x1="59.0137" y1="79.0146" x2="61.1128" y2="79.0146" gradientUnits="userSpaceOnUse">
<stop stop-color="#456FA0"/>
<stop offset="1" stop-color="#4F85C4"/>
</linearGradient>
<linearGradient id="paint30_linear_966_833" x1="47.5879" y1="105.969" x2="49.5622" y2="105.969" gradientUnits="userSpaceOnUse">
<stop stop-color="#6DB0F2"/>
<stop offset="1" stop-color="#6DB0F2"/>
</linearGradient>
<linearGradient id="paint31_linear_966_833" x1="53.0338" y1="97.793" x2="46.5389" y2="112.606" gradientUnits="userSpaceOnUse">
<stop stop-color="#6DB0F2"/>
<stop offset="1" stop-color="#368DF1"/>
</linearGradient>
<linearGradient id="paint32_linear_966_833" x1="47.5879" y1="106.797" x2="48.5864" y2="106.797" gradientUnits="userSpaceOnUse">
<stop stop-color="#456FA0"/>
<stop offset="1" stop-color="#4F85C4"/>
</linearGradient>
<linearGradient id="paint33_linear_966_833" x1="44.7285" y1="0.566982" x2="46.7028" y2="0.566982" gradientUnits="userSpaceOnUse">
<stop stop-color="#6DB0F2"/>
<stop offset="1" stop-color="#6DB0F2"/>
</linearGradient>
<linearGradient id="paint34_linear_966_833" x1="50.1858" y1="-7.59756" x2="43.6796" y2="7.21497" gradientUnits="userSpaceOnUse">
<stop stop-color="#6DB0F2"/>
<stop offset="1" stop-color="#368DF1"/>
</linearGradient>
<linearGradient id="paint35_linear_966_833" x1="44.7285" y1="1.40612" x2="45.727" y2="1.40612" gradientUnits="userSpaceOnUse">
<stop stop-color="#456FA0"/>
<stop offset="1" stop-color="#4F85C4"/>
</linearGradient>
<linearGradient id="paint36_linear_966_833" x1="55.8252" y1="13.755" x2="57.9924" y2="13.755" gradientUnits="userSpaceOnUse">
<stop stop-color="#6DB0F2"/>
<stop offset="1" stop-color="#6DB0F2"/>
</linearGradient>
<linearGradient id="paint37_linear_966_833" x1="61.7941" y1="4.83068" x2="54.6758" y2="21.0269" gradientUnits="userSpaceOnUse">
<stop stop-color="#6DB0F2"/>
<stop offset="1" stop-color="#368DF1"/>
</linearGradient>
<linearGradient id="paint38_linear_966_833" x1="55.8252" y1="14.6735" x2="56.9145" y2="14.6735" gradientUnits="userSpaceOnUse">
<stop stop-color="#456FA0"/>
<stop offset="1" stop-color="#4F85C4"/>
</linearGradient>
<linearGradient id="paint39_linear_966_833" x1="35.6172" y1="37.6816" x2="37.7731" y2="37.6816" gradientUnits="userSpaceOnUse">
<stop stop-color="#6DB0F2"/>
<stop offset="1" stop-color="#6DB0F2"/>
</linearGradient>
<linearGradient id="paint40_linear_966_833" x1="41.5738" y1="28.7573" x2="34.4668" y2="44.9422" gradientUnits="userSpaceOnUse">
<stop stop-color="#6DB0F2"/>
<stop offset="1" stop-color="#368DF1"/>
</linearGradient>
<linearGradient id="paint41_linear_966_833" x1="35.6172" y1="38.5888" x2="36.7065" y2="38.5888" gradientUnits="userSpaceOnUse">
<stop stop-color="#456FA0"/>
<stop offset="1" stop-color="#4F85C4"/>
</linearGradient>
<linearGradient id="paint42_linear_966_833" x1="50.7871" y1="30.1407" x2="62.338" y2="30.1407" gradientUnits="userSpaceOnUse">
<stop stop-color="#6DB0F2"/>
<stop offset="1" stop-color="#6DB0F2"/>
</linearGradient>
<linearGradient id="paint43_linear_966_833" x1="67.2516" y1="17.4517" x2="40.1498" y2="79.163" gradientUnits="userSpaceOnUse">
<stop stop-color="#6DB0F2"/>
<stop offset="1" stop-color="#368DF1"/>
</linearGradient>
<linearGradient id="paint44_linear_966_833" x1="50.7871" y1="35.0055" x2="56.6079" y2="35.0055" gradientUnits="userSpaceOnUse">
<stop stop-color="#456FA0"/>
<stop offset="1" stop-color="#4F85C4"/>
</linearGradient>
<linearGradient id="paint45_linear_966_833" x1="271.784" y1="171.418" x2="303.312" y2="161.44" gradientUnits="userSpaceOnUse">
<stop stop-color="#D9DEFC"/>
<stop offset="1" stop-color="#CCD6FF"/>
</linearGradient>
<linearGradient id="paint46_linear_966_833" x1="272.068" y1="145.323" x2="334.427" y2="145.323" gradientUnits="userSpaceOnUse">
<stop stop-color="#E8EAFB"/>
<stop offset="1" stop-color="white"/>
</linearGradient>
<clipPath id="clip0_966_833">
<rect width="167" height="204" fill="white"/>
</clipPath>
<clipPath id="clip1_966_833">
<rect width="27.9805" height="19.2693" fill="white" transform="translate(122.039 82.3158)"/>
</clipPath>
<clipPath id="clip2_966_833">
<rect width="54" height="94" fill="white" transform="translate(203 135)"/>
</clipPath>
</defs>
</svg>
