<svg width="204" height="212" viewBox="0 0 204 212" fill="none" xmlns="http://www.w3.org/2000/svg">
<g clip-path="url(#clip0_910_1471)">
<path d="M56.4809 110.687L28.9639 96.8893V78.1538L56.4809 91.9519V110.687ZM29.7296 96.4174L55.7152 109.448V92.4238L29.7296 79.3935V96.4174Z" fill="#8A9EED"/>
<path d="M38.4763 93.5194L38.1338 94.2061L50.7754 100.545L51.1179 99.8582L38.4763 93.5194Z" fill="#8A9EED"/>
<path d="M38.4773 95.1754L38.1348 95.8621L50.7764 102.201L51.1189 101.514L38.4773 95.1754Z" fill="#8A9EED"/>
<path d="M38.4812 91.8666L38.1387 92.5532L50.7803 98.8919L51.1228 98.2053L38.4812 91.8666Z" fill="#8A9EED"/>
<path d="M38.4802 90.2176L38.1377 90.9043L50.7793 97.243L51.1218 96.5563L38.4802 90.2176Z" fill="#8A9EED"/>
<path d="M38.4792 88.5616L38.1367 89.2483L50.7783 95.587L51.1208 94.9003L38.4792 88.5616Z" fill="#8A9EED"/>
<path d="M38.4704 86.9056L38.1279 87.5923L50.7695 93.931L51.112 93.2443L38.4704 86.9056Z" fill="#8A9EED"/>
<path d="M38.4782 96.8201L38.1357 97.5067L45.0597 100.979L45.4022 100.292L38.4782 96.8201Z" fill="#8A9EED"/>
<path d="M36.6982 86.4439C36.6982 87.6202 35.7498 88.0921 34.5766 87.5075C33.4035 86.9229 32.4551 85.4931 32.4551 84.3168C32.4551 83.1406 33.4035 82.6687 34.5766 83.2533C35.7498 83.8379 36.6982 85.2677 36.6982 86.4439Z" fill="#8A9EED"/>
<path d="M56.0946 130.247C56.0384 130.247 55.9751 130.233 55.926 130.205L29.1746 116.794C29.0482 116.731 28.9639 116.597 28.9639 116.449V98.5657C28.9639 98.4318 29.0341 98.3121 29.1465 98.2416C29.2589 98.1712 29.3994 98.1642 29.5188 98.2276L56.2702 111.638C56.3966 111.702 56.4809 111.835 56.4809 111.983V129.867C56.4809 130 56.4107 130.12 56.2983 130.191C56.2351 130.226 56.1648 130.247 56.0946 130.247ZM29.7226 116.216L55.7082 129.247V112.223L29.7226 99.1925V116.216Z" fill="#889CEC"/>
<path d="M50.9518 120.379C50.8956 120.379 50.8394 120.365 50.7832 120.337L38.1382 113.998C37.9485 113.906 37.8712 113.674 37.9696 113.484C38.0609 113.293 38.2927 113.216 38.4824 113.315L51.1275 119.654C51.3171 119.745 51.3944 119.978 51.2961 120.168C51.2258 120.302 51.0923 120.379 50.9518 120.379Z" fill="#889CEC"/>
<path d="M50.9518 122.027C50.8956 122.027 50.8394 122.013 50.7832 121.985L38.1382 115.646C37.9485 115.554 37.8712 115.322 37.9696 115.132C38.0609 114.942 38.2927 114.864 38.4824 114.963L51.1275 121.302C51.3171 121.393 51.3944 121.626 51.2961 121.816C51.2258 121.95 51.0923 122.027 50.9518 122.027Z" fill="#889CEC"/>
<path d="M50.9518 118.724C50.8956 118.724 50.8394 118.71 50.7832 118.682L38.1382 112.343C37.9485 112.251 37.8712 112.019 37.9696 111.828C38.0609 111.638 38.2927 111.561 38.4824 111.659L51.1275 117.998C51.3171 118.09 51.3944 118.322 51.2961 118.513C51.2258 118.646 51.0923 118.724 50.9518 118.724Z" fill="#889CEC"/>
<path d="M50.9518 117.069C50.8956 117.069 50.8394 117.055 50.7832 117.026L38.1382 110.687C37.9485 110.596 37.8712 110.363 37.9696 110.173C38.0609 109.983 38.2927 109.906 38.4824 110.004L51.1275 116.343C51.3171 116.435 51.3944 116.667 51.2961 116.857C51.2258 116.991 51.0923 117.069 50.9518 117.069Z" fill="#889CEC"/>
<path d="M50.9518 115.421C50.8956 115.421 50.8394 115.406 50.7832 115.378L38.1382 109.039C37.9485 108.948 37.8712 108.715 37.9696 108.525C38.0609 108.335 38.2927 108.257 38.4824 108.356L51.1275 114.695C51.3171 114.787 51.3944 115.019 51.2961 115.209C51.2258 115.343 51.0923 115.421 50.9518 115.421Z" fill="#889CEC"/>
<path d="M50.9518 113.765C50.8956 113.765 50.8394 113.751 50.7832 113.723L38.1382 107.384C37.9485 107.292 37.8712 107.06 37.9696 106.87C38.0609 106.68 38.2927 106.602 38.4824 106.701L51.1275 113.04C51.3171 113.131 51.3944 113.364 51.2961 113.554C51.2258 113.688 51.0923 113.765 50.9518 113.765Z" fill="#889CEC"/>
<path d="M45.2335 120.816C45.1773 120.816 45.1211 120.802 45.0649 120.774L38.1382 117.301C37.9485 117.21 37.8712 116.977 37.9696 116.787C38.0609 116.597 38.2927 116.519 38.4824 116.618L45.4091 120.09C45.5988 120.182 45.676 120.414 45.5777 120.605C45.5074 120.738 45.374 120.816 45.2335 120.816Z" fill="#889CEC"/>
<path d="M36.6982 106.236C36.6982 107.412 35.7498 107.884 34.5766 107.299C33.4035 106.715 32.4551 105.285 32.4551 104.109C32.4551 102.933 33.4035 102.461 34.5766 103.045C35.7498 103.63 36.6982 105.06 36.6982 106.236Z" fill="#889CEC"/>
<path d="M158.203 67.9758C157.796 67.9758 157.353 67.8631 156.904 67.6377L136.939 57.629C135.407 56.8612 134.213 55.0511 134.213 53.5015V20.7074C134.213 19.9467 134.501 19.348 135.035 19.024C135.625 18.6577 136.447 18.6859 137.283 19.1085L157.248 29.1172C158.779 29.8849 159.974 31.6951 159.974 33.2447V66.0388C159.974 66.7995 159.686 67.3982 159.152 67.7222C158.878 67.8913 158.555 67.9758 158.203 67.9758ZM135.99 19.5311C135.779 19.5311 135.59 19.5804 135.442 19.672C135.147 19.8551 134.986 20.2214 134.986 20.7074V53.5015C134.986 54.7412 136.039 56.3189 137.29 56.9458L157.255 66.9545C157.852 67.2503 158.4 67.2926 158.758 67.0672C159.053 66.884 159.215 66.5178 159.215 66.0318V33.2376C159.215 31.998 158.161 30.4202 156.911 29.8004L136.946 19.7917C136.601 19.6227 136.278 19.5311 135.99 19.5311Z" fill="#889CEC"/>
<path d="M176.749 116.237C176.538 116.237 176.37 116.068 176.37 115.857V74.0683C176.37 69.3352 172.52 63.5525 167.778 61.1718L159.418 56.981C159.229 56.8894 159.151 56.657 159.25 56.4668C159.341 56.2766 159.573 56.1992 159.763 56.2978L168.122 60.4886C173.089 62.982 177.136 69.0675 177.136 74.0683V115.857C177.136 116.068 176.967 116.237 176.756 116.237H176.749Z" fill="#889CEC"/>
<path d="M174.15 212C174.094 212 174.031 211.986 173.982 211.957L147.23 198.547C147.104 198.483 147.02 198.35 147.02 198.202V180.318C147.02 180.185 147.09 180.065 147.202 179.994C147.315 179.924 147.455 179.917 147.575 179.98L174.326 193.391C174.452 193.454 174.537 193.588 174.537 193.736V211.619C174.537 211.753 174.466 211.873 174.354 211.943C174.291 211.979 174.22 212 174.15 212ZM147.778 197.969L173.764 211V193.976L147.778 180.945V197.969Z" fill="#889CEC"/>
<path d="M169.001 202.132C168.944 202.132 168.888 202.118 168.832 202.09L156.187 195.75C155.997 195.659 155.92 195.426 156.018 195.236C156.11 195.046 156.342 194.969 156.531 195.067L169.176 201.406C169.366 201.498 169.443 201.73 169.345 201.921C169.275 202.054 169.141 202.132 169.001 202.132Z" fill="#889CEC"/>
<path d="M169.001 203.787C168.944 203.787 168.888 203.773 168.832 203.745L156.187 197.406C155.997 197.314 155.92 197.082 156.018 196.892C156.11 196.701 156.342 196.624 156.531 196.722L169.176 203.062C169.366 203.153 169.443 203.386 169.345 203.576C169.275 203.71 169.141 203.787 169.001 203.787Z" fill="#889CEC"/>
<path d="M169.001 200.477C168.944 200.477 168.888 200.463 168.832 200.434L156.187 194.095C155.997 194.004 155.92 193.771 156.018 193.581C156.11 193.391 156.342 193.313 156.531 193.412L169.176 199.751C169.366 199.843 169.443 200.075 169.345 200.265C169.275 200.399 169.141 200.477 169.001 200.477Z" fill="#889CEC"/>
<path d="M169.001 198.821C168.944 198.821 168.888 198.807 168.832 198.779L156.187 192.44C155.997 192.349 155.92 192.116 156.018 191.926C156.11 191.736 156.342 191.658 156.531 191.757L169.176 198.096C169.366 198.188 169.443 198.42 169.345 198.61C169.275 198.744 169.141 198.821 169.001 198.821Z" fill="#889CEC"/>
<path d="M169.001 197.173C168.944 197.173 168.888 197.159 168.832 197.131L156.187 190.792C155.997 190.7 155.92 190.468 156.018 190.278C156.11 190.088 156.342 190.01 156.531 190.109L169.176 196.448C169.366 196.539 169.443 196.772 169.345 196.962C169.275 197.096 169.141 197.173 169.001 197.173Z" fill="#889CEC"/>
<path d="M169.001 195.518C168.944 195.518 168.888 195.504 168.832 195.476L156.187 189.137C155.997 189.045 155.92 188.813 156.018 188.623C156.11 188.432 156.342 188.355 156.531 188.454L169.176 194.793C169.366 194.884 169.443 195.117 169.345 195.307C169.275 195.441 169.141 195.518 169.001 195.518Z" fill="#889CEC"/>
<path d="M163.282 202.569C163.226 202.569 163.17 202.554 163.114 202.526L156.187 199.054C155.997 198.962 155.92 198.73 156.018 198.54C156.11 198.35 156.342 198.272 156.531 198.371L163.458 201.843C163.648 201.935 163.725 202.167 163.627 202.357C163.556 202.491 163.423 202.569 163.282 202.569Z" fill="#889CEC"/>
<path d="M154.296 189.08C155.018 188.515 154.854 187.095 153.93 185.908C153.006 184.721 151.672 184.217 150.95 184.782C150.229 185.347 150.393 186.767 151.317 187.954C152.241 189.141 153.575 189.644 154.296 189.08Z" fill="#889CEC"/>
<path d="M75.6814 45.2188L80.4865 42.8099C80.5146 42.7958 80.5357 42.7818 80.5638 42.7747C81.7862 42.1831 83.4511 42.2817 85.2846 43.2044L138.724 69.9975C142.44 71.8641 145.454 76.393 145.454 80.1189V167.894C145.454 169.704 144.745 170.986 143.585 171.62C143.515 171.655 143.445 171.69 143.382 171.726L138.696 174.071C137.467 174.74 135.745 174.684 133.828 173.719L80.3882 146.926C76.6719 145.059 73.6582 140.53 73.6582 136.804V49.0222C73.6582 47.1275 74.438 45.8104 75.6884 45.2117L75.6814 45.2188Z" fill="#3E55AC"/>
<path d="M80.3882 146.926L133.828 173.719C137.544 175.586 140.558 174.071 140.558 170.345V82.5701C140.558 78.8441 137.544 74.3081 133.828 72.4487L80.3882 45.6555C76.6719 43.789 73.6582 45.3033 73.6582 49.0293V136.804C73.6582 140.53 76.6719 145.066 80.3882 146.926Z" fill="url(#paint0_linear_910_1471)"/>
<path d="M128.903 179.361C128.762 179.361 128.636 179.283 128.565 179.157C128.467 178.973 128.537 178.741 128.72 178.642C129.795 178.051 130.385 176.846 130.385 175.254V87.4793C130.385 83.8872 127.462 79.4991 123.866 77.696L70.4261 50.9028C68.7682 50.0717 67.2157 49.9168 66.0566 50.4732C65.9371 50.5295 65.7966 50.5225 65.6913 50.452C65.5789 50.3816 65.5156 50.2619 65.5156 50.128C65.5156 49.9801 65.5156 49.9238 65.7404 49.797V49.7829C65.7756 49.7618 65.8177 49.7477 65.8599 49.7266C66.0004 49.6491 66.197 49.5505 66.4781 49.4096L70.5315 47.3741C70.5315 47.3741 70.5807 47.3459 70.6158 47.3318C71.9997 46.6697 73.7911 46.8176 75.6738 47.7615L129.113 74.5546C132.942 76.4705 136.054 81.1684 136.054 85.0212V172.796C136.054 174.691 135.316 176.128 133.989 176.86C133.911 176.903 133.834 176.938 133.757 176.973L129.085 179.319C129.029 179.347 128.973 179.361 128.917 179.361H128.903ZM68.1641 49.4096C68.986 49.4941 69.8641 49.7688 70.7633 50.2196L124.203 77.0128C128.031 78.9357 131.143 83.6266 131.143 87.4793V175.254C131.143 176.184 130.968 177.001 130.631 177.684L133.413 176.29C133.483 176.255 133.546 176.226 133.609 176.191C134.684 175.6 135.281 174.395 135.281 172.803V85.0282C135.281 81.4361 132.359 77.048 128.762 75.2449L75.3226 48.4517C73.6576 47.6206 72.1051 47.4656 70.939 48.0291C70.9179 48.0362 70.8968 48.0502 70.8757 48.0643C70.1381 48.4376 69.0984 48.9588 68.1711 49.4167L68.1641 49.4096Z" fill="#889CEC"/>
<g style="mix-blend-mode:hard-light">
<path d="M70.5874 151.835L124.027 178.628C127.743 180.495 130.757 178.98 130.757 175.254V87.4793C130.757 83.7534 127.743 79.2174 124.027 77.3579L70.5874 50.5647C66.8712 48.6982 63.8574 50.2126 63.8574 53.9385V141.714C63.8574 145.44 66.8712 149.976 70.5874 151.835Z" fill="#E3E5F9"/>
<path d="M127.041 179.805C126.058 179.805 124.969 179.523 123.859 178.966L70.4192 152.173C66.5906 150.257 63.4785 145.559 63.4785 141.707V53.9386C63.4785 52.1354 64.1529 50.7338 65.3683 49.9731C66.7592 49.1138 68.7262 49.1983 70.7565 50.2196L124.196 77.0128C128.025 78.9357 131.137 83.6266 131.137 87.4793V175.254C131.137 177.058 130.462 178.459 129.247 179.22C128.615 179.614 127.863 179.805 127.041 179.805ZM67.5811 50.1492C66.8997 50.1492 66.2815 50.3041 65.7757 50.6211C64.7852 51.2339 64.2442 52.4101 64.2442 53.9315V141.707C64.2442 145.299 67.1667 149.687 70.7635 151.49L124.203 178.283C125.994 179.185 127.687 179.283 128.853 178.565C129.844 177.952 130.385 176.776 130.385 175.254V87.4793C130.385 83.8872 127.463 79.4991 123.866 77.696L70.4263 50.9028C69.4217 50.4028 68.4522 50.1492 67.5882 50.1492H67.5811Z" fill="#E3E5F9"/>
</g>
<path d="M18.4751 206.774C20.8988 208.33 25.9357 210.88 28.268 211.458C30.7057 212.056 31.7244 210.077 30.207 208.45L21.1025 199.435L18.3627 202.865C17.3792 204.09 16.9086 205.767 18.4751 206.774Z" fill="#8A9EED"/>
<path d="M11.3521 202.139C13.8741 201.301 17.9978 198.716 19.7189 197.145C21.5173 195.511 20.2458 193.638 17.9908 193.99L8.21191 195.216V199.956C8.21191 201.463 9.59585 202.724 11.3591 202.139H11.3521Z" fill="#8A9EED"/>
<path d="M21.9531 205.816C23.7445 205.816 25.4024 204.64 25.9293 202.829C31.8233 182.678 31.7179 167.669 25.5639 149.299C24.8333 147.123 22.48 145.954 20.3092 146.679C18.1385 147.412 16.9723 149.771 17.6959 151.948C23.33 168.746 23.4002 181.903 17.9629 200.484C17.3166 202.689 18.5811 204.999 20.7729 205.647C21.1593 205.76 21.5527 205.816 21.939 205.816H21.9531Z" fill="#0080FF"/>
<path d="M11.7385 199.519C14.0287 199.519 15.8833 197.66 15.8833 195.363V145.334C15.8833 143.038 14.0287 141.178 11.7385 141.178C9.44836 141.178 7.59375 143.038 7.59375 145.334V195.363C7.59375 197.66 9.44836 199.519 11.7385 199.519Z" fill="#0080FF"/>
<path d="M13.3826 151.87L20.211 153.779C23.4917 154.695 26.1541 152.779 26.1541 149.49C26.1541 146.2 23.4917 142.791 20.211 141.869L13.3826 139.96C10.1019 139.044 7.43945 140.96 7.43945 144.249C7.43945 147.539 10.1019 150.948 13.3826 151.87Z" fill="#0080FF"/>
<path d="M21.8411 122.07C20.984 124.45 18.2372 121.492 17.9843 121.091C17.1835 119.816 16.2281 116.012 19.1154 115.315C20.0778 115.083 21.9324 115.547 22.4663 116.357C23.2391 117.541 22.375 120.598 21.8411 122.07Z" fill="#F3ABC7"/>
<path d="M20.5968 122.978L17.2529 117.224L14.5342 126.162L18.7141 127.155L19.255 122.816L20.5968 122.978Z" fill="#F3ABC7"/>
<path d="M35.6028 125.056L33.2143 126.007L32.6031 126.218L32.2659 126.134C31.9006 126.042 31.5353 126.014 31.2051 126.063C30.7695 126.127 30.4253 126.31 30.2356 126.577L29.2451 128.169L30.1092 129.5C30.4745 130.113 31.2332 130.332 31.8655 130.015L34.3664 128.486C34.5279 128.388 34.5982 128.176 34.5209 128C34.4436 127.81 34.2329 127.718 34.0432 127.796L33.0738 128.162L33.8465 126.972L35.8557 125.711C36.0173 125.605 36.0734 125.387 35.9751 125.225C35.8978 125.098 35.7503 125.035 35.6028 125.07V125.056Z" fill="#F3ABC7"/>
<path d="M23.1758 134.205C26.0139 134.205 28.7818 133.269 30.9666 131.494C31.8588 130.768 31.9922 129.465 31.2757 128.571C30.5521 127.676 29.2525 127.542 28.3603 128.261C26.3863 129.86 23.6605 130.43 21.0683 129.782C18.5252 129.148 16.5512 127.451 15.5115 125.007C15.0619 123.95 13.8466 123.457 12.7928 123.908C11.7391 124.359 11.2473 125.577 11.6969 126.634C13.2354 130.254 16.2913 132.874 20.0707 133.811C21.1034 134.065 22.1502 134.191 23.1899 134.191L23.1758 134.205Z" fill="#8A9EED"/>
<path d="M8.32469 141.376C10.7062 137.072 7.69946 128.585 8.25444 125.084C8.37387 124.345 8.94289 123.774 9.6735 123.654C13.1158 123.091 20.4991 125.232 23.1054 129.099C24.4261 133.431 24.0959 140.96 25.6133 146.869C18.1878 149.278 8.31767 144.01 8.31767 141.376H8.32469Z" fill="#8A9EED"/>
<path d="M41.4968 147.186C41.4687 147.412 41.272 147.581 41.0472 147.567L39.6773 147.496L40.71 148.018L42.0167 149.236C42.1782 149.384 42.1853 149.638 42.0377 149.807C41.8972 149.962 41.6584 149.99 41.4968 149.863L40.2745 148.926L39.9724 148.828L40.4993 150.06C40.6398 150.25 40.5836 150.518 40.3798 150.645L39.3471 151.3C39.1996 151.391 39.0099 151.384 38.8765 151.272L38.2091 150.722L37.3661 150.286L35.6871 149.299C35.1883 149.004 35.0338 148.356 35.3359 147.849L35.9189 146.869L36.0805 146.602C36.488 145.919 37.057 145.707 38.0475 145.975L41.1947 146.722C41.3985 146.771 41.539 146.968 41.5109 147.179L41.4968 147.186Z" fill="#F3ABC7"/>
<path d="M35.2167 149.088C36.1651 149.088 37.0221 148.426 37.2399 147.461C37.4858 146.341 36.7833 145.228 35.6663 144.982C30.1025 143.742 25.8453 140.706 23.1547 129.909C22.8807 128.796 21.7567 128.12 20.6397 128.395C19.5298 128.669 18.8554 129.803 19.1294 130.916C21.841 141.784 26.5127 147.208 34.7601 149.039C34.9146 149.074 35.0621 149.088 35.2097 149.088H35.2167Z" fill="#8A9EED"/>
<path d="M2.05108 119.802C3.03459 119.344 4.19372 119.456 5.24747 119.724C6.30123 119.992 7.33391 120.393 8.41576 120.499C9.49762 120.605 10.6989 120.337 11.3803 119.492C11.9845 118.745 12.0828 117.689 12.6308 116.9C13.3192 115.9 14.6329 115.491 15.8412 115.576C15.9677 115.583 16.0871 115.597 16.2136 115.618C16.4805 115.012 16.888 114.484 17.457 114.118C19.5013 112.815 21.6299 112.871 23.7163 113.364C26.8495 114.111 28.4652 116.815 22.3113 117.541L21.0327 117.428C21.6931 120.774 17.464 118.808 16.9161 120.499C16.3189 122.33 23.1613 126.901 20.3443 131.113C17.5132 135.346 8.03641 133.156 5.45822 131.684C2.88004 130.219 0.730377 127.796 0.140274 124.88C-0.056427 123.922 -0.0704771 122.915 0.224574 121.985C0.519626 121.055 1.16593 120.21 2.04406 119.802H2.05108Z" fill="#0080FF"/>
<path d="M202.18 154.631C201.765 154.631 201.309 154.518 200.845 154.286L133.187 120.365C131.613 119.576 130.377 117.702 130.377 116.111V95.4099C130.377 94.6281 130.679 94.0153 131.22 93.6772C131.831 93.3039 132.667 93.3321 133.531 93.7617L201.189 127.683C202.763 128.472 203.999 130.345 203.999 131.937V152.638C203.999 153.42 203.697 154.032 203.156 154.37C202.875 154.546 202.545 154.631 202.18 154.631ZM132.196 94.1703C131.979 94.1703 131.782 94.2196 131.62 94.3182C131.311 94.5084 131.143 94.8957 131.143 95.3958V116.096C131.143 117.385 132.239 119.019 133.531 119.667L201.189 153.589C201.808 153.898 202.377 153.941 202.756 153.708C203.065 153.518 203.234 153.131 203.234 152.631V131.93C203.234 130.641 202.138 129.007 200.845 128.359L133.187 94.4379C132.829 94.2618 132.491 94.1703 132.196 94.1703Z" fill="#889CEC"/>
<path d="M142.102 112.216L141.76 112.903L154.401 119.242L154.744 118.555L142.102 112.216Z" fill="#8A9EED"/>
<path d="M142.103 113.872L141.761 114.559L154.402 120.898L154.745 120.211L142.103 113.872Z" fill="#8A9EED"/>
<path d="M142.107 110.563L141.765 111.25L154.406 117.589L154.749 116.902L142.107 110.563Z" fill="#8A9EED"/>
<path d="M142.106 108.907L141.764 109.594L154.405 115.933L154.748 115.246L142.106 108.907Z" fill="#8A9EED"/>
<path d="M142.105 107.258L141.763 107.945L154.404 114.284L154.747 113.597L142.105 107.258Z" fill="#8A9EED"/>
<path d="M142.103 105.602L141.761 106.289L154.402 112.628L154.745 111.941L142.103 105.602Z" fill="#8A9EED"/>
<path d="M142.108 115.523L141.766 116.21L148.69 119.682L149.032 118.995L142.108 115.523Z" fill="#8A9EED"/>
<path d="M140.324 105.144C140.324 106.32 139.376 106.792 138.203 106.207C137.029 105.623 136.081 104.193 136.081 103.017C136.081 101.841 137.029 101.369 138.203 101.953C139.376 102.538 140.324 103.968 140.324 105.144Z" fill="#8A9EED"/>
<path d="M176.44 130.247C176.384 130.247 176.328 130.233 176.272 130.204L163.626 123.865C163.437 123.774 163.359 123.541 163.458 123.351C163.549 123.161 163.781 123.084 163.971 123.182L176.616 129.521C176.805 129.613 176.883 129.845 176.784 130.035C176.714 130.169 176.581 130.247 176.44 130.247Z" fill="#9580FF"/>
<path d="M176.44 131.902C176.384 131.902 176.328 131.888 176.272 131.86L163.626 125.521C163.437 125.429 163.359 125.197 163.458 125.006C163.549 124.816 163.781 124.739 163.971 124.837L176.616 131.176C176.805 131.268 176.883 131.5 176.784 131.691C176.714 131.824 176.581 131.902 176.44 131.902Z" fill="#9580FF"/>
<path d="M176.44 128.591C176.384 128.591 176.328 128.577 176.272 128.549L163.626 122.21C163.437 122.119 163.359 121.886 163.458 121.696C163.549 121.506 163.781 121.428 163.971 121.527L176.616 127.866C176.805 127.958 176.883 128.19 176.784 128.38C176.714 128.514 176.581 128.591 176.44 128.591Z" fill="#9580FF"/>
<path d="M176.44 126.936C176.384 126.936 176.328 126.922 176.272 126.894L163.626 120.555C163.437 120.463 163.359 120.231 163.458 120.041C163.549 119.851 163.781 119.773 163.971 119.872L176.616 126.211C176.805 126.302 176.883 126.535 176.784 126.725C176.714 126.859 176.581 126.936 176.44 126.936Z" fill="#9580FF"/>
<path d="M176.44 125.288C176.384 125.288 176.328 125.274 176.272 125.246L163.626 118.907C163.437 118.815 163.359 118.583 163.458 118.393C163.549 118.202 163.781 118.125 163.971 118.224L176.616 124.563C176.805 124.654 176.883 124.887 176.784 125.077C176.714 125.211 176.581 125.288 176.44 125.288Z" fill="#9580FF"/>
<path d="M176.44 123.633C176.384 123.633 176.328 123.619 176.272 123.591L163.626 117.252C163.437 117.16 163.359 116.928 163.458 116.737C163.549 116.547 163.781 116.47 163.971 116.568L176.616 122.907C176.805 122.999 176.883 123.231 176.784 123.422C176.714 123.555 176.581 123.633 176.44 123.633Z" fill="#9580FF"/>
<path d="M170.722 130.683C170.666 130.683 170.609 130.669 170.553 130.641L163.626 127.169C163.437 127.077 163.359 126.845 163.458 126.655C163.549 126.464 163.781 126.387 163.971 126.485L170.897 129.958C171.087 130.049 171.164 130.282 171.066 130.472C170.996 130.606 170.862 130.683 170.722 130.683Z" fill="#9580FF"/>
<path d="M162.186 116.103C162.186 117.28 161.238 117.752 160.065 117.167C158.892 116.582 157.943 115.153 157.943 113.976C157.943 112.8 158.892 112.328 160.065 112.913C161.238 113.497 162.186 114.927 162.186 116.103Z" fill="#9580FF"/>
<path d="M198.295 141.206C198.238 141.206 198.182 141.192 198.126 141.164L185.481 134.825C185.291 134.733 185.214 134.501 185.312 134.311C185.404 134.121 185.635 134.043 185.825 134.142L198.47 140.481C198.66 140.572 198.737 140.805 198.639 140.995C198.569 141.129 198.435 141.206 198.295 141.206Z" fill="#889CEC"/>
<path d="M198.295 142.861C198.238 142.861 198.182 142.847 198.126 142.819L185.481 136.48C185.291 136.389 185.214 136.156 185.312 135.966C185.404 135.776 185.635 135.698 185.825 135.797L198.47 142.136C198.66 142.228 198.737 142.46 198.639 142.65C198.569 142.784 198.435 142.861 198.295 142.861Z" fill="#889CEC"/>
<path d="M198.295 139.551C198.238 139.551 198.182 139.537 198.126 139.509L185.481 133.17C185.291 133.078 185.214 132.846 185.312 132.656C185.404 132.465 185.635 132.388 185.825 132.486L198.47 138.826C198.66 138.917 198.737 139.15 198.639 139.34C198.569 139.474 198.435 139.551 198.295 139.551Z" fill="#889CEC"/>
<path d="M198.295 137.903C198.238 137.903 198.182 137.889 198.126 137.861L185.481 131.522C185.291 131.43 185.214 131.198 185.312 131.007C185.404 130.817 185.635 130.74 185.825 130.838L198.47 137.177C198.66 137.269 198.737 137.501 198.639 137.692C198.569 137.825 198.435 137.903 198.295 137.903Z" fill="#889CEC"/>
<path d="M198.295 136.248C198.238 136.248 198.182 136.234 198.126 136.205L185.481 129.866C185.291 129.775 185.214 129.542 185.312 129.352C185.404 129.162 185.635 129.085 185.825 129.183L198.47 135.522C198.66 135.614 198.737 135.846 198.639 136.036C198.569 136.17 198.435 136.248 198.295 136.248Z" fill="#889CEC"/>
<path d="M198.295 134.592C198.238 134.592 198.182 134.578 198.126 134.55L185.481 128.211C185.291 128.12 185.214 127.887 185.312 127.697C185.404 127.507 185.635 127.429 185.825 127.528L198.47 133.867C198.66 133.959 198.737 134.191 198.639 134.381C198.569 134.515 198.435 134.592 198.295 134.592Z" fill="#889CEC"/>
<path d="M192.583 141.65C192.527 141.65 192.471 141.636 192.414 141.608L185.488 138.135C185.298 138.044 185.221 137.811 185.319 137.621C185.411 137.431 185.642 137.353 185.832 137.452L192.759 140.925C192.948 141.016 193.026 141.249 192.927 141.439C192.857 141.573 192.724 141.65 192.583 141.65Z" fill="#889CEC"/>
<path d="M184.041 127.063C184.041 128.239 183.093 128.711 181.919 128.127C180.746 127.542 179.798 126.112 179.798 124.936C179.798 123.76 180.746 123.288 181.919 123.872C183.093 124.457 184.041 125.887 184.041 127.063Z" fill="#889CEC"/>
<path d="M192.141 196.349C192.085 196.349 192.022 196.335 191.973 196.307L165.221 182.896C165.095 182.833 165.011 182.699 165.011 182.551V164.668C165.011 164.534 165.081 164.414 165.193 164.344C165.306 164.273 165.446 164.266 165.566 164.33L192.317 177.74C192.444 177.804 192.528 177.938 192.528 178.086V195.969C192.528 196.103 192.458 196.222 192.345 196.293C192.282 196.328 192.212 196.349 192.141 196.349ZM165.769 182.319L191.755 195.349V178.325L165.769 165.295V182.319Z" fill="#9580FF"/>
<path d="M186.992 186.481C186.936 186.481 186.879 186.467 186.823 186.439L174.178 180.1C173.989 180.008 173.911 179.776 174.01 179.586C174.101 179.396 174.333 179.318 174.522 179.417L187.167 185.756C187.357 185.847 187.434 186.08 187.336 186.27C187.266 186.404 187.132 186.481 186.992 186.481Z" fill="#9580FF"/>
<path d="M186.992 188.137C186.936 188.137 186.879 188.122 186.823 188.094L174.178 181.755C173.989 181.664 173.911 181.431 174.01 181.241C174.101 181.051 174.333 180.973 174.522 181.072L187.167 187.411C187.357 187.503 187.434 187.735 187.336 187.925C187.266 188.059 187.132 188.137 186.992 188.137Z" fill="#9580FF"/>
<path d="M186.992 184.833C186.936 184.833 186.879 184.819 186.823 184.791L174.178 178.452C173.989 178.36 173.911 178.128 174.01 177.938C174.101 177.748 174.333 177.67 174.522 177.769L187.167 184.108C187.357 184.199 187.434 184.432 187.336 184.622C187.266 184.756 187.132 184.833 186.992 184.833Z" fill="#9580FF"/>
<path d="M186.992 183.178C186.936 183.178 186.879 183.164 186.823 183.136L174.178 176.797C173.989 176.705 173.911 176.473 174.01 176.282C174.101 176.092 174.333 176.015 174.522 176.113L187.167 182.453C187.357 182.544 187.434 182.776 187.336 182.967C187.266 183.1 187.132 183.178 186.992 183.178Z" fill="#9580FF"/>
<path d="M186.992 181.523C186.936 181.523 186.879 181.509 186.823 181.481L174.178 175.141C173.989 175.05 173.911 174.817 174.01 174.627C174.101 174.437 174.333 174.36 174.522 174.458L187.167 180.797C187.357 180.889 187.434 181.121 187.336 181.311C187.266 181.445 187.132 181.523 186.992 181.523Z" fill="#9580FF"/>
<path d="M186.992 179.868C186.936 179.868 186.879 179.853 186.823 179.825L174.178 173.486C173.989 173.395 173.911 173.162 174.01 172.972C174.101 172.782 174.333 172.704 174.522 172.803L187.167 179.142C187.357 179.234 187.434 179.466 187.336 179.656C187.266 179.79 187.132 179.868 186.992 179.868Z" fill="#9580FF"/>
<path d="M181.274 186.925C181.217 186.925 181.161 186.911 181.105 186.883L174.178 183.41C173.989 183.319 173.911 183.086 174.01 182.896C174.101 182.706 174.333 182.629 174.522 182.727L181.449 186.2C181.639 186.291 181.716 186.524 181.618 186.714C181.547 186.848 181.414 186.925 181.274 186.925Z" fill="#9580FF"/>
<path d="M172.29 173.426C173.011 172.861 172.847 171.441 171.923 170.254C170.999 169.068 169.665 168.564 168.944 169.129C168.222 169.694 168.386 171.114 169.31 172.3C170.234 173.487 171.568 173.991 172.29 173.426Z" fill="#9580FF"/>
<path d="M134.592 38.2528C134.536 38.2528 134.48 38.2387 134.424 38.2106L118.406 30.1811C114.451 28.2019 110.602 27.8567 107.841 29.2443C104.82 30.7586 100.823 30.4276 96.5937 28.3075L80.5766 20.278C80.387 20.1865 80.3097 19.954 80.408 19.7638C80.4994 19.5737 80.7312 19.4962 80.9209 19.5948L96.938 27.6243C100.893 29.6035 104.743 29.9486 107.504 28.5611C110.524 27.0467 114.522 27.3778 118.751 29.4979L134.768 37.5274C134.957 37.6189 135.035 37.8514 134.936 38.0415C134.866 38.1754 134.733 38.2528 134.592 38.2528Z" fill="#889CEC"/>
<path d="M37.8862 21.6303C37.6754 21.6303 37.5068 21.4613 37.5068 21.25V5.75447C37.5068 3.47944 38.3569 1.69746 39.8953 0.739552C41.6516 -0.352178 44.1455 -0.23244 46.7307 1.06355L75.0627 15.2772C75.2523 15.3687 75.3296 15.6012 75.2313 15.7913C75.1399 15.9815 74.9081 16.059 74.7184 15.9604L46.3865 1.74676C44.0401 0.57051 41.8202 0.443729 40.2958 1.38755C38.9891 2.19754 38.2726 3.74709 38.2726 5.74743V21.25C38.2726 21.4613 38.104 21.6303 37.8932 21.6303H37.8862Z" fill="#889CEC"/>
<path d="M82.874 20.9894C82.874 22.1657 81.9256 22.6376 80.7524 22.053C79.5792 21.4684 78.6309 20.0385 78.6309 18.8623C78.6309 17.686 79.5792 17.2141 80.7524 17.7987C81.9256 18.3833 82.874 19.8132 82.874 20.9894Z" fill="#889CEC"/>
<path d="M83.4576 27.082C82.5654 27.082 81.5819 26.8284 80.5843 26.3283C77.135 24.5956 74.332 20.3696 74.332 16.8972C74.332 15.2701 74.9432 13.9882 76.0532 13.305C77.3177 12.5232 79.095 12.6077 80.9285 13.5234C84.3778 15.249 87.1808 19.4821 87.1808 22.9545C87.1808 24.5815 86.5696 25.8634 85.4597 26.5467C84.8836 26.9059 84.2022 27.082 83.4576 27.082ZM78.0483 13.5375C77.4441 13.5375 76.8962 13.6783 76.4466 13.9601C75.5684 14.5024 75.0907 15.5448 75.0907 16.9042C75.0907 20.116 77.7041 24.0392 80.9215 25.6521C82.5162 26.4551 84.0266 26.5467 85.0593 25.9057C85.9374 25.3634 86.4151 24.3209 86.4151 22.9616C86.4151 19.7498 83.8018 15.8266 80.5843 14.2136C79.6921 13.7628 78.821 13.5375 78.0553 13.5375H78.0483Z" fill="#889CEC"/>
<path d="M136.714 38.9287C136.714 40.105 135.765 40.5769 134.592 39.9923C133.419 39.4077 132.471 37.9778 132.471 36.8016C132.471 35.6253 133.419 35.1534 134.592 35.738C135.765 36.3226 136.714 37.7525 136.714 38.9287Z" fill="#9580FF"/>
<path d="M161.269 58.7828C161.991 58.2179 161.827 56.798 160.903 55.6114C159.979 54.4248 158.645 53.9208 157.923 54.4857C157.201 55.0507 157.365 56.4706 158.289 57.6572C159.213 58.8438 160.547 59.3478 161.269 58.7828Z" fill="#9580FF"/>
<path d="M45.7612 40.7039C44.4194 35.8017 42.9512 32.7378 41.6164 32.0687C40.647 31.5827 40.1974 29.4556 39.6705 26.9834C39.2068 24.7858 38.6238 22.053 37.7105 21.5951C37.6192 21.5529 37.563 21.5599 37.5068 21.581C36.8535 21.8769 36.2001 24.2153 35.7294 25.9268C35.1112 28.1737 34.7249 29.4556 34.0786 29.7444C33.8889 29.8289 33.6781 29.8219 33.4885 29.7303C33.2004 29.5824 32.8492 29.5894 32.4558 29.7303C31.5074 30.0895 30.4888 31.2165 29.983 32.4631L29.2734 32.1744C29.8635 30.7234 31.0297 29.4486 32.1818 29.0119C32.7649 28.7935 33.3199 28.7935 33.7905 29.0189C34.1418 28.7724 34.6476 26.9341 34.9848 25.7085C35.7224 23.0461 36.2704 21.2711 37.1836 20.8626C37.4576 20.7429 37.7527 20.7499 38.0337 20.8908C39.2771 21.5106 39.818 24.0815 40.4011 26.8073C40.8015 28.6949 41.3003 31.0474 41.9396 31.3644C43.5062 32.1532 45.0376 35.2171 46.4778 40.4786L45.7401 40.6828L45.7612 40.7039Z" fill="#889CEC"/>
<path d="M45.817 59.4606C44.8616 58.0519 44.2715 54.7838 43.7025 51.6213C43.1616 48.6208 42.4872 44.8948 41.6231 44.4581C41.602 44.444 41.602 44.4511 41.588 44.4581C41.1103 44.6694 40.5061 46.7402 40.0706 48.2545C39.2908 50.931 38.7147 52.7059 37.8015 53.1074C37.5275 53.2272 37.2395 53.2201 36.9655 53.0792C36.3332 52.7623 35.8415 51.6142 35.2725 50.2901C34.7596 49.0927 34.1204 47.5995 33.5092 47.2896C32.5397 46.8036 30.8116 49.7477 30.081 51.0014L29.9826 51.1705L29.3223 50.7831L29.4206 50.614C30.4744 48.8109 32.2447 45.7963 33.8534 46.6063C34.7175 47.036 35.3568 48.5362 35.975 49.9872C36.3965 50.9733 36.9234 52.2059 37.3097 52.396C37.394 52.4383 37.4502 52.4313 37.4994 52.4101C38.1527 52.1213 38.8412 49.7688 39.34 48.0432C40.0495 45.6062 40.5272 44.0918 41.2859 43.7608C41.5107 43.6622 41.7496 43.6692 41.9673 43.7819C43.0913 44.3454 43.6533 47.0712 44.4542 51.4945C45.0092 54.5795 45.5852 57.7702 46.4493 59.038L45.817 59.4676V59.4606Z" fill="#889CEC"/>
<path d="M45.7612 77.9777C45.0587 75.0899 43.5905 69.0889 41.6235 68.1029C41.1598 67.8704 40.7945 68.293 40.1201 69.2369C39.4668 70.1595 38.5676 71.4203 37.1977 70.7371C36.0104 70.1455 35.3852 69.258 34.8373 68.4832C34.4087 67.8845 34.0434 67.3633 33.4955 67.0886C33.0037 66.8421 32.4417 66.8351 31.9078 67.0675C31.0578 67.4408 30.3834 68.3846 30.004 69.7229L29.2734 69.5116C29.716 67.955 30.5379 66.8351 31.6058 66.3702C32.3504 66.0391 33.1442 66.0532 33.8397 66.4054C34.5563 66.7646 34.9918 67.3844 35.4625 68.0395C35.9894 68.779 36.5303 69.5468 37.5419 70.0539C38.2725 70.4202 38.7713 69.8215 39.5019 68.7931C40.1131 67.9338 40.8647 66.8703 41.9607 67.4197C43.9698 68.4269 45.3327 72.998 46.4988 77.7946L45.7612 77.9777Z" fill="#889CEC"/>
<path d="M48.7058 36.908L48.3633 37.5947L55.9281 41.3878L56.2706 40.7012L48.7058 36.908Z" fill="#889CEC"/>
<path d="M48.7068 38.4267L48.3643 39.1133L55.9291 42.9065L56.2716 42.2198L48.7068 38.4267Z" fill="#889CEC"/>
<path d="M48.7019 39.9422L48.3594 40.6288L55.9242 44.422L56.2667 43.7353L48.7019 39.9422Z" fill="#889CEC"/>
<path d="M48.7058 41.4656L48.3633 42.1523L52.8997 44.4269L53.2422 43.7403L48.7058 41.4656Z" fill="#889CEC"/>
<path d="M48.7019 55.5518L48.3594 56.2385L55.9242 60.0316L56.2667 59.345L48.7019 55.5518Z" fill="#889CEC"/>
<path d="M48.7107 57.0705L48.3682 57.7571L55.933 61.5503L56.2755 60.8636L48.7107 57.0705Z" fill="#889CEC"/>
<path d="M48.7048 58.586L48.3623 59.2726L55.9272 63.0658L56.2697 62.3791L48.7048 58.586Z" fill="#889CEC"/>
<path d="M48.7029 60.1063L48.3604 60.7929L52.8968 63.0676L53.2393 62.3809L48.7029 60.1063Z" fill="#889CEC"/>
<path d="M48.7048 74.1886L48.3623 74.8752L55.9272 78.6684L56.2697 77.9817L48.7048 74.1886Z" fill="#889CEC"/>
<path d="M48.7068 75.7111L48.3643 76.3978L55.9291 80.1909L56.2716 79.5043L48.7068 75.7111Z" fill="#889CEC"/>
<path d="M48.7077 77.2298L48.3652 77.9164L55.9301 81.7096L56.2726 81.0229L48.7077 77.2298Z" fill="#889CEC"/>
<path d="M48.7058 78.7501L48.3633 79.4367L52.8997 81.7114L53.2422 81.0247L48.7058 78.7501Z" fill="#889CEC"/>
<path d="M154.29 53.8326C153.848 48.5359 153.307 42.4786 152.653 37.689C151.74 30.9907 150.974 29.6173 150.637 29.3567C150.202 29.8075 149.682 32.6882 149.338 34.6181C148.649 38.4638 148.171 40.8304 147.279 41.2812C147.061 41.3939 146.816 41.3939 146.591 41.2812C145.453 40.7107 144.912 38.8794 144.392 37.1044C144.055 35.9564 143.675 34.6604 143.254 34.4491C143.212 34.4279 143.163 34.4139 143.057 34.4702C142.362 34.8646 140.858 37.8581 140.17 46.3806L139.411 46.3172C139.966 39.4217 141.224 34.6252 142.685 33.8011C142.987 33.632 143.31 33.6179 143.598 33.7588C144.315 34.118 144.673 35.3365 145.13 36.8861C145.579 38.4286 146.099 40.1683 146.942 40.5909C146.956 40.5909 147.286 40.4782 147.75 38.6963C148.059 37.513 148.333 35.9705 148.6 34.4772C149.281 30.6808 149.647 28.9834 150.349 28.6312C150.539 28.5396 150.743 28.5396 150.932 28.6312C152.471 29.406 153.588 36.217 155.056 53.7692L154.297 53.8326H154.29Z" fill="#9580FF"/>
<path d="M154.29 53.8467C153.7 49.4868 152.323 39.2668 150.581 38.3934C150.553 38.3793 150.546 38.3793 150.539 38.3934C150.159 38.5554 149.682 40.0697 149.33 41.1756C148.797 42.8801 148.284 44.486 147.434 44.8452C147.16 44.9579 146.872 44.9438 146.598 44.81C145.481 44.2535 144.919 42.9787 144.413 41.8517C144.048 41.0276 143.703 40.2529 143.254 40.0275C143.071 39.9359 142.874 39.95 142.657 40.0627C141.814 40.5064 140.718 42.4011 140.17 46.3947L139.411 46.2891C139.917 42.6054 140.971 40.0909 142.298 39.3865C142.734 39.1541 143.184 39.14 143.591 39.3443C144.279 39.6894 144.68 40.5909 145.101 41.5348C145.572 42.5913 146.057 43.6901 146.928 44.1267C147.026 44.1761 147.082 44.162 147.125 44.1408C147.651 43.9154 148.192 42.1968 148.593 40.9431C149.169 39.1118 149.562 37.9708 150.23 37.6891C150.454 37.5975 150.686 37.6045 150.911 37.7172C152.653 38.5906 153.819 44.7607 155.035 53.7481L154.276 53.8537L154.29 53.8467Z" fill="#889CEC"/>
<path d="M154.297 53.8889C153.665 51.2899 152.344 45.8876 150.581 45.0072C150.187 44.81 149.871 45.1833 149.274 46.0214C148.677 46.8666 147.855 48.0218 146.59 47.3879C145.516 46.8455 144.946 46.0496 144.448 45.3382C144.068 44.8029 143.738 44.338 143.253 44.0915C142.818 43.8732 142.319 43.8661 141.855 44.0774C141.097 44.4155 140.493 45.2537 140.155 46.444L139.425 46.2327C139.825 44.817 140.577 43.8028 141.546 43.3731C142.228 43.0702 142.951 43.0843 143.598 43.4083C144.251 43.7323 144.651 44.2958 145.073 44.8945C145.544 45.5566 146.028 46.2468 146.935 46.6976C147.546 47.0075 147.946 46.5708 148.656 45.5706C149.211 44.7818 149.906 43.8098 150.925 44.3169C152.751 45.2326 153.981 49.3671 155.041 53.6988L154.304 53.8819L154.297 53.8889Z" fill="#E3E5F9"/>
<path d="M139.692 48.6996L139.35 49.3863L154.498 56.982L154.841 56.2954L139.692 48.6996Z" fill="#E3E5F9"/>
<path d="M139.69 50.3855L139.348 51.0721L154.496 58.6679L154.839 57.9812L139.69 50.3855Z" fill="#E3E5F9"/>
<path d="M139.688 52.0682L139.346 52.7548L154.494 60.3506L154.837 59.6639L139.688 52.0682Z" fill="#E3E5F9"/>
<path d="M139.689 53.7537L139.347 54.4404L151.128 60.3475L151.47 59.6608L139.689 53.7537Z" fill="#E3E5F9"/>
<g style="mix-blend-mode:multiply">
<path opacity="0.09" d="M76.9941 96.6147V118.196C76.9941 132.811 85.6982 150.124 99.0808 164.809C112.464 163.541 121.168 154.962 121.168 140.347V118.766L99.0808 104.51L76.9941 96.6147Z" fill="#A7B1F2"/>
<path opacity="0.18" d="M76.9941 94.0861V115.667C76.9941 130.282 85.6982 147.595 99.0808 162.28C112.464 161.013 121.168 152.434 121.168 137.819V116.238L99.0808 101.982L76.9941 94.0861Z" fill="#A6B1F2"/>
<path opacity="0.27" d="M76.9941 91.5575V113.139C76.9941 127.754 85.6982 145.066 99.0808 159.752C112.464 158.484 121.168 149.905 121.168 135.29V113.709L99.0808 99.4531L76.9941 91.5575Z" fill="#A6B2F2"/>
<path opacity="0.36" d="M76.9941 89.0359V110.617C76.9941 125.232 85.6982 142.545 99.0808 157.23C112.464 155.963 121.168 147.384 121.168 132.769V111.187L99.0808 96.9316L76.9941 89.0359Z" fill="#A6B2F2"/>
<path opacity="0.45" d="M76.9941 86.5073V108.088C76.9941 122.703 85.6982 140.016 99.0808 154.702C112.464 153.434 121.168 144.855 121.168 130.24V108.659L99.0808 94.403L76.9941 86.5073Z" fill="#A5B2F2"/>
<path opacity="0.55" d="M76.9941 83.9788V105.56C76.9941 120.175 85.6982 137.488 99.0808 152.173C112.464 150.905 121.168 142.326 121.168 127.711V106.13L99.0808 91.8744L76.9941 83.9788Z" fill="#A5B2F3"/>
<path opacity="0.64" d="M76.9941 81.4572V103.038C76.9941 117.653 85.6982 134.966 99.0808 149.652C112.464 148.384 121.168 139.805 121.168 125.19V103.609L99.0808 89.3529L76.9941 81.4572Z" fill="#A4B2F3"/>
<path opacity="0.73" d="M76.9941 78.9286V100.51C76.9941 115.125 85.6982 132.438 99.0808 147.123C112.464 145.855 121.168 137.276 121.168 122.661V101.08L99.0808 86.8243L76.9941 78.9286Z" fill="#A4B2F3"/>
<path opacity="0.82" d="M76.9941 76.4V97.9811C76.9941 112.596 85.6982 129.909 99.0808 144.594C112.464 143.327 121.168 134.748 121.168 120.133V98.5516L99.0808 84.2957L76.9941 76.4Z" fill="#A4B3F3"/>
<path opacity="0.91" d="M76.9941 73.8785V95.4595C76.9941 110.075 85.6982 127.387 99.0808 142.073C112.464 140.805 121.168 132.226 121.168 117.611V96.03L99.0808 81.7742L76.9941 73.8785Z" fill="#A3B3F3"/>
<path d="M76.9941 71.3499V92.9309C76.9941 107.546 85.6982 124.859 99.0808 139.544C112.464 138.276 121.168 129.698 121.168 115.083V93.5015L99.0808 79.2456L76.9941 71.3499Z" fill="#A3B3F3"/>
</g>
<path d="M71.6973 74.125V95.706C71.6973 110.321 80.4013 127.634 93.784 142.319C107.167 141.052 115.871 132.473 115.871 117.858V96.2765L93.784 82.0206L71.6973 74.125Z" fill="url(#paint1_linear_910_1471)"/>
<path d="M115.877 96.2765V117.858C115.877 128.395 111.353 135.797 103.815 139.579L105.691 138.643C113.229 134.86 117.753 127.458 117.753 116.921V95.3398L115.877 96.2765Z" fill="#D4DCFA"/>
<path d="M117.746 95.3327L95.6597 81.0768L73.573 73.1812L71.6973 74.125L93.784 82.0136L111.902 93.7057L115.878 96.2765L117.746 95.3327Z" fill="white"/>
<g style="mix-blend-mode:multiply">
<path opacity="0.09" d="M93.8823 125.683C93.2852 125.38 92.688 124.852 92.2314 124.168L84.9183 113.167C84.0051 111.793 84.0051 110.314 84.9183 109.856C85.8316 109.398 87.3069 110.138 88.2201 111.511L93.8823 120.027L105.818 114.047C106.731 113.589 108.206 114.329 109.12 115.702C110.033 117.076 110.033 118.555 109.12 119.013L95.5332 125.824C95.0765 126.049 94.4794 125.979 93.8823 125.683Z" fill="#A7B1F2"/>
<path opacity="0.18" d="M93.8891 124.647C93.292 124.345 92.6949 123.816 92.2382 123.133L84.9252 112.131C84.0119 110.758 84.0119 109.279 84.9252 108.821C85.8384 108.363 87.3137 109.103 88.2269 110.476L93.8891 118.992L105.825 113.012C106.738 112.554 108.213 113.293 109.126 114.667C110.04 116.04 110.04 117.52 109.126 117.977L95.54 124.788C95.0834 125.014 94.4862 124.943 93.8891 124.647Z" fill="#A6B1F2"/>
<path opacity="0.27" d="M93.8969 123.612C93.2998 123.309 92.7027 122.781 92.246 122.098L84.933 111.096C84.0197 109.722 84.0197 108.243 84.933 107.785C85.8462 107.328 87.3215 108.067 88.2348 109.441L93.8969 117.956L105.832 111.976C106.746 111.518 108.221 112.258 109.134 113.632C110.047 115.005 110.047 116.484 109.134 116.942L95.5478 123.753C95.0912 123.978 94.4941 123.908 93.8969 123.612Z" fill="#A6B2F2"/>
<path opacity="0.36" d="M93.9038 122.577C93.3066 122.274 92.7095 121.746 92.2529 121.062L84.9398 110.061C84.0266 108.687 84.0266 107.208 84.9398 106.75C85.8531 106.292 87.3283 107.032 88.2416 108.405L93.9038 116.921L105.839 110.941C106.753 110.483 108.228 111.223 109.141 112.596C110.054 113.97 110.054 115.449 109.141 115.907L95.5547 122.718C95.098 122.943 94.5009 122.873 93.9038 122.577Z" fill="#A6B2F2"/>
<path opacity="0.45" d="M93.9106 121.548C93.3135 121.245 92.7164 120.717 92.2597 120.034L84.9467 109.032C84.0334 107.659 84.0334 106.18 84.9467 105.722C85.8599 105.264 87.3352 106.003 88.2484 107.377L93.9106 115.892L105.846 109.913C106.759 109.455 108.235 110.194 109.148 111.568C110.061 112.941 110.061 114.42 109.148 114.878L95.5615 121.689C95.1049 121.915 94.5077 121.844 93.9106 121.548Z" fill="#A5B2F2"/>
<path opacity="0.55" d="M93.9174 120.513C93.3203 120.21 92.7232 119.682 92.2666 118.999L84.9535 107.997C84.0402 106.623 84.0402 105.144 84.9535 104.686C85.8668 104.229 87.342 104.968 88.2553 106.342L93.9174 114.857L105.853 108.877C106.766 108.419 108.241 109.159 109.155 110.532C110.068 111.906 110.068 113.385 109.155 113.843L95.5683 120.654C95.1117 120.879 94.5146 120.809 93.9174 120.513Z" fill="#A5B2F3"/>
<path opacity="0.64" d="M93.9243 119.478C93.3271 119.175 92.73 118.646 92.2734 117.963L84.9603 106.961C84.0471 105.588 84.0471 104.109 84.9603 103.651C85.8736 103.193 87.3488 103.933 88.2621 105.306L93.9243 113.822L105.86 107.842C106.773 107.384 108.248 108.124 109.162 109.497C110.075 110.871 110.075 112.35 109.162 112.807L95.5752 119.618C95.1185 119.844 94.5214 119.773 93.9243 119.478Z" fill="#A4B2F3"/>
<path opacity="0.73" d="M93.9243 118.442C93.3271 118.139 92.73 117.611 92.2734 116.928L84.9603 105.926C84.0471 104.553 84.0471 103.073 84.9603 102.616C85.8736 102.158 87.3488 102.897 88.2621 104.271L93.9243 112.786L105.86 106.806C106.773 106.349 108.248 107.088 109.162 108.462C110.075 109.835 110.075 111.314 109.162 111.772L95.5752 118.583C95.1185 118.808 94.5214 118.738 93.9243 118.442Z" fill="#A4B2F3"/>
<path opacity="0.82" d="M93.9321 117.414C93.335 117.111 92.7378 116.583 92.2812 115.9L84.9681 104.898C84.0549 103.524 84.0549 102.045 84.9681 101.587C85.8814 101.129 87.3567 101.869 88.2699 103.242L93.9321 111.758L105.868 105.778C106.781 105.32 108.256 106.06 109.169 107.433C110.083 108.807 110.083 110.286 109.169 110.744L95.583 117.555C95.1263 117.78 94.5292 117.71 93.9321 117.414Z" fill="#A4B3F3"/>
<path opacity="0.91" d="M93.9389 116.378C93.3418 116.076 92.7447 115.547 92.288 114.864L84.975 103.862C84.0617 102.489 84.0617 101.01 84.975 100.552C85.8882 100.094 87.3635 100.834 88.2767 102.207L93.9389 110.723L105.874 104.743C106.788 104.285 108.263 105.024 109.176 106.398C110.089 107.771 110.089 109.25 109.176 109.708L95.5898 116.519C95.1332 116.745 94.5361 116.674 93.9389 116.378Z" fill="#A3B3F3"/>
<path d="M93.9458 115.343C93.3486 115.04 92.7515 114.512 92.2949 113.829L84.9818 102.827C84.0686 101.453 84.0686 99.9743 84.9818 99.5165C85.8951 99.0587 87.3703 99.7982 88.2836 101.172L93.9458 109.687L105.881 103.707C106.795 103.25 108.27 103.989 109.183 105.363C110.096 106.736 110.096 108.215 109.183 108.673L95.5966 115.484C95.14 115.709 94.5429 115.639 93.9458 115.343Z" fill="#A3B3F3"/>
</g>
<path d="M109.12 105.363C108.207 103.989 106.731 103.25 105.818 103.707L93.8825 109.687L88.2204 101.172C87.3071 99.7982 85.8319 99.0587 84.9186 99.5165C84.8975 99.5306 84.8765 99.5447 84.8554 99.5517L81.6801 101.136C80.7668 101.594 80.7668 103.073 81.6801 104.447L88.9931 115.449C89.4497 116.132 90.0469 116.66 90.644 116.963C91.2411 117.266 91.8383 117.336 92.2949 117.104L105.881 110.293L109.12 108.666C110.033 108.208 110.033 106.729 109.12 105.356V105.363Z" fill="url(#paint2_linear_910_1471)"/>
<path d="M90.6372 116.963C90.04 116.66 89.4429 116.132 88.9863 115.449L81.6732 104.447C80.76 103.073 80.76 101.594 81.6732 101.136C82.5865 100.679 84.0617 101.418 84.975 102.792L90.6372 111.307L102.573 105.327C103.486 104.87 104.961 105.609 105.874 106.983C106.788 108.356 106.788 109.835 105.874 110.293L92.288 117.104C91.8314 117.329 91.2343 117.259 90.6372 116.963Z" fill="url(#paint3_linear_910_1471)"/>
</g>
<defs>
<linearGradient id="paint0_linear_910_1471" x1="107.104" y1="174.515" x2="107.104" y2="48.1348" gradientUnits="userSpaceOnUse">
<stop stop-color="#7023FF"/>
<stop offset="0.63" stop-color="#1E69FF"/>
<stop offset="1" stop-color="#8FB5FF"/>
</linearGradient>
<linearGradient id="paint1_linear_910_1471" x1="106.408" y1="88.9443" x2="76.6637" y2="118.604" gradientUnits="userSpaceOnUse">
<stop stop-color="#E9ECFC"/>
<stop offset="0.46" stop-color="#D2DAFA"/>
<stop offset="1" stop-color="#BBC9F8"/>
</linearGradient>
<linearGradient id="paint2_linear_910_1471" x1="95.3929" y1="117.245" x2="95.3929" y2="99.8335" gradientUnits="userSpaceOnUse">
<stop stop-color="#7023FF"/>
<stop offset="0.63" stop-color="#174DBA"/>
<stop offset="1" stop-color="#8A6EFF"/>
</linearGradient>
<linearGradient id="paint3_linear_910_1471" x1="93.7774" y1="117.245" x2="93.7774" y2="101.418" gradientUnits="userSpaceOnUse">
<stop stop-color="#1E69FF"/>
<stop offset="1" stop-color="#8FB5FF"/>
</linearGradient>
<clipPath id="clip0_910_1471">
<rect width="204" height="212" fill="white"/>
</clipPath>
</defs>
</svg>
