<svg width="253" height="217" viewBox="0 0 253 217" fill="none" xmlns="http://www.w3.org/2000/svg">
<path d="M230.604 50.5731L230.548 68.8866L202.249 85.3178L202.306 67.0042L230.604 50.5731Z" fill="#97AAF3"/>
<path d="M202.305 67.0042L202.249 85.3178L173.769 68.8866L173.825 50.5731L202.305 67.0042Z" fill="#889CEC"/>
<path d="M230.604 50.5731L202.305 67.0043L173.825 50.5731L202.124 34.1307L230.604 50.5731Z" fill="#DCDCDC"/>
<path d="M233.373 38.9727L233.305 63.2282L202.249 81.2582L202.317 57.0141L233.373 38.9727Z" fill="#E3E5F9"/>
<path d="M202.317 57.0141L202.249 81.2582L171 63.2282L171.068 38.9727L202.317 57.0141Z" fill="url(#paint0_linear_966_834)"/>
<path d="M233.373 38.9727L202.317 57.0141L171.068 38.9727L202.124 20.9427L233.373 38.9727Z" fill="url(#paint1_linear_966_834)"/>
<path d="M226.735 32.8039L226.689 40.1747L202.237 54.3719L202.294 47.0011L226.735 32.8039Z" fill="#97AAF3"/>
<path d="M202.294 47.0011L202.237 54.3719L177.626 40.1747L177.683 32.8039L202.294 47.0011Z" fill="#889CEC"/>
<path d="M226.734 32.8039L202.294 47.0011L177.683 32.8039L202.135 18.6067L226.734 32.8039Z" fill="#BBC8F9"/>
<path d="M218.032 32.8153L214.299 34.9811L202.146 27.9619L190.119 34.9471L186.386 32.7926L202.146 23.6528L218.032 32.8153Z" fill="#97AAF3"/>
<path d="M214.298 34.9811L202.282 41.9664L190.118 34.9471L202.146 27.9619L214.298 34.9811Z" fill="#3E55AC"/>
<path d="M202.146 23.6528V27.9619L214.299 34.9811L218.032 32.8153L202.146 23.6528Z" fill="#889CEC"/>
<g clip-path="url(#clip0_966_834)">
<path opacity="0.9" d="M188.411 24.1328V27.147C188.419 29.2251 189.785 31.3005 192.507 32.8854C197.972 36.0631 206.828 36.0631 212.293 32.8854C215.018 31.3005 216.381 29.2251 216.389 27.147V24.1144L188.411 24.1328Z" fill="#FFB700"/>
<path d="M202.403 32.2762C210.13 32.2762 216.394 28.6327 216.394 24.1381C216.394 19.6436 210.13 16 202.403 16C194.675 16 188.411 19.6436 188.411 24.1381C188.411 28.6327 194.675 32.2762 202.403 32.2762Z" fill="#FFDE38"/>
<path d="M202.403 31.6116C198.78 31.6116 195.383 30.7968 192.839 29.3174C190.411 27.9039 189.073 26.0658 189.073 24.1381C189.073 22.2104 190.411 20.3723 192.839 18.9615C195.383 17.482 198.778 16.6672 202.403 16.6672C206.027 16.6672 209.422 17.482 211.966 18.9615C214.395 20.3749 215.732 22.213 215.732 24.1381C215.732 26.0632 214.395 27.9039 211.966 29.3174C209.422 30.7968 206.027 31.6116 202.403 31.6116ZM202.403 16.8623C198.814 16.8623 195.451 17.6666 192.939 19.1302C190.57 20.5068 189.267 22.2868 189.267 24.1381C189.267 25.9893 190.57 27.7694 192.936 29.1459C195.451 30.6095 198.812 31.4139 202.4 31.4139C205.988 31.4139 209.351 30.6095 211.864 29.1459C214.23 27.7694 215.533 25.992 215.533 24.1381C215.533 22.2842 214.23 20.5068 211.864 19.1302C209.349 17.6666 205.988 16.8623 202.4 16.8623H202.403Z" fill="#FFB700"/>
<path d="M202.403 30.6596C199.008 30.6596 195.839 29.9028 193.478 28.5288C191.355 27.2947 190.186 25.7335 190.186 24.1381C190.186 22.5426 191.355 20.9841 193.478 19.7473C195.839 18.3734 199.008 17.6165 202.403 17.6165C205.797 17.6165 208.967 18.3734 211.327 19.7473C213.45 20.9815 214.62 22.5426 214.62 24.1381C214.62 25.7335 213.45 27.292 211.327 28.5288C208.967 29.9028 205.797 30.6596 202.403 30.6596ZM202.403 17.8143C199.042 17.8143 195.909 18.5606 193.575 19.9187C191.515 21.1186 190.379 22.6165 190.379 24.1381C190.379 25.6597 191.515 27.1602 193.575 28.3574C195.907 29.7155 199.042 30.4618 202.403 30.4618C205.763 30.4618 208.896 29.7155 211.23 28.3574C213.29 27.1576 214.426 25.6597 214.426 24.1381C214.426 22.6165 213.29 21.116 211.23 19.9187C208.899 18.5606 205.763 17.8143 202.403 17.8143V17.8143Z" fill="#FFB700"/>
<path d="M194.771 29.1407L194.674 28.9693L208.6 20.8681L208.699 21.0369L208.655 21.0632L194.771 29.1407Z" fill="#FFB700"/>
<path d="M199.591 30.4592L199.494 30.2878L210.421 23.9297L210.518 24.1012L210.196 24.2884L199.591 30.4592Z" fill="#FFB700"/>
<path d="M208.647 26.886H205.367V27.0838H208.647V26.886Z" fill="#FFB700"/>
<path d="M202.476 27.0969H198.333V26.8991H202.424L209.469 22.8011L209.566 22.9699L202.476 27.0969Z" fill="#FFB700"/>
<path d="M209 27.3607C208.866 27.3607 208.733 27.3317 208.631 27.271C208.516 27.2051 208.45 27.1049 208.45 26.9994C208.45 26.8939 208.516 26.7937 208.631 26.7278C208.838 26.6065 209.162 26.6065 209.371 26.7278C209.487 26.7937 209.552 26.8939 209.552 26.9994C209.552 27.1049 209.487 27.2051 209.371 27.271C209.267 27.3317 209.133 27.3607 209.002 27.3607H209ZM209 26.8332C208.9 26.8332 208.801 26.8543 208.728 26.8965C208.675 26.9282 208.644 26.9651 208.644 26.9994C208.644 27.0337 208.675 27.0706 208.728 27.1022C208.874 27.1893 209.125 27.1866 209.272 27.1022C209.324 27.0706 209.356 27.0337 209.356 26.9994C209.356 26.9651 209.324 26.9282 209.272 26.8965C209.199 26.8543 209.099 26.8332 209 26.8332V26.8332Z" fill="#FFB700"/>
<path d="M206.355 28.2203H203.075V28.4181H206.355V28.2203Z" fill="#FFB700"/>
<path d="M206.415 28.1781C206.281 28.2546 206.281 28.3812 206.415 28.4577C206.548 28.5342 206.763 28.5342 206.896 28.4577C207.03 28.3812 207.03 28.2546 206.896 28.1781C206.763 28.1017 206.548 28.1017 206.415 28.1781Z" fill="#FFB700"/>
<path d="M206.656 28.6159C206.551 28.6159 206.446 28.5922 206.365 28.5447C206.271 28.4893 206.216 28.4076 206.216 28.3206C206.216 28.2335 206.271 28.1492 206.365 28.0964C206.527 28.0015 206.781 28.0015 206.943 28.0964C207.038 28.1518 207.093 28.2335 207.093 28.3206C207.093 28.4076 207.038 28.492 206.943 28.5447C206.862 28.5922 206.758 28.6159 206.653 28.6159H206.656ZM206.656 28.2204C206.585 28.2204 206.514 28.2362 206.464 28.2652C206.43 28.2863 206.415 28.3074 206.415 28.3206C206.415 28.3337 206.43 28.3548 206.464 28.3759C206.567 28.4366 206.747 28.4366 206.849 28.3759C206.883 28.3548 206.899 28.3337 206.899 28.3206C206.899 28.3074 206.883 28.2863 206.849 28.2652C206.797 28.2362 206.726 28.2204 206.658 28.2204H206.656Z" fill="#FFB700"/>
<path d="M209.759 23.0964C209.631 23.0964 209.503 23.0674 209.401 23.0094C209.288 22.9435 209.226 22.8485 209.226 22.7457C209.226 22.6428 209.291 22.5453 209.401 22.482C209.602 22.366 209.917 22.366 210.115 22.482C210.228 22.5479 210.293 22.6428 210.291 22.7457C210.291 22.8485 210.225 22.9461 210.115 23.0094C210.016 23.0674 209.888 23.0964 209.757 23.0964H209.759ZM209.5 22.6508C209.451 22.6798 209.422 22.714 209.422 22.7457C209.422 22.7747 209.451 22.8116 209.5 22.8406C209.642 22.9224 209.88 22.9224 210.021 22.8406C210.071 22.8116 210.1 22.7773 210.1 22.7457C210.1 22.714 210.071 22.6798 210.021 22.6508C209.88 22.569 209.642 22.569 209.5 22.6508Z" fill="#FFB700"/>
<path d="M208.891 21.145C208.77 21.145 208.652 21.1186 208.558 21.0632C208.453 21.0026 208.391 20.9103 208.391 20.8127C208.391 20.7151 208.451 20.6228 208.558 20.5622C208.744 20.454 209.037 20.454 209.223 20.5622C209.328 20.6228 209.39 20.7151 209.39 20.8127C209.39 20.9103 209.33 21.0026 209.223 21.0632C209.129 21.1186 209.011 21.145 208.891 21.145V21.145ZM208.891 20.6782C208.804 20.6782 208.72 20.6967 208.655 20.7336C208.613 20.7573 208.587 20.789 208.587 20.8127C208.587 20.8364 208.613 20.8681 208.655 20.8918C208.783 20.9656 208.998 20.9656 209.126 20.8918C209.168 20.8654 209.194 20.8364 209.194 20.8127C209.194 20.7863 209.168 20.7573 209.126 20.7336C209.063 20.6967 208.977 20.6782 208.891 20.6782V20.6782Z" fill="#FFB700"/>
<path d="M210.149 23.8296C209.971 23.9324 209.971 24.1012 210.149 24.204C210.327 24.3069 210.615 24.3069 210.793 24.204C210.971 24.1012 210.971 23.9324 210.793 23.8296C210.615 23.7267 210.327 23.7267 210.149 23.8296V23.8296Z" fill="#FFB700"/>
<path d="M210.471 24.3807C210.337 24.3807 210.204 24.3517 210.099 24.2911C209.984 24.2225 209.916 24.1249 209.916 24.0195C209.916 23.914 209.981 23.8138 210.099 23.7478C210.306 23.6265 210.633 23.6265 210.84 23.7478C210.955 23.8164 211.023 23.914 211.023 24.0195C211.023 24.1249 210.958 24.2252 210.84 24.2911C210.735 24.3517 210.602 24.3807 210.468 24.3807H210.471ZM210.471 23.8507C210.371 23.8507 210.272 23.8718 210.199 23.914C210.146 23.9456 210.115 23.9825 210.115 24.0168C210.115 24.0511 210.146 24.088 210.199 24.1197C210.348 24.2067 210.596 24.2067 210.746 24.1197C210.798 24.088 210.829 24.0511 210.829 24.0168C210.829 23.9825 210.798 23.9456 210.746 23.914C210.672 23.8718 210.573 23.8507 210.473 23.8507H210.471Z" fill="#FFB700"/>
<path d="M192.549 27.8512L192.452 27.6824L204.525 20.6598L204.625 20.8286L204.554 20.8708L192.549 27.8512Z" fill="#FFB700"/>
<path d="M198.286 21.7094H198.09V24.4599H198.286V21.7094Z" fill="#FFB700"/>
<path d="M198.186 21.8913C198.063 21.8913 197.938 21.8623 197.841 21.8069C197.731 21.7436 197.671 21.6487 197.671 21.5485C197.671 21.4483 197.734 21.3534 197.841 21.2901C198.035 21.1767 198.336 21.1767 198.529 21.2901C198.639 21.3534 198.699 21.4483 198.699 21.5485C198.699 21.6487 198.637 21.7436 198.529 21.8069C198.433 21.8623 198.309 21.8913 198.184 21.8913H198.186ZM198.186 21.4035C198.098 21.4035 198.006 21.4219 197.94 21.4615C197.893 21.4878 197.867 21.5195 197.867 21.5485C197.867 21.5775 197.896 21.6092 197.94 21.6355C198.074 21.7146 198.302 21.7146 198.435 21.6355C198.482 21.6092 198.508 21.5775 198.508 21.5485C198.508 21.5195 198.48 21.4878 198.435 21.4615C198.367 21.4219 198.278 21.4035 198.189 21.4035H198.186Z" fill="#FFB700"/>
<path d="M204.507 20.4224C204.335 20.5227 204.335 20.6835 204.507 20.7837C204.68 20.8839 204.958 20.8839 205.128 20.7837C205.3 20.6835 205.3 20.5227 205.128 20.4224C204.955 20.3222 204.678 20.3222 204.507 20.4224Z" fill="#FFB700"/>
<path d="M204.816 20.9578C204.688 20.9578 204.557 20.9288 204.457 20.8708C204.345 20.8048 204.279 20.7073 204.279 20.6044C204.279 20.5016 204.345 20.404 204.457 20.3381C204.659 20.222 204.975 20.222 205.177 20.3381C205.29 20.404 205.355 20.5016 205.355 20.6044C205.355 20.7073 205.29 20.8048 205.177 20.8708C205.078 20.9288 204.947 20.9578 204.818 20.9578H204.816ZM204.816 20.4462C204.722 20.4462 204.625 20.4673 204.554 20.5068C204.504 20.5358 204.476 20.5728 204.476 20.6018C204.476 20.6308 204.504 20.6677 204.557 20.6967C204.698 20.7785 204.939 20.7785 205.08 20.6967C205.13 20.6677 205.159 20.6308 205.159 20.6018C205.159 20.5701 205.13 20.5358 205.08 20.5068C205.009 20.4646 204.913 20.4462 204.818 20.4462H204.816Z" fill="#FFB700"/>
<path d="M191.326 26.704L191.229 26.5352L193.109 25.4408V22.7589L199.267 19.175L199.366 19.3465L198.992 19.5627L193.305 22.8723V25.5542L191.326 26.704Z" fill="#FFB700"/>
<path d="M198.958 19.2093C198.824 19.2858 198.824 19.4124 198.958 19.4889C199.091 19.5653 199.306 19.5653 199.439 19.4889C199.573 19.4124 199.573 19.2858 199.439 19.2093C199.306 19.1329 199.091 19.1329 198.958 19.2093Z" fill="#FFB700"/>
<path d="M199.201 19.6445C199.097 19.6445 198.992 19.6207 198.911 19.5733C198.817 19.5179 198.762 19.4362 198.762 19.3491C198.762 19.2621 198.817 19.1777 198.911 19.125C199.073 19.03 199.327 19.03 199.489 19.125C199.584 19.1804 199.638 19.2621 199.638 19.3491C199.638 19.4388 199.584 19.5205 199.489 19.5733C199.408 19.6207 199.303 19.6445 199.199 19.6445H199.201ZM199.201 19.2489C199.131 19.2489 199.06 19.2647 199.01 19.2937C198.976 19.3148 198.961 19.3359 198.961 19.3491C198.961 19.3623 198.976 19.3834 199.01 19.4045C199.112 19.4652 199.293 19.4652 199.395 19.4045C199.429 19.3834 199.445 19.3623 199.445 19.3491C199.445 19.3359 199.429 19.3148 199.395 19.2937C199.343 19.2647 199.272 19.2489 199.204 19.2489H199.201Z" fill="#FFB700"/>
</g>
<path d="M38.7021 104.536L0 85.2275V46.6184L38.7021 65.927V104.536Z" fill="url(#paint2_linear_966_834)"/>
<path d="M38.7021 104.536L77.4124 85.2275V46.6184L38.7021 65.927V104.536Z" fill="url(#paint3_linear_966_834)"/>
<path d="M38.7021 65.9271L0 46.6266L38.7021 27.318L77.4124 46.6266L38.7021 65.9271Z" fill="url(#paint4_linear_966_834)"/>
<g style="mix-blend-mode:multiply">
<path opacity="0.09" d="M30.0644 38.2482L53.0249 49.7066L30.0644 61.1568L7.0957 49.7066L30.0644 38.2482Z" fill="#A7B1F2"/>
<path opacity="0.18" d="M30.9287 37.8175L53.8892 49.2759L30.9287 60.7261L7.95996 49.2759L30.9287 37.8175Z" fill="#A7B1F2"/>
<path opacity="0.27" d="M31.7916 37.3868L54.7522 48.837L31.7916 60.2954L8.83105 48.837L31.7916 37.3868Z" fill="#A7B1F2"/>
<path opacity="0.36" d="M32.6559 36.9561L55.6164 48.4063L32.6559 59.8647L9.69531 48.4063L32.6559 36.9561Z" fill="#A7B1F2"/>
<path opacity="0.45" d="M33.5191 36.5253L56.4797 47.9756L33.5191 59.434L10.5586 47.9756L33.5191 36.5253Z" fill="#A7B1F2"/>
<path opacity="0.55" d="M34.3834 36.0947L57.3521 47.5449L34.3834 59.0033L11.4229 47.5449L34.3834 36.0947Z" fill="#A7B1F2"/>
<path opacity="0.64" d="M35.2477 35.6639L58.2164 47.1142L35.2477 58.5726L12.2871 47.1142L35.2477 35.6639Z" fill="#A7B1F2"/>
<path opacity="0.73" d="M36.11 35.2332L59.0787 46.6835L36.11 58.1419L13.1494 46.6835L36.11 35.2332Z" fill="#A7B1F2"/>
<path opacity="0.82" d="M36.9732 34.8026L59.9419 46.2528L36.9732 57.7112L14.0127 46.2528L36.9732 34.8026Z" fill="#A7B1F2"/>
<path opacity="0.91" d="M37.8375 34.3718L60.8062 45.8221L37.8375 57.2805L14.877 45.8221L37.8375 34.3718Z" fill="#A7B1F2"/>
<path d="M38.7018 33.9411L61.6704 45.3914L38.7018 56.8497L15.7412 45.3914L38.7018 33.9411Z" fill="#A7B1F2"/>
</g>
<path d="M38.7252 56.858L15.7402 45.3914V22.4666L38.7252 33.9331V56.858Z" fill="url(#paint5_linear_966_834)"/>
<path d="M61.7106 45.3914L38.7256 56.858V33.9331L61.7106 22.4666V45.3914Z" fill="url(#paint6_linear_966_834)"/>
<path d="M61.7102 22.4665L38.7252 33.933L15.7402 22.4665L38.7252 11L61.7102 22.4665Z" fill="url(#paint7_linear_966_834)"/>
<path d="M50.2226 22.4666L38.7261 28.1958L27.2295 22.4666L38.7261 16.7374L50.2226 22.4666Z" fill="url(#paint8_linear_966_834)"/>
<path d="M50.2221 22.4666L38.7256 28.1958V16.7374L50.2221 22.4666Z" fill="url(#paint9_linear_966_834)"/>
<path d="M43.6875 43.1079C43.6875 39.1584 46.914 34.3312 50.8739 32.3565C54.8337 30.3817 58.0603 31.9908 58.0603 35.9403C58.0603 39.8898 54.8337 44.7169 50.8739 46.6917C46.914 48.6664 43.6875 47.0574 43.6875 43.1079V43.1079Z" fill="#2CF0FF"/>
<path d="M46.8893 40.4831L47.4922 41.9865C47.8507 42.8804 49.0077 43.0998 49.6758 42.4091L54.6378 37.2406C54.8578 37.0131 54.5563 36.6636 54.2956 36.8505L49.4395 40.3612C49.2358 40.5075 48.9832 40.5562 48.7388 40.4993L47.1907 40.1337C46.987 40.0849 46.8078 40.2881 46.8893 40.4831V40.4831Z" fill="#4066FF"/>
<g clip-path="url(#clip1_966_834)">
<path opacity="0.9" d="M52.9346 9.18632V12.591C52.9257 14.9382 51.378 17.2824 48.2944 19.0726C42.1035 22.662 32.07 22.662 25.8791 19.0726C22.7926 17.2824 21.2478 14.9382 21.2389 12.591V9.16547L52.9346 9.18632Z" fill="#FFB700"/>
<path d="M37.0838 18.3846C28.3296 18.3846 21.233 14.269 21.233 9.19229C21.233 4.11553 28.3296 0 37.0838 0C45.8379 0 52.9346 4.11553 52.9346 9.19229C52.9346 14.269 45.8379 18.3846 37.0838 18.3846Z" fill="#FFDE38"/>
<path d="M37.0839 17.6339C41.1875 17.6339 45.036 16.7135 47.918 15.0425C50.6695 13.4459 52.1846 11.3697 52.1846 9.19227C52.1846 7.01484 50.6695 4.93868 47.918 3.34508C45.036 1.67402 41.1904 0.753601 37.0839 0.753601C32.9774 0.753601 29.1319 1.67402 26.2499 3.34508C23.4984 4.94166 21.9833 7.01782 21.9833 9.19227C21.9833 11.3667 23.4984 13.4459 26.2499 15.0425C29.1319 16.7135 32.9774 17.6339 37.0839 17.6339ZM37.0839 0.974025C41.1489 0.974025 44.9589 1.88253 47.8053 3.53571C50.4886 5.0906 51.9652 7.10122 51.9652 9.19227C51.9652 11.2833 50.4886 13.294 47.8083 14.8488C44.9589 16.502 41.1519 17.4105 37.0869 17.4105C33.0219 17.4105 29.2119 16.502 26.3655 14.8488C23.6852 13.294 22.2086 11.2863 22.2086 9.19227C22.2086 7.09824 23.6852 5.0906 26.3655 3.53571C29.2149 1.88253 33.0219 0.974025 37.0869 0.974025H37.0839Z" fill="#FFB700"/>
<path d="M37.0833 16.5586C40.9289 16.5586 44.5195 15.7037 47.1939 14.1518C49.5985 12.7578 50.9238 10.9944 50.9238 9.19227C50.9238 7.39015 49.5985 5.62973 47.1939 4.23272C44.5195 2.68082 40.9289 1.82593 37.0833 1.82593C33.2377 1.82593 29.6471 2.68082 26.9727 4.23272C24.5681 5.62676 23.2428 7.39015 23.2428 9.19227C23.2428 10.9944 24.5681 12.7548 26.9727 14.1518C29.6471 15.7037 33.2377 16.5586 37.0833 16.5586ZM37.0833 2.04933C40.8903 2.04933 44.4394 2.8923 47.0842 4.42634C49.4176 5.78165 50.7044 7.47355 50.7044 9.19227C50.7044 10.911 49.4176 12.6059 47.0842 13.9582C44.4424 15.4922 40.8903 16.3352 37.0833 16.3352C33.2763 16.3352 29.7272 15.4922 27.0824 13.9582C24.749 12.6029 23.4622 10.911 23.4622 9.19227C23.4622 7.47355 24.749 5.77867 27.0824 4.42634C29.7242 2.8923 33.2763 2.04933 37.0833 2.04933V2.04933Z" fill="#FFB700"/>
<path d="M45.7292 14.8429L45.8389 14.6493L30.0622 5.49872L29.9495 5.68936L29.9999 5.71914L45.7292 14.8429Z" fill="#FFB700"/>
<path d="M40.2682 16.3322L40.3779 16.1386L27.9991 8.95697L27.8894 9.15059L28.2541 9.36207L40.2682 16.3322Z" fill="#FFB700"/>
<path d="M30.0095 12.2961H33.7246V12.5195H30.0095V12.2961Z" fill="#FFB700"/>
<path d="M37.0008 12.5344H41.6943V12.311H37.0601L29.0784 7.68207L28.9686 7.8727L37.0008 12.5344Z" fill="#FFB700"/>
<path d="M29.6088 12.8322C29.76 12.8322 29.9112 12.7995 30.0269 12.731C30.1573 12.6565 30.2314 12.5433 30.2314 12.4242C30.2314 12.305 30.1573 12.1918 30.0269 12.1174C29.7926 11.9803 29.425 11.9803 29.1878 12.1174C29.0573 12.1918 28.9832 12.305 28.9832 12.4242C28.9832 12.5433 29.0573 12.6565 29.1878 12.731C29.3064 12.7995 29.4576 12.8322 29.6058 12.8322H29.6088ZM29.6088 12.2365C29.7215 12.2365 29.8341 12.2603 29.9172 12.308C29.9765 12.3437 30.012 12.3854 30.012 12.4242C30.012 12.4629 29.9765 12.5046 29.9172 12.5403C29.7511 12.6386 29.4665 12.6356 29.3004 12.5403C29.2411 12.5046 29.2056 12.4629 29.2056 12.4242C29.2056 12.3854 29.2411 12.3437 29.3004 12.308C29.3835 12.2603 29.4961 12.2365 29.6088 12.2365V12.2365Z" fill="#FFB700"/>
<path d="M32.6062 13.8033H36.3213V14.0267H32.6062V13.8033Z" fill="#FFB700"/>
<path d="M32.538 13.7556C32.6892 13.842 32.6892 13.985 32.538 14.0714C32.3867 14.1578 32.1436 14.1578 31.9924 14.0714C31.8412 13.985 31.8412 13.842 31.9924 13.7556C32.1436 13.6693 32.3867 13.6693 32.538 13.7556Z" fill="#FFB700"/>
<path d="M32.2656 14.2501C32.3842 14.2501 32.5028 14.2233 32.5947 14.1697C32.7014 14.1071 32.7637 14.0148 32.7637 13.9165C32.7637 13.8182 32.7014 13.7229 32.5947 13.6633C32.4108 13.5561 32.1232 13.5561 31.9394 13.6633C31.8327 13.7259 31.7704 13.8182 31.7704 13.9165C31.7704 14.0148 31.8327 14.1101 31.9394 14.1697C32.0313 14.2233 32.1499 14.2501 32.2685 14.2501H32.2656ZM32.2656 13.8033C32.3456 13.8033 32.4257 13.8212 32.482 13.8539C32.5205 13.8778 32.5383 13.9016 32.5383 13.9165C32.5383 13.9314 32.5205 13.9552 32.482 13.9791C32.3664 14.0476 32.1618 14.0476 32.0461 13.9791C32.0076 13.9552 31.9898 13.9314 31.9898 13.9165C31.9898 13.9016 32.0076 13.8778 32.0461 13.8539C32.1054 13.8212 32.1855 13.8033 32.2626 13.8033H32.2656Z" fill="#FFB700"/>
<path d="M28.7496 8.01572C28.8949 8.01572 29.0402 7.98296 29.1558 7.91743C29.2833 7.84296 29.3545 7.73573 29.3545 7.61956C29.3545 7.50339 29.2804 7.39317 29.1558 7.32169C28.9275 7.19062 28.5717 7.19062 28.3464 7.32169C28.2189 7.39615 28.1448 7.50339 28.1477 7.61956C28.1477 7.73573 28.2219 7.84594 28.3464 7.91743C28.4591 7.98296 28.6044 8.01572 28.7526 8.01572H28.7496ZM29.0432 7.51232C29.0995 7.54509 29.1321 7.58381 29.1321 7.61956C29.1321 7.65232 29.0995 7.69402 29.0432 7.72679C28.8831 7.81913 28.6132 7.81913 28.4531 7.72679C28.3968 7.69402 28.3642 7.6553 28.3642 7.61956C28.3642 7.58381 28.3968 7.54509 28.4531 7.51232C28.6132 7.41998 28.8831 7.41998 29.0432 7.51232Z" fill="#FFB700"/>
<path d="M29.7335 5.81147C29.8699 5.81147 30.0033 5.78169 30.11 5.71913C30.2286 5.65062 30.2998 5.54637 30.2998 5.43616C30.2998 5.32594 30.2316 5.22169 30.11 5.15318C29.8995 5.03105 29.5675 5.03105 29.3569 5.15318C29.2383 5.22169 29.1672 5.32594 29.1672 5.43616C29.1672 5.54637 29.2354 5.65062 29.3569 5.71913C29.4637 5.78169 29.5971 5.81147 29.7335 5.81147V5.81147ZM29.7335 5.28424C29.8313 5.28424 29.9262 5.30509 30.0003 5.3468C30.0478 5.3736 30.0774 5.40935 30.0774 5.43616C30.0774 5.46297 30.0478 5.49871 30.0003 5.52552C29.8551 5.60892 29.6119 5.60892 29.4666 5.52552C29.4192 5.49573 29.3896 5.46297 29.3896 5.43616C29.3896 5.40637 29.4192 5.3736 29.4666 5.3468C29.5378 5.30509 29.6356 5.28424 29.7335 5.28424V5.28424Z" fill="#FFB700"/>
<path d="M28.3078 8.84378C28.5094 8.95995 28.5094 9.15059 28.3078 9.26676C28.1062 9.38293 27.78 9.38293 27.5784 9.26676C27.3768 9.15059 27.3768 8.95995 27.5784 8.84378C27.78 8.72761 28.1062 8.72761 28.3078 8.84378V8.84378Z" fill="#FFB700"/>
<path d="M27.9427 9.46634C28.0939 9.46634 28.2451 9.43357 28.3637 9.36506C28.4942 9.28761 28.5713 9.1774 28.5713 9.05825C28.5713 8.93911 28.4972 8.82591 28.3637 8.75145C28.1295 8.61443 27.7589 8.61443 27.5247 8.75145C27.3942 8.82889 27.3171 8.93911 27.3171 9.05825C27.3171 9.1774 27.3912 9.29059 27.5247 9.36506C27.6433 9.43357 27.7945 9.46634 27.9457 9.46634H27.9427ZM27.9427 8.86762C28.0554 8.86762 28.1681 8.89145 28.2511 8.93911C28.3104 8.97485 28.3459 9.01655 28.3459 9.05528C28.3459 9.094 28.3104 9.1357 28.2511 9.17145C28.0821 9.26974 27.8004 9.26974 27.6314 9.17145C27.5721 9.1357 27.5365 9.094 27.5365 9.05528C27.5365 9.01655 27.5721 8.97485 27.6314 8.93911C27.7144 8.89145 27.8271 8.86762 27.9397 8.86762H27.9427Z" fill="#FFB700"/>
<path d="M48.2467 13.3863L48.3564 13.1957L34.679 5.26337L34.5663 5.454L34.6464 5.50166L48.2467 13.3863Z" fill="#FFB700"/>
<path d="M41.7474 6.44891H41.9697V9.5557H41.7474V6.44891Z" fill="#FFB700"/>
<path d="M41.8602 6.65448C41.9996 6.65448 42.1419 6.62172 42.2516 6.55916C42.3761 6.48767 42.4443 6.38044 42.4443 6.26725C42.4443 6.15406 42.3732 6.04682 42.2516 5.97534C42.0322 5.84725 41.6912 5.84725 41.4718 5.97534C41.3473 6.04682 41.2791 6.15406 41.2791 6.26725C41.2791 6.38044 41.3503 6.48767 41.4718 6.55916C41.5815 6.62172 41.7209 6.65448 41.8632 6.65448H41.8602ZM41.8602 6.10342C41.961 6.10342 42.0648 6.12427 42.1389 6.16895C42.1923 6.19874 42.222 6.23448 42.222 6.26725C42.222 6.30002 42.1893 6.33576 42.1389 6.36555C41.9877 6.45491 41.7298 6.45491 41.5786 6.36555C41.5252 6.33576 41.4955 6.30002 41.4955 6.26725C41.4955 6.23448 41.5282 6.19874 41.5786 6.16895C41.6557 6.12427 41.7565 6.10342 41.8573 6.10342H41.8602Z" fill="#FFB700"/>
<path d="M34.6999 4.99529C34.8956 5.10848 34.8956 5.29019 34.6999 5.40338C34.5042 5.51657 34.1899 5.51657 33.9972 5.40338C33.8015 5.29019 33.8015 5.10848 33.9972 4.99529C34.1929 4.8821 34.5072 4.8821 34.6999 4.99529Z" fill="#FFB700"/>
<path d="M34.3502 5.59999C34.4955 5.59999 34.6437 5.56722 34.7564 5.50169C34.8839 5.42722 34.958 5.31701 34.958 5.20084C34.958 5.08467 34.8839 4.97446 34.7564 4.89999C34.5281 4.76893 34.1693 4.76893 33.941 4.89999C33.8135 4.97446 33.7394 5.08467 33.7394 5.20084C33.7394 5.31701 33.8135 5.42722 33.941 5.50169C34.0537 5.56722 34.2019 5.59999 34.3472 5.59999H34.3502ZM34.3502 5.02212C34.4569 5.02212 34.5666 5.04595 34.6467 5.09063C34.703 5.1234 34.7356 5.1651 34.7356 5.19786C34.7356 5.23063 34.703 5.27233 34.6437 5.3051C34.4836 5.39744 34.2108 5.39744 34.0507 5.3051C33.9944 5.27233 33.9618 5.23063 33.9618 5.19786C33.9618 5.16212 33.9944 5.1234 34.0507 5.09063C34.1308 5.04297 34.2405 5.02212 34.3472 5.02212H34.3502Z" fill="#FFB700"/>
<path d="M49.6315 12.0906L49.7412 11.8999L47.6124 10.6638V7.63443L40.6358 3.58636L40.5231 3.77998L40.9471 4.02423L47.39 7.76251V10.7919L49.6315 12.0906Z" fill="#FFB700"/>
<path d="M40.9852 3.62509C41.1364 3.71147 41.1364 3.85445 40.9852 3.94083C40.834 4.02721 40.5909 4.02721 40.4397 3.94083C40.2885 3.85445 40.2885 3.71147 40.4397 3.62509C40.5909 3.53871 40.834 3.53871 40.9852 3.62509Z" fill="#FFB700"/>
<path d="M40.7099 4.11657C40.8285 4.11657 40.9471 4.08976 41.039 4.03615C41.1457 3.97359 41.208 3.88125 41.208 3.78296C41.208 3.68466 41.1457 3.58934 41.039 3.52977C40.8552 3.42253 40.5676 3.42253 40.3837 3.52977C40.277 3.59232 40.2147 3.68466 40.2147 3.78296C40.2147 3.88423 40.277 3.97657 40.3837 4.03615C40.4757 4.08976 40.5943 4.11657 40.7129 4.11657H40.7099ZM40.7099 3.66976C40.7899 3.66976 40.87 3.68764 40.9263 3.7204C40.9649 3.74423 40.9827 3.76806 40.9827 3.78296C40.9827 3.79785 40.9649 3.82168 40.9263 3.84551C40.8107 3.91402 40.6061 3.91402 40.4905 3.84551C40.4519 3.82168 40.4341 3.79785 40.4341 3.78296C40.4341 3.76806 40.4519 3.74423 40.4905 3.7204C40.5498 3.68764 40.6298 3.66976 40.7069 3.66976H40.7099Z" fill="#FFB700"/>
</g>
<path d="M147.251 125.219C147.442 124.651 224.412 108.771 224.412 108.771V144.658C203.787 145.133 183.432 149.445 167.686 157.582C151.939 165.72 143.606 176.245 142.676 186.909H92.5771V161.871C92.5771 161.871 147.072 125.799 147.251 125.219Z" fill="#E3E5F9"/>
<path d="M132.279 114.242C106.753 127.433 93.5192 144.577 92.5771 161.871H142.676C143.595 151.207 151.928 140.694 167.686 132.545C183.432 124.408 203.787 120.096 224.412 119.62V93.7252C190.968 94.2121 157.805 101.051 132.279 114.242V114.242Z" fill="url(#paint10_linear_966_834)"/>
<path d="M152.466 104.644L153.733 105.305V111.796C153.733 113.268 154.889 115.054 156.313 115.784L159.891 117.638V118.948L152.915 122.553L148.552 119.644L146.141 116.155L145.49 108.249L152.466 104.644V104.644Z" fill="#E3E5F9"/>
<path d="M152.915 121.243L149.337 119.389C147.913 118.658 146.758 116.862 146.758 115.401V108.91L145.49 108.249V114.74C145.49 116.931 147.217 119.609 149.337 120.698L152.915 122.553L159.891 118.948V117.638L152.915 121.243Z" fill="#D2D6F2"/>
<path d="M133.748 95.3017L163.39 79.9894C163.749 79.8039 164.074 79.7924 164.309 79.9083L165.521 80.5342L164.691 81.2645V100.182C164.691 100.924 164.107 101.828 163.39 102.199L133.938 117.418L134.051 118.218L132.839 117.592C132.593 117.465 132.458 117.198 132.458 116.839V97.3186C132.458 96.5767 133.041 95.6726 133.759 95.3017H133.748Z" fill="url(#paint11_linear_966_834)"/>
<path d="M135.015 118.172L164.657 102.848C165.374 102.477 165.958 101.573 165.958 100.831V81.3109C165.958 80.569 165.374 80.2677 164.657 80.6386L135.015 95.9625C134.297 96.3334 133.714 97.2375 133.714 97.9794V117.511C133.714 118.253 134.297 118.554 135.015 118.183V118.172Z" fill="url(#paint12_linear_966_834)"/>
<path d="M164.679 101.526V81.9369L134.981 97.2839V116.873L164.679 101.526Z" fill="#4066FF"/>
<path d="M92.5763 186.897H142.675V161.859H92.5763V186.897Z" fill="url(#paint13_linear_966_834)"/>
<path d="M182.658 121.545L172.172 116.12C171.746 115.9 171.05 115.9 170.624 116.12L146.276 128.708C145.85 128.928 145.85 129.288 146.276 129.508L156.762 134.933C157.188 135.153 157.883 135.153 158.31 134.933L182.658 122.344C183.084 122.124 183.084 121.765 182.658 121.545V121.545Z" fill="url(#paint14_linear_966_834)"/>
<path d="M182.658 120.768L172.172 115.343C171.746 115.123 171.05 115.123 170.624 115.343L146.276 127.932C145.85 128.152 145.85 128.511 146.276 128.731L156.762 134.156C157.188 134.376 157.883 134.376 158.31 134.156L182.658 121.568C183.084 121.348 183.084 120.988 182.658 120.768V120.768Z" fill="url(#paint15_linear_966_834)"/>
<path d="M157.827 128.789L159.161 128.106L157.827 127.422L156.492 128.106L157.827 128.789ZM164.948 127.955L166.283 128.639L174.167 124.559L172.833 123.875L164.948 127.955ZM160.014 126.286L158.679 126.97L162.044 128.708L165.554 126.888L164.219 126.205L162.032 127.329L159.991 126.274L160.014 126.286ZM159.868 129.844L161.203 129.16L159.868 128.476L158.533 129.16L159.868 129.844ZM155.64 129.925L156.974 129.241L155.64 128.558L154.305 129.241L155.64 129.925ZM155.786 127.746L157.12 127.062L155.786 126.378L154.451 127.062L155.786 127.746ZM170.792 124.199L172.126 123.515L170.792 122.831L169.457 123.515L170.792 124.199ZM157.67 130.98L159.004 130.296L157.67 129.612L156.335 130.296L157.67 130.98ZM168.605 123.956L167.27 124.64L168.605 125.324L169.939 124.64L168.605 123.956ZM168.75 123.144L170.085 122.46L168.75 121.777L167.416 122.46L168.75 123.144ZM153.599 128.871L154.933 128.187L153.599 127.503L152.264 128.187L153.599 128.871ZM162.201 125.161L160.866 125.845L162.201 126.529L163.535 125.845L162.201 125.161ZM164.388 124.037L163.053 124.721L164.388 125.405L165.722 124.721L164.388 124.037ZM166.429 125.092L165.094 125.776L166.429 126.46L167.763 125.776L166.429 125.092ZM166.575 122.913L165.24 123.596L166.575 124.28L167.909 123.596L166.575 122.913ZM159.307 125.938L157.973 125.254L156.638 125.938L157.973 126.622L159.307 125.938ZM157.535 133.183L158.87 132.499L157.535 131.815L156.201 132.499L157.535 133.183ZM160.575 130.238L161.909 130.922L163.244 130.238L161.909 129.554L160.575 130.238ZM158.388 131.363L159.722 132.047L161.057 131.363L159.722 130.679L158.388 131.363ZM162.761 129.102L164.096 129.786L165.431 129.102L164.096 128.418L162.761 129.102ZM161.494 124.814L160.16 124.13L158.825 124.814L160.16 125.497L161.494 124.814ZM153.464 131.073L154.799 130.389L153.464 129.705L152.129 130.389L153.464 131.073ZM155.505 132.128L156.84 131.444L155.505 130.76L154.171 131.444L155.505 132.128ZM151.423 130.018L152.757 129.334L151.423 128.65L150.088 129.334L151.423 130.018ZM165.868 122.553L164.533 121.869L163.199 122.553L164.533 123.237L165.868 122.553ZM163.681 123.678L162.347 122.994L161.012 123.678L162.347 124.361L163.681 123.678ZM166.72 122.101L168.055 121.417L166.72 120.733L165.386 121.417L166.72 122.101ZM168.907 120.977L170.242 120.293L168.907 119.609L167.573 120.293L168.907 120.977ZM172.99 123.086L174.324 122.403L172.99 121.719L171.655 122.403L172.99 123.086ZM173.696 123.457L175.031 124.141L176.366 123.457L175.031 122.773L173.696 123.457ZM170.949 122.032L172.283 121.348L170.949 120.664L169.614 121.348L170.949 122.032ZM173.136 120.907L174.47 120.223L173.136 119.539L171.801 120.223L173.136 120.907ZM175.883 122.333L177.218 123.017L178.553 122.333L177.218 121.649L175.883 122.333ZM175.177 121.962L176.511 121.278L175.177 120.594L173.842 121.278L175.177 121.962ZM171.094 119.852L172.429 119.169L171.094 118.485L169.76 119.169L171.094 119.852ZM177.364 120.826L178.698 120.142L177.364 119.458L176.029 120.142L177.364 120.826ZM178.07 121.197L179.405 121.881L180.74 121.197L179.405 120.513L178.07 121.197ZM175.323 119.771L176.657 119.087L175.323 118.403L173.988 119.087L175.323 119.771ZM173.281 118.716L174.616 118.033L173.281 117.349L171.947 118.033L173.281 118.716ZM153.24 126.436L154.574 125.752L153.913 125.405L152.578 126.089L153.24 126.436ZM151.053 127.561L152.387 126.877L151.726 126.529L150.391 127.213L151.053 127.561ZM156.75 124.617L156.088 124.269L154.754 124.953L155.416 125.3L156.75 124.617ZM158.937 123.492L158.275 123.144L156.941 123.828L157.602 124.176L158.937 123.492ZM148.866 128.697L150.2 128.013L149.539 127.665L148.204 128.349L148.866 128.697ZM163.311 121.232L162.649 120.884L161.315 121.568L161.976 121.916L163.311 121.232ZM161.124 122.356L160.462 122.008L159.128 122.692L159.789 123.04L161.124 122.356ZM164.163 120.78L165.498 120.096L164.836 119.748L163.502 120.432L164.163 120.78ZM166.35 119.655L167.685 118.971L167.023 118.624L165.689 119.308L166.35 119.655ZM168.537 118.531L169.872 117.847L169.21 117.499L167.876 118.183L168.537 118.531ZM170.724 117.407L172.059 116.723L171.397 116.375L170.063 117.059L170.724 117.407Z" fill="url(#paint16_linear_966_834)"/>
<g style="mix-blend-mode:multiply">
<path opacity="0.05" d="M223.38 190.56L191.024 207.286C187.705 209.002 182.31 209.002 178.99 207.286L146.634 190.56C143.315 188.844 143.315 186.062 146.634 184.335L178.99 167.609C182.31 165.893 187.705 165.893 191.024 167.609L223.38 184.335C226.7 186.051 226.7 188.833 223.38 190.56Z" fill="#A7B1F2"/>
<path opacity="0.1" d="M224.042 190.224L191.686 206.95C188.367 208.666 182.972 208.666 179.652 206.95L147.296 190.224C143.977 188.508 143.977 185.726 147.296 183.999L179.652 167.273C182.972 165.557 188.367 165.557 191.686 167.273L224.042 183.999C227.362 185.715 227.362 188.497 224.042 190.224V190.224Z" fill="#A7B1F2"/>
<path opacity="0.14" d="M224.716 189.876L192.36 206.603C189.04 208.318 183.646 208.318 180.326 206.603L147.97 189.876C144.651 188.161 144.651 185.379 147.97 183.652L180.326 166.925C183.646 165.21 189.04 165.21 192.36 166.925L224.716 183.652C228.036 185.367 228.036 188.149 224.716 189.876Z" fill="#A7B1F2"/>
<path opacity="0.19" d="M225.377 189.528L193.021 206.255C189.702 207.97 184.307 207.97 180.987 206.255L148.631 189.528C145.312 187.813 145.312 185.031 148.631 183.304L180.987 166.577C184.307 164.862 189.702 164.862 193.021 166.577L225.377 183.304C228.697 185.019 228.697 187.801 225.377 189.528V189.528Z" fill="#A7B1F2"/>
<path opacity="0.24" d="M226.05 189.181L193.694 205.907C190.374 207.623 184.98 207.623 181.66 205.907L149.304 189.181C145.985 187.465 145.985 184.683 149.304 182.956L181.66 166.23C184.98 164.514 190.374 164.514 193.694 166.23L226.05 182.956C229.37 184.672 229.37 187.454 226.05 189.181V189.181Z" fill="#A7B1F2"/>
<path opacity="0.29" d="M226.723 188.833L194.367 205.559C191.047 207.275 185.653 207.275 182.333 205.559L149.977 188.833C146.657 187.117 146.657 184.335 149.977 182.608L182.333 165.882C185.653 164.166 191.047 164.166 194.367 165.882L226.723 182.608C230.043 184.324 230.043 187.106 226.723 188.833V188.833Z" fill="#A7B1F2"/>
<path opacity="0.33" d="M227.385 188.497L195.029 205.223C191.709 206.939 186.315 206.939 182.995 205.223L150.639 188.497C147.319 186.781 147.319 183.999 150.639 182.272L182.995 165.546C186.315 163.83 191.709 163.83 195.029 165.546L227.385 182.272C230.705 183.988 230.705 186.77 227.385 188.497V188.497Z" fill="#A7B1F2"/>
<path opacity="0.38" d="M228.058 188.149L195.702 204.875C192.382 206.591 186.988 206.591 183.668 204.875L151.312 188.149C147.992 186.433 147.992 183.651 151.312 181.924L183.668 165.198C186.988 163.482 192.382 163.482 195.702 165.198L228.058 181.924C231.378 183.64 231.378 186.422 228.058 188.149V188.149Z" fill="#A7B1F2"/>
<path opacity="0.43" d="M228.718 187.801L196.362 204.528C193.042 206.243 187.648 206.243 184.328 204.528L151.972 187.801C148.652 186.086 148.652 183.304 151.972 181.577L184.328 164.85C187.648 163.135 193.042 163.135 196.362 164.85L228.718 181.577C232.038 183.292 232.038 186.074 228.718 187.801V187.801Z" fill="#A7B1F2"/>
<path opacity="0.48" d="M229.391 187.453L197.035 204.18C193.715 205.895 188.321 205.895 185.001 204.18L152.645 187.453C149.325 185.738 149.325 182.956 152.645 181.229L185.001 164.502C188.321 162.787 193.715 162.787 197.035 164.502L229.391 181.229C232.711 182.944 232.711 185.726 229.391 187.453V187.453Z" fill="#A7B1F2"/>
<path opacity="0.52" d="M230.053 187.117L197.697 203.844C194.377 205.559 188.983 205.559 185.663 203.844L153.307 187.117C149.987 185.402 149.987 182.62 153.307 180.893L185.663 164.166C188.983 162.451 194.377 162.451 197.697 164.166L230.053 180.893C233.373 182.608 233.373 185.39 230.053 187.117V187.117Z" fill="#A7B1F2"/>
<path opacity="0.57" d="M230.727 186.77L198.371 203.496C195.051 205.212 189.657 205.212 186.337 203.496L153.981 186.77C150.661 185.054 150.661 182.272 153.981 180.545L186.337 163.819C189.657 162.103 195.051 162.103 198.371 163.819L230.727 180.545C234.047 182.261 234.047 185.043 230.727 186.77V186.77Z" fill="#A7B1F2"/>
<path opacity="0.62" d="M231.4 186.422L199.044 203.148C195.724 204.864 190.33 204.864 187.01 203.148L154.654 186.422C151.334 184.706 151.334 181.924 154.654 180.197L187.01 163.471C190.33 161.755 195.724 161.755 199.044 163.471L231.4 180.197C234.719 181.913 234.719 184.695 231.4 186.422V186.422Z" fill="#A7B1F2"/>
<path opacity="0.67" d="M232.061 186.074L199.705 202.801C196.385 204.516 190.991 204.516 187.671 202.801L155.315 186.074C151.995 184.359 151.995 181.577 155.315 179.85L187.671 163.123C190.991 161.408 196.385 161.408 199.705 163.123L232.061 179.85C235.381 181.565 235.381 184.347 232.061 186.074Z" fill="#A7B1F2"/>
<path opacity="0.71" d="M232.734 185.726L200.378 202.453C197.058 204.168 191.664 204.168 188.344 202.453L155.988 185.726C152.668 184.011 152.668 181.229 155.988 179.502L188.344 162.775C191.664 161.06 197.058 161.06 200.378 162.775L232.734 179.502C236.053 181.217 236.053 183.999 232.734 185.726V185.726Z" fill="#A7B1F2"/>
<path opacity="0.76" d="M233.396 185.39L201.04 202.117C197.72 203.832 192.326 203.832 189.006 202.117L156.65 185.39C153.33 183.675 153.33 180.893 156.65 179.166L189.006 162.439C192.326 160.724 197.72 160.724 201.04 162.439L233.396 179.166C236.716 180.881 236.716 183.663 233.396 185.39Z" fill="#A7B1F2"/>
<path opacity="0.81" d="M234.069 185.042L201.713 201.769C198.393 203.484 192.998 203.484 189.679 201.769L157.323 185.042C154.003 183.327 154.003 180.545 157.323 178.818L189.679 162.091C192.998 160.376 198.393 160.376 201.713 162.091L234.069 178.818C237.388 180.533 237.388 183.315 234.069 185.042V185.042Z" fill="#A7B1F2"/>
<path opacity="0.86" d="M234.73 184.695L202.374 201.421C199.054 203.137 193.66 203.137 190.34 201.421L157.984 184.695C154.664 182.979 154.664 180.197 157.984 178.47L190.34 161.744C193.66 160.028 199.054 160.028 202.374 161.744L234.73 178.47C238.05 180.186 238.05 182.968 234.73 184.695Z" fill="#A7B1F2"/>
<path opacity="0.9" d="M235.403 184.347L203.047 201.073C199.727 202.789 194.332 202.789 191.013 201.073L158.657 184.347C155.337 182.631 155.337 179.849 158.657 178.122L191.013 161.396C194.332 159.68 199.727 159.68 203.047 161.396L235.403 178.122C238.722 179.838 238.722 182.62 235.403 184.347V184.347Z" fill="#A7B1F2"/>
<path opacity="0.95" d="M236.076 183.999L203.72 200.726C200.4 202.441 195.005 202.441 191.686 200.726L159.33 183.999C156.01 182.284 156.01 179.502 159.33 177.775L191.686 161.048C195.005 159.333 200.4 159.333 203.72 161.048L236.076 177.775C239.395 179.49 239.395 182.272 236.076 183.999V183.999Z" fill="#A7B1F2"/>
<path d="M236.739 183.663L204.383 200.39C201.063 202.105 195.668 202.105 192.349 200.39L159.993 183.663C156.673 181.948 156.673 179.166 159.993 177.438L192.349 160.712C195.668 158.997 201.063 158.997 204.383 160.712L236.739 177.438C240.058 179.154 240.058 181.936 236.739 183.663V183.663Z" fill="#A7B1F2"/>
</g>
<path d="M157.502 164.201V180.533C157.502 181.658 158.332 182.782 159.992 183.64L192.348 200.366C195.667 202.082 201.062 202.082 204.382 200.366L236.738 183.64C238.397 182.782 239.227 181.658 239.227 180.533V164.201H157.502V164.201Z" fill="url(#paint17_linear_966_834)"/>
<path d="M157.502 164.201V180.533C157.502 181.658 158.332 182.782 159.992 183.64L192.348 200.366C194.008 201.224 196.183 201.653 198.37 201.653V164.201H157.502Z" fill="url(#paint18_linear_966_834)"/>
<path d="M236.738 167.308L204.382 184.034C201.062 185.75 195.667 185.75 192.348 184.034L159.992 167.308C156.672 165.592 156.672 162.81 159.992 161.083L192.348 144.357C195.667 142.641 201.062 142.641 204.382 144.357L236.738 161.083C240.057 162.799 240.057 165.581 236.738 167.308Z" fill="url(#paint19_linear_966_834)"/>
<path d="M179.114 122.113L177.914 120.733C177.69 120.478 177.41 120.304 177.096 120.2L175.581 119.736C175.301 119.655 174.998 119.644 174.707 119.702L173.372 120.003C173.181 120.049 173.036 120.212 173.024 120.42C173.013 120.594 173.103 120.768 173.249 120.849L174.965 121.858L174.325 121.765C174.135 121.742 173.955 121.869 173.922 122.055C173.888 122.24 173.978 122.414 174.146 122.472L176.725 123.318L177.096 123.643C177.241 123.77 177.454 123.782 177.611 123.677L179.013 122.785C179.249 122.634 179.294 122.298 179.103 122.089L179.114 122.113Z" fill="#F3ABC7"/>
<path d="M187.963 130.412C184.026 130.412 180.045 128.697 177.364 125.741C176.445 124.721 176.489 123.121 177.476 122.171C178.463 121.22 180.011 121.266 180.931 122.286C182.658 124.199 185.966 125.845 189.432 125.231C192.942 124.605 195.847 121.823 197.821 117.163C198.359 115.888 199.806 115.308 201.04 115.865C202.273 116.421 202.834 117.916 202.296 119.192C198.92 127.132 193.884 129.566 190.251 130.215C189.499 130.354 188.725 130.412 187.963 130.412Z" fill="#3176FF"/>
<path d="M170.265 185.993C167.809 186.19 162.986 186.051 161.001 185.518C158.926 184.961 158.96 183.002 160.754 182.376L171.252 179.2L171.925 183.014C172.172 184.37 171.846 185.877 170.265 186.005V185.993Z" fill="#8A96E6"/>
<path d="M168.953 182.875C168.953 182.875 168.919 182.875 168.908 182.875C166.508 182.852 164.59 180.812 164.612 178.343L164.893 151.068C164.915 148.611 166.856 146.629 169.233 146.629H184.968C187.368 146.629 189.308 148.634 189.308 151.114C189.308 153.595 187.368 155.6 184.968 155.6H173.529L173.293 178.435C173.271 180.893 171.33 182.875 168.953 182.875Z" fill="#130F40"/>
<path d="M200.826 135.339L184.507 142.699C184.249 146.895 184.137 149.828 184.339 155.032C196.44 155.032 201.442 154.685 201.442 148.298C201.442 143.823 200.826 140.439 200.826 135.339V135.339Z" fill="#130F40"/>
<path d="M200.827 139.395C200.827 135.454 202.285 121.811 201.803 118.728C201.702 118.079 201.219 117.569 200.591 117.464C197.642 116.966 188.176 118.855 185.944 122.263C184.924 126.239 184.509 138.63 184.509 142.826C190.666 144.032 200.827 142.119 200.827 139.395V139.395Z" fill="#3176FF"/>
<path d="M163.078 127.097C162.977 127.259 163.01 127.491 163.167 127.607L164.087 128.326L163.022 128.175C162.909 128.163 162.786 128.175 162.674 128.221L161.205 128.859C161.025 128.94 160.891 129.091 160.835 129.288L160.465 130.516C160.375 130.818 160.498 131.154 160.767 131.316C160.88 131.386 161.003 131.409 161.126 131.409L163.302 131.293L165.702 131.745C166.184 131.826 166.633 131.479 166.711 130.98L166.857 129.995L166.902 129.728C167.003 129.044 166.745 128.592 165.971 128.21L163.538 126.958C163.381 126.877 163.19 126.935 163.089 127.085L163.078 127.097Z" fill="#F3ABC7"/>
<path d="M175.738 136.938C172.262 136.938 168.762 135.651 166.161 133.31C165.14 132.394 165.039 130.795 165.925 129.751C166.811 128.697 168.359 128.592 169.368 129.508C171.275 131.235 174.718 132.533 178.116 131.571C181.548 130.586 184.172 127.514 185.686 122.681C186.101 121.359 187.481 120.629 188.77 121.058C190.049 121.487 190.756 122.912 190.341 124.245C187.75 132.499 182.972 135.431 179.417 136.451C178.217 136.787 176.983 136.961 175.738 136.961V136.938Z" fill="#3176FF"/>
<path d="M189.241 114.068C189.488 116.282 192.359 114.312 192.64 114.01C193.559 113.083 195.096 110.011 192.83 108.829C192.079 108.435 190.441 108.458 189.836 109.038C188.961 109.895 189.084 112.7 189.23 114.068H189.241Z" fill="#F3ABC7"/>
<path d="M190.093 115.1L194.007 110.846L194.456 118.033L191.383 118.89L191.405 115.587L190.093 115.1Z" fill="#F3ABC7"/>
<path d="M189.891 102.28C193.334 102.28 195.499 104.853 198.65 108.041C201.061 110.475 198.818 112.318 202.62 114.277C206.613 116.34 204.987 122.147 207.791 122.901C210.168 123.538 211.2 126.483 209.697 128.488C203.462 136.834 188.87 130.377 193.514 118.125C192.19 115.181 191.046 112.214 192.056 109.976C185.36 107.438 187.143 102.268 189.891 102.268V102.28Z" fill="#130F40"/>
<defs>
<linearGradient id="paint0_linear_966_834" x1="170.784" y1="65.1219" x2="202.302" y2="55.1772" gradientUnits="userSpaceOnUse">
<stop stop-color="#D9DEFC"/>
<stop offset="1" stop-color="#CCD6FF"/>
</linearGradient>
<linearGradient id="paint1_linear_966_834" x1="171.068" y1="38.9727" x2="233.373" y2="38.9727" gradientUnits="userSpaceOnUse">
<stop stop-color="#E8EAFB"/>
<stop offset="1" stop-color="white"/>
</linearGradient>
<linearGradient id="paint2_linear_966_834" x1="4.8398" y1="90.0546" x2="33.7863" y2="61.0241" gradientUnits="userSpaceOnUse">
<stop stop-color="#92A6F3"/>
<stop offset="1" stop-color="#7F93E6"/>
</linearGradient>
<linearGradient id="paint3_linear_966_834" x1="33.8623" y1="99.7089" x2="82.1255" y2="51.3192" gradientUnits="userSpaceOnUse">
<stop stop-color="#92A6F3"/>
<stop offset="1" stop-color="#AAB9F3"/>
</linearGradient>
<linearGradient id="paint4_linear_966_834" x1="0" y1="46.6266" x2="77.4124" y2="46.6266" gradientUnits="userSpaceOnUse">
<stop stop-color="#AAB9F3"/>
<stop offset="1" stop-color="#CCD6FF"/>
</linearGradient>
<linearGradient id="paint5_linear_966_834" x1="37.8453" y1="34.315" x2="16.358" y2="45.2011" gradientUnits="userSpaceOnUse">
<stop stop-color="#174DBA"/>
<stop offset="1" stop-color="#7023FF"/>
</linearGradient>
<linearGradient id="paint6_linear_966_834" x1="62.5905" y1="45.424" x2="39.3585" y2="34.5447" gradientUnits="userSpaceOnUse">
<stop stop-color="#7023FF"/>
<stop offset="1" stop-color="#3377FF"/>
</linearGradient>
<linearGradient id="paint7_linear_966_834" x1="16.0254" y1="22.4665" x2="62.2235" y2="22.4665" gradientUnits="userSpaceOnUse">
<stop stop-color="#646EFF"/>
<stop offset="1" stop-color="#42C0FF"/>
</linearGradient>
<linearGradient id="paint8_linear_966_834" x1="27.2295" y1="22.4666" x2="50.2226" y2="22.4666" gradientUnits="userSpaceOnUse">
<stop stop-color="#E8EAFB"/>
<stop offset="1" stop-color="white"/>
</linearGradient>
<linearGradient id="paint9_linear_966_834" x1="36.5257" y1="24.0512" x2="47.1452" y2="18.0708" gradientUnits="userSpaceOnUse">
<stop stop-color="#E9ECFC"/>
<stop offset="0.46" stop-color="#D2DAFA"/>
<stop offset="1" stop-color="#BBC9F8"/>
</linearGradient>
<linearGradient id="paint10_linear_966_834" x1="224.412" y1="127.792" x2="92.5771" y2="127.792" gradientUnits="userSpaceOnUse">
<stop stop-color="#E8EAFB"/>
<stop offset="1" stop-color="white"/>
</linearGradient>
<linearGradient id="paint11_linear_966_834" x1="132.615" y1="99.0225" x2="165.341" y2="99.0225" gradientUnits="userSpaceOnUse">
<stop stop-color="#D3D7F2"/>
<stop offset="0.45" stop-color="#BBC9F8"/>
<stop offset="0.55" stop-color="#D3D7F2"/>
<stop offset="1" stop-color="#F2F3FF"/>
</linearGradient>
<linearGradient id="paint12_linear_966_834" x1="149.83" y1="114.949" x2="149.83" y2="94.7338" gradientUnits="userSpaceOnUse">
<stop stop-color="#E8EAFB"/>
<stop offset="1" stop-color="white"/>
</linearGradient>
<linearGradient id="paint13_linear_966_834" x1="142.675" y1="174.378" x2="92.5651" y2="174.378" gradientUnits="userSpaceOnUse">
<stop stop-color="#D9DEFC"/>
<stop offset="1" stop-color="#CCD6FF"/>
</linearGradient>
<linearGradient id="paint14_linear_966_834" x1="145.962" y1="125.521" x2="182.972" y2="125.521" gradientUnits="userSpaceOnUse">
<stop stop-color="#D9DEFC"/>
<stop offset="1" stop-color="#CCD6FF"/>
</linearGradient>
<linearGradient id="paint15_linear_966_834" x1="145.962" y1="124.744" x2="182.972" y2="124.744" gradientUnits="userSpaceOnUse">
<stop stop-color="#E8EAFB"/>
<stop offset="1" stop-color="white"/>
</linearGradient>
<linearGradient id="paint16_linear_966_834" x1="180.728" y1="124.744" x2="148.204" y2="124.744" gradientUnits="userSpaceOnUse">
<stop stop-color="#D9DEFC"/>
<stop offset="1" stop-color="#CCD6FF"/>
</linearGradient>
<linearGradient id="paint17_linear_966_834" x1="236.872" y1="192.473" x2="162.766" y2="158.96" gradientUnits="userSpaceOnUse">
<stop stop-color="#92A6F3"/>
<stop offset="1" stop-color="#AAB9F3"/>
</linearGradient>
<linearGradient id="paint18_linear_966_834" x1="200.041" y1="171.388" x2="162.862" y2="189.561" gradientUnits="userSpaceOnUse">
<stop stop-color="#92A6F3"/>
<stop offset="1" stop-color="#7F93E6"/>
</linearGradient>
<linearGradient id="paint19_linear_966_834" x1="158.007" y1="164.201" x2="240.147" y2="164.201" gradientUnits="userSpaceOnUse">
<stop stop-color="#AAB9F3"/>
<stop offset="1" stop-color="#CCD6FF"/>
</linearGradient>
<clipPath id="clip0_966_834">
<rect width="27.9805" height="19.2693" fill="white" transform="translate(188.411 16)"/>
</clipPath>
<clipPath id="clip1_966_834">
<rect width="31.6986" height="21.7654" fill="white" transform="matrix(-1 0 0 1 52.9346 0)"/>
</clipPath>
</defs>
</svg>
