<svg width="181" height="388" viewBox="0 0 181 388" fill="none" xmlns="http://www.w3.org/2000/svg">
<path d="M22.6172 316.784L22.7458 353.826L80.1279 387.064L79.9994 350.022L22.6172 316.784Z" fill="#97AAF3"/>
<path d="M79.9993 350.022L80.1279 387.064L137.883 353.826L137.754 316.784L79.9993 350.022Z" fill="#8A9EED"/>
<path d="M22.6168 316.784L79.999 350.022L137.754 316.784L80.3717 283.558L22.6168 316.784Z" fill="#DCDCDC"/>
<path d="M17 293.344L17.1414 342.388L80.1152 378.854L79.9738 329.81L17 293.344Z" fill="#E3E5F9"/>
<path d="M79.9734 329.81L80.1148 378.854L143.5 342.388L143.359 293.344L79.9734 329.81Z" fill="url(#paint0_linear_966_835)"/>
<path d="M16.9993 293.344L79.9732 329.81L143.358 293.344L80.3845 256.878L16.9993 293.344Z" fill="url(#paint1_linear_966_835)"/>
<path d="M30.4573 280.881L30.5601 295.778L80.1396 324.494L80.0368 309.585L30.4573 280.881Z" fill="#97AAF3"/>
<path d="M80.0373 309.585L80.1401 324.494L130.041 295.778L129.938 280.881L80.0373 309.585Z" fill="#889CEC"/>
<path d="M30.4581 280.881L80.0376 309.585L129.938 280.881L80.3589 252.165L30.4581 280.881Z" fill="#BBC8F9"/>
<path d="M48.1199 280.894L55.6783 285.287L80.3331 271.083L104.718 285.198L112.276 280.843L80.3331 262.36L48.1199 280.894Z" fill="#97AAF3"/>
<path d="M55.6781 285.287L80.0501 299.402L104.718 285.198L80.3329 271.083L55.6781 285.287Z" fill="#3E55AC"/>
<path d="M80.333 262.36V271.083L55.6782 285.287L48.1198 280.894L80.333 262.36Z" fill="#889CEC"/>
<path d="M86.7659 261.535L87.3799 261.91L80.1478 273.688L79.5338 273.313L86.7659 261.535Z" fill="url(#paint2_linear_966_835)"/>
<path d="M85.0182 256.05L85.4296 255.46L65.0939 241.345L94.2734 232.546L77.9355 213.73L77.3956 214.191L93.0008 232.187L63.4614 241.089L85.0182 256.05Z" fill="url(#paint3_linear_966_835)"/>
<path d="M100.649 249.453L91.5485 254.794L82.6018 249.837L91.6256 244.407L100.649 249.453Z" fill="url(#paint4_linear_966_835)"/>
<path d="M82.6021 249.837V259.969L91.5488 264.926V254.794L82.6021 249.837Z" fill="url(#paint5_linear_966_835)"/>
<path d="M100.649 249.453V259.572L91.5485 264.926V254.794L100.649 249.453Z" fill="url(#paint6_linear_966_835)"/>
<path d="M81.3418 274.327L74.1947 278.529L67.1634 274.622L74.259 270.357L81.3418 274.327Z" fill="url(#paint7_linear_966_835)"/>
<path d="M67.1639 274.622V282.589L74.1953 286.483V278.529L67.1639 274.622Z" fill="url(#paint8_linear_966_835)"/>
<path d="M81.3418 274.327V282.281L74.1947 286.483V278.529L81.3418 274.327Z" fill="url(#paint9_linear_966_835)"/>
<path d="M67.3945 236.184L62.6898 238.95L58.0622 236.389L62.7284 233.583L67.3945 236.184Z" fill="url(#paint10_linear_966_835)"/>
<path d="M58.0628 236.389V241.614L62.6904 244.176V238.95L58.0628 236.389Z" fill="url(#paint11_linear_966_835)"/>
<path d="M67.3945 236.184V241.422L62.6898 244.176V238.95L67.3945 236.184Z" fill="url(#paint12_linear_966_835)"/>
<path d="M100.649 227.282L95.9447 230.048L91.3171 227.487L95.9833 224.682L100.649 227.282Z" fill="url(#paint13_linear_966_835)"/>
<path d="M91.3167 227.487V232.725L95.9443 235.287V230.048L91.3167 227.487Z" fill="url(#paint14_linear_966_835)"/>
<path d="M100.649 227.282V232.52L95.9447 235.287V230.048L100.649 227.282Z" fill="url(#paint15_linear_966_835)"/>
<path d="M100.637 191.034L98.2586 192.43L95.932 191.136L98.2844 189.714L100.637 191.034Z" fill="url(#paint16_linear_966_835)"/>
<path d="M95.9321 191.136V193.775L98.2588 195.068V192.43L95.9321 191.136Z" fill="url(#paint17_linear_966_835)"/>
<path d="M100.637 191.033V193.672L98.2586 195.068V192.43L100.637 191.033Z" fill="url(#paint18_linear_966_835)"/>
<path d="M95.9834 279.041L93.6053 280.437L91.2787 279.143L93.631 277.734L95.9834 279.041Z" fill="url(#paint19_linear_966_835)"/>
<path d="M91.2788 279.143V281.782L93.6055 283.076V280.437L91.2788 279.143Z" fill="url(#paint20_linear_966_835)"/>
<path d="M95.9834 279.041V281.679L93.6053 283.076V280.437L95.9834 279.041Z" fill="url(#paint21_linear_966_835)"/>
<path d="M69.5156 259.226L67.1376 260.622L64.8109 259.329L67.1633 257.907L69.5156 259.226Z" fill="url(#paint22_linear_966_835)"/>
<path d="M64.811 259.329V261.967L67.1377 263.261V260.622L64.811 259.329Z" fill="url(#paint23_linear_966_835)"/>
<path d="M69.5156 259.226V261.865L67.1376 263.261V260.622L69.5156 259.226Z" fill="url(#paint24_linear_966_835)"/>
<path d="M82.46 291.67L81.3288 292.336L80.2233 291.721L81.3416 291.042L82.46 291.67Z" fill="url(#paint25_linear_966_835)"/>
<path d="M80.2236 291.721V292.977L81.3291 293.591V292.336L80.2236 291.721Z" fill="url(#paint26_linear_966_835)"/>
<path d="M82.46 291.67V292.925L81.3288 293.591V292.336L82.46 291.67Z" fill="url(#paint27_linear_966_835)"/>
<path d="M85.7002 172.628L84.569 173.294L83.4635 172.679L84.5819 172L85.7002 172.628Z" fill="url(#paint28_linear_966_835)"/>
<path d="M83.4639 172.679V173.934L84.5693 174.549V173.294L83.4639 172.679Z" fill="url(#paint29_linear_966_835)"/>
<path d="M85.7002 172.628V173.883L84.569 174.549V173.294L85.7002 172.628Z" fill="url(#paint30_linear_966_835)"/>
<path d="M73.1279 187.524L71.8939 188.241L70.6727 187.562L71.9068 186.832L73.1279 187.524Z" fill="url(#paint31_linear_966_835)"/>
<path d="M70.6734 187.562V188.946L71.8945 189.612V188.241L70.6734 187.562Z" fill="url(#paint32_linear_966_835)"/>
<path d="M73.1279 187.524V188.894L71.8939 189.612V188.241L73.1279 187.524Z" fill="url(#paint33_linear_966_835)"/>
<path d="M96.0215 214.537L94.7875 215.267L93.5791 214.588L94.8003 213.858L96.0215 214.537Z" fill="url(#paint34_linear_966_835)"/>
<path d="M93.5798 214.588V215.959L94.7881 216.638V215.267L93.5798 214.588Z" fill="url(#paint35_linear_966_835)"/>
<path d="M96.0215 214.537V215.908L94.7875 216.638V215.267L96.0215 214.537Z" fill="url(#paint36_linear_966_835)"/>
<path d="M78.8359 205.93L72.2416 209.811L65.7501 206.212L72.293 202.279L78.8359 205.93Z" fill="url(#paint37_linear_966_835)"/>
<path d="M65.7497 206.212V213.551L72.2412 217.15V209.811L65.7497 206.212Z" fill="url(#paint38_linear_966_835)"/>
<path d="M78.8359 205.93V213.282L72.2416 217.15V209.811L78.8359 205.93Z" fill="url(#paint39_linear_966_835)"/>
<path d="M59.6561 48.8997L59.5993 67.1748L31.2764 83.5716L31.3332 65.2964L59.6561 48.8997Z" fill="#97AAF3"/>
<path d="M31.3329 65.2964L31.2761 83.5716L2.77148 67.1748L2.82826 48.8997L31.3329 65.2964Z" fill="#889CEC"/>
<path d="M59.6558 48.8996L31.3328 65.2964L2.82812 48.8996L31.1511 32.4916L59.6558 48.8996Z" fill="#DCDCDC"/>
<path d="M62.4261 37.3234L62.358 61.5281L31.2754 79.5203L31.3435 55.327L62.4261 37.3234Z" fill="#E3E5F9"/>
<path d="M31.3438 55.327L31.2756 79.5203L0 61.5281L0.0681359 37.3234L31.3438 55.327Z" fill="url(#paint40_linear_966_835)"/>
<path d="M62.4266 37.3233L31.344 55.3269L0.0683594 37.3233L31.1509 19.3311L62.4266 37.3233Z" fill="url(#paint41_linear_966_835)"/>
<path d="M55.7822 31.1675L55.7368 38.5228L31.2637 52.6903L31.3205 45.335L55.7822 31.1675Z" fill="#97AAF3"/>
<path d="M31.3207 45.335L31.264 52.6903L6.63184 38.5228L6.68861 31.1675L31.3207 45.335Z" fill="#889CEC"/>
<path d="M55.7824 31.1675L31.3206 45.335L6.68848 31.1675L31.1616 17L55.7824 31.1675Z" fill="#BBC8F9"/>
<path d="M47.0725 31.1789L43.3363 33.3402L31.1735 26.3357L19.1357 33.3063L15.3994 31.1563L31.1735 22.0356L47.0725 31.1789Z" fill="#97AAF3"/>
<path d="M43.3363 33.3401L31.3098 40.3107L19.1357 33.3062L31.1736 26.3356L43.3363 33.3401Z" fill="#3E55AC"/>
<path d="M31.1729 22.0356V26.3357L43.3356 33.3402L47.0719 31.1789L31.1729 22.0356Z" fill="#889CEC"/>
<g clip-path="url(#clip0_966_835)">
<path opacity="0.9" d="M46.6982 9.18638V12.591C46.6893 14.9383 45.1416 17.2825 42.0581 19.0727C35.8672 22.662 25.8337 22.662 19.6428 19.0727C16.5563 17.2825 15.0115 14.9383 15.0026 12.591V9.16553L46.6982 9.18638Z" fill="#FFB700"/>
<path d="M30.8475 18.3846C22.0933 18.3846 14.9967 14.269 14.9967 9.19229C14.9967 4.11553 22.0933 0 30.8475 0C39.6016 0 46.6982 4.11553 46.6982 9.19229C46.6982 14.269 39.6016 18.3846 30.8475 18.3846Z" fill="#FFDE38"/>
<path d="M30.8476 17.634C34.9511 17.634 38.7997 16.7136 41.6816 15.0425C44.4331 13.4459 45.9482 11.3698 45.9482 9.19234C45.9482 7.0149 44.4331 4.93874 41.6816 3.34514C38.7997 1.67408 34.9541 0.753662 30.8476 0.753662C26.7411 0.753662 22.8955 1.67408 20.0136 3.34514C17.2621 4.94172 15.747 7.01788 15.747 9.19234C15.747 11.3668 17.2621 13.4459 20.0136 15.0425C22.8955 16.7136 26.7411 17.634 30.8476 17.634ZM30.8476 0.974086C34.9126 0.974086 38.7226 1.88259 41.569 3.53577C44.2523 5.09066 45.7288 7.10128 45.7288 9.19234C45.7288 11.2834 44.2523 13.294 41.5719 14.8489C38.7226 16.5021 34.9156 17.4106 30.8506 17.4106C26.7856 17.4106 22.9756 16.5021 20.1292 14.8489C17.4489 13.294 15.9723 11.2864 15.9723 9.19234C15.9723 7.09831 17.4489 5.09066 20.1292 3.53577C22.9785 1.88259 26.7856 0.974086 30.8506 0.974086H30.8476Z" fill="#FFB700"/>
<path d="M30.847 16.5586C34.6926 16.5586 38.2831 15.7037 40.9576 14.1518C43.3622 12.7578 44.6875 10.9944 44.6875 9.19227C44.6875 7.39015 43.3622 5.62973 40.9576 4.23272C38.2831 2.68082 34.6926 1.82593 30.847 1.82593C27.0014 1.82593 23.4108 2.68082 20.7364 4.23272C18.3318 5.62676 17.0065 7.39015 17.0065 9.19227C17.0065 10.9944 18.3318 12.7548 20.7364 14.1518C23.4108 15.7037 27.0014 16.5586 30.847 16.5586ZM30.847 2.04933C34.654 2.04933 38.2031 2.8923 40.8479 4.42634C43.1813 5.78165 44.4681 7.47355 44.4681 9.19227C44.4681 10.911 43.1813 12.6059 40.8479 13.9582C38.2061 15.4922 34.654 16.3352 30.847 16.3352C27.0399 16.3352 23.4909 15.4922 20.8461 13.9582C18.5127 12.6029 17.2259 10.911 17.2259 9.19227C17.2259 7.47355 18.5127 5.77867 20.8461 4.42634C23.4879 2.8923 27.0399 2.04933 30.847 2.04933Z" fill="#FFB700"/>
<path d="M39.4928 14.8429L39.6025 14.6492L23.8259 5.49866L23.7132 5.68929L23.7636 5.71908L39.4928 14.8429Z" fill="#FFB700"/>
<path d="M34.0319 16.3322L34.1416 16.1386L21.7628 8.95691L21.6531 9.15052L22.0178 9.36201L34.0319 16.3322Z" fill="#FFB700"/>
<path d="M23.7732 12.2961H27.4883V12.5195H23.7732V12.2961Z" fill="#FFB700"/>
<path d="M30.7644 12.5344H35.458V12.311H30.8237L22.842 7.68213L22.7323 7.87277L30.7644 12.5344Z" fill="#FFB700"/>
<path d="M23.3725 12.8323C23.5237 12.8323 23.6749 12.7995 23.7905 12.731C23.921 12.6566 23.9951 12.5434 23.9951 12.4242C23.9951 12.3051 23.921 12.1919 23.7905 12.1174C23.5563 11.9804 23.1886 11.9804 22.9514 12.1174C22.821 12.1919 22.7469 12.3051 22.7469 12.4242C22.7469 12.5434 22.821 12.6566 22.9514 12.731C23.07 12.7995 23.2213 12.8323 23.3695 12.8323H23.3725ZM23.3725 12.2366C23.4851 12.2366 23.5978 12.2604 23.6808 12.3081C23.7401 12.3438 23.7757 12.3855 23.7757 12.4242C23.7757 12.4629 23.7401 12.5046 23.6808 12.5404C23.5148 12.6387 23.2302 12.6357 23.0641 12.5404C23.0048 12.5046 22.9692 12.4629 22.9692 12.4242C22.9692 12.3855 23.0048 12.3438 23.0641 12.3081C23.1471 12.2604 23.2598 12.2366 23.3725 12.2366Z" fill="#FFB700"/>
<path d="M26.3698 13.8033H30.085V14.0267H26.3698V13.8033Z" fill="#FFB700"/>
<path d="M26.3016 13.7557C26.4528 13.8421 26.4528 13.9851 26.3016 14.0714C26.1504 14.1578 25.9073 14.1578 25.7561 14.0714C25.6049 13.9851 25.6049 13.8421 25.7561 13.7557C25.9073 13.6693 26.1504 13.6693 26.3016 13.7557Z" fill="#FFB700"/>
<path d="M26.0292 14.2501C26.1478 14.2501 26.2664 14.2233 26.3583 14.1697C26.4651 14.1071 26.5273 14.0148 26.5273 13.9165C26.5273 13.8182 26.4651 13.7229 26.3583 13.6633C26.1745 13.5561 25.8869 13.5561 25.7031 13.6633C25.5963 13.7259 25.5341 13.8182 25.5341 13.9165C25.5341 14.0148 25.5963 14.1101 25.7031 14.1697C25.795 14.2233 25.9136 14.2501 26.0322 14.2501H26.0292ZM26.0292 13.8033C26.1093 13.8033 26.1893 13.8212 26.2457 13.8539C26.2842 13.8778 26.302 13.9016 26.302 13.9165C26.302 13.9314 26.2842 13.9552 26.2457 13.9791C26.13 14.0476 25.9255 14.0476 25.8098 13.9791C25.7713 13.9552 25.7535 13.9314 25.7535 13.9165C25.7535 13.9016 25.7713 13.8778 25.8098 13.8539C25.8691 13.8212 25.9492 13.8033 26.0263 13.8033H26.0292Z" fill="#FFB700"/>
<path d="M22.5133 8.01572C22.6586 8.01572 22.8039 7.98296 22.9195 7.91743C23.047 7.84296 23.1182 7.73573 23.1182 7.61956C23.1182 7.50339 23.044 7.39317 22.9195 7.32169C22.6912 7.19062 22.3354 7.19062 22.1101 7.32169C21.9826 7.39615 21.9085 7.50339 21.9114 7.61956C21.9114 7.73573 21.9855 7.84594 22.1101 7.91743C22.2227 7.98296 22.368 8.01572 22.5163 8.01572H22.5133ZM22.8068 7.51232C22.8632 7.54509 22.8958 7.58381 22.8958 7.61956C22.8958 7.65232 22.8632 7.69402 22.8068 7.72679C22.6467 7.81913 22.3769 7.81913 22.2168 7.72679C22.1605 7.69402 22.1279 7.6553 22.1279 7.61956C22.1279 7.58381 22.1605 7.54509 22.2168 7.51232C22.3769 7.41998 22.6467 7.41998 22.8068 7.51232Z" fill="#FFB700"/>
<path d="M23.4972 5.81141C23.6336 5.81141 23.767 5.78163 23.8737 5.71907C23.9923 5.65056 24.0635 5.54631 24.0635 5.4361C24.0635 5.32588 23.9953 5.22163 23.8737 5.15312C23.6632 5.03099 23.3311 5.03099 23.1206 5.15312C23.002 5.22163 22.9309 5.32588 22.9309 5.4361C22.9309 5.54631 22.999 5.65056 23.1206 5.71907C23.2274 5.78163 23.3608 5.81141 23.4972 5.81141ZM23.4972 5.28418C23.595 5.28418 23.6899 5.30503 23.764 5.34674C23.8115 5.37354 23.8411 5.40929 23.8411 5.4361C23.8411 5.4629 23.8115 5.49865 23.764 5.52546C23.6187 5.60886 23.3756 5.60886 23.2303 5.52546C23.1829 5.49567 23.1532 5.4629 23.1532 5.4361C23.1532 5.40631 23.1829 5.37354 23.2303 5.34674C23.3015 5.30503 23.3993 5.28418 23.4972 5.28418Z" fill="#FFB700"/>
<path d="M22.0714 8.84384C22.2731 8.96001 22.2731 9.15065 22.0714 9.26682C21.8698 9.38299 21.5437 9.38299 21.3421 9.26682C21.1404 9.15065 21.1404 8.96001 21.3421 8.84384C21.5437 8.72767 21.8698 8.72767 22.0714 8.84384Z" fill="#FFB700"/>
<path d="M21.7064 9.46634C21.8576 9.46634 22.0088 9.43357 22.1274 9.36506C22.2579 9.28761 22.335 9.1774 22.335 9.05825C22.335 8.93911 22.2608 8.82591 22.1274 8.75145C21.8932 8.61443 21.5226 8.61443 21.2883 8.75145C21.1579 8.82889 21.0808 8.93911 21.0808 9.05825C21.0808 9.1774 21.1549 9.29059 21.2883 9.36506C21.4069 9.43357 21.5581 9.46634 21.7094 9.46634H21.7064ZM21.7064 8.86762C21.8191 8.86762 21.9317 8.89145 22.0147 8.93911C22.074 8.97485 22.1096 9.01655 22.1096 9.05528C22.1096 9.094 22.074 9.1357 22.0147 9.17145C21.8457 9.26974 21.5641 9.26974 21.3951 9.17145C21.3358 9.1357 21.3002 9.094 21.3002 9.05528C21.3002 9.01655 21.3358 8.97485 21.3951 8.93911C21.4781 8.89145 21.5907 8.86762 21.7034 8.86762H21.7064Z" fill="#FFB700"/>
<path d="M42.0104 13.3862L42.1201 13.1956L28.4427 5.26331L28.33 5.45394L28.4101 5.5016L42.0104 13.3862Z" fill="#FFB700"/>
<path d="M35.511 6.44885H35.7334V9.55564H35.511V6.44885Z" fill="#FFB700"/>
<path d="M35.6239 6.65436C35.7633 6.65436 35.9056 6.62159 36.0153 6.55904C36.1398 6.48755 36.208 6.38032 36.208 6.26713C36.208 6.15394 36.1368 6.0467 36.0153 5.97521C35.7959 5.84713 35.4549 5.84713 35.2355 5.97521C35.111 6.0467 35.0428 6.15394 35.0428 6.26713C35.0428 6.38032 35.1139 6.48755 35.2355 6.55904C35.3452 6.62159 35.4846 6.65436 35.6269 6.65436H35.6239ZM35.6239 6.1033C35.7247 6.1033 35.8285 6.12415 35.9026 6.16883C35.956 6.19862 35.9856 6.23436 35.9856 6.26713C35.9856 6.29989 35.953 6.33564 35.9026 6.36542C35.7514 6.45479 35.4934 6.45479 35.3422 6.36542C35.2889 6.33564 35.2592 6.29989 35.2592 6.26713C35.2592 6.23436 35.2918 6.19862 35.3422 6.16883C35.4193 6.12415 35.5201 6.1033 35.6209 6.1033H35.6239Z" fill="#FFB700"/>
<path d="M28.4636 4.99529C28.6593 5.10848 28.6593 5.29019 28.4636 5.40338C28.2679 5.51657 27.9536 5.51657 27.7609 5.40338C27.5652 5.29019 27.5652 5.10848 27.7609 4.99529C27.9566 4.8821 28.2709 4.8821 28.4636 4.99529Z" fill="#FFB700"/>
<path d="M28.1139 5.59993C28.2591 5.59993 28.4074 5.56716 28.5201 5.50163C28.6476 5.42716 28.7217 5.31695 28.7217 5.20078C28.7217 5.08461 28.6476 4.9744 28.5201 4.89993C28.2918 4.76887 27.933 4.76887 27.7047 4.89993C27.5772 4.9744 27.5031 5.08461 27.5031 5.20078C27.5031 5.31695 27.5772 5.42716 27.7047 5.50163C27.8174 5.56716 27.9656 5.59993 28.1109 5.59993H28.1139ZM28.1139 5.02206C28.2206 5.02206 28.3303 5.04589 28.4104 5.09057C28.4667 5.12334 28.4993 5.16504 28.4993 5.1978C28.4993 5.23057 28.4667 5.27227 28.4074 5.30504C28.2473 5.39738 27.9745 5.39738 27.8144 5.30504C27.7581 5.27227 27.7254 5.23057 27.7254 5.1978C27.7254 5.16206 27.7581 5.12334 27.8144 5.09057C27.8945 5.04291 28.0042 5.02206 28.1109 5.02206H28.1139Z" fill="#FFB700"/>
<path d="M43.3952 12.0905L43.5049 11.8999L41.376 10.6637V7.63436L34.3994 3.5863L34.2868 3.77992L34.7108 4.02417L41.1537 7.76245V10.7918L43.3952 12.0905Z" fill="#FFB700"/>
<path d="M34.7489 3.62509C34.9001 3.71147 34.9001 3.85445 34.7489 3.94083C34.5977 4.02721 34.3546 4.02721 34.2033 3.94083C34.0521 3.85445 34.0521 3.71147 34.2033 3.62509C34.3546 3.53871 34.5977 3.53871 34.7489 3.62509Z" fill="#FFB700"/>
<path d="M34.4736 4.11657C34.5922 4.11657 34.7108 4.08976 34.8027 4.03615C34.9094 3.97359 34.9717 3.88125 34.9717 3.78296C34.9717 3.68466 34.9094 3.58934 34.8027 3.52977C34.6188 3.42253 34.3312 3.42253 34.1474 3.52977C34.0407 3.59232 33.9784 3.68466 33.9784 3.78296C33.9784 3.88423 34.0407 3.97657 34.1474 4.03615C34.2393 4.08976 34.3579 4.11657 34.4765 4.11657H34.4736ZM34.4736 3.66976C34.5536 3.66976 34.6337 3.68764 34.69 3.7204C34.7286 3.74423 34.7463 3.76806 34.7463 3.78296C34.7463 3.79785 34.7286 3.82168 34.69 3.84551C34.5744 3.91402 34.3698 3.91402 34.2542 3.84551C34.2156 3.82168 34.1978 3.79785 34.1978 3.78296C34.1978 3.76806 34.2156 3.74423 34.2542 3.7204C34.3135 3.68764 34.3935 3.66976 34.4706 3.66976H34.4736Z" fill="#FFB700"/>
</g>
<path fill-rule="evenodd" clip-rule="evenodd" d="M130.016 178.27L130.638 177.923L131.25 177.594L131.871 177.284L132.474 177.002L133.076 176.729L133.679 176.485L134.272 176.25L134.855 176.043L135.439 175.855L136.023 175.686L136.597 175.536L137.162 175.404L137.717 175.282L138.273 175.188L138.828 175.113L139.365 175.056L139.902 175.019L140.429 175H140.956L141.464 175.019L141.973 175.047L142.472 175.103L142.961 175.169L143.451 175.263L143.922 175.367L144.392 175.489L144.844 175.63L145.296 175.789L153.411 180.46L152.959 180.31L152.498 180.169L152.037 180.047L151.557 179.934L151.077 179.849L150.587 179.774L150.088 179.727L149.58 179.69L149.062 179.671L148.544 179.68L148.017 179.699L147.48 179.737L146.934 179.793L146.388 179.868L145.833 179.962L145.277 180.075L144.703 180.206L144.138 180.357L143.554 180.526L142.971 180.723L142.387 180.93L141.794 181.156L141.191 181.409L140.589 181.673L139.977 181.964L139.365 182.274L138.753 182.594L138.132 182.941L137.51 183.308L136.898 183.693L136.286 184.088L135.674 184.501L135.072 184.934L134.479 185.375L133.886 185.826L133.293 186.296L132.709 186.785L132.135 187.274L131.56 187.781L130.995 188.308L130.431 188.843L129.875 189.388L129.329 189.943L128.783 190.507L128.246 191.089L127.719 191.681L127.201 192.273L126.684 192.884L126.175 193.505L125.676 194.134L125.187 194.764L124.707 195.412L124.226 196.07L123.765 196.728L123.304 197.395L122.852 198.072L122.419 198.758L121.986 199.444L121.562 200.14L121.148 200.844L120.743 201.549L120.357 202.263L119.971 202.978L119.604 203.701L119.237 204.425L118.888 205.158L118.55 205.891L118.22 206.634L117.9 207.367L117.589 208.118L117.297 208.861L117.015 209.603L116.742 210.355L116.488 211.107L116.234 211.859L115.998 212.611L115.782 213.362L115.575 214.114L115.377 214.866L115.198 215.618L115.028 216.37L114.868 217.122L114.727 217.864L114.605 218.616L114.492 219.358L114.388 220.101L114.304 220.834L114.238 221.567L114.181 222.3L114.144 223.033L114.125 223.757L114.115 224.471L114.125 225.185L114.144 225.881L114.181 226.567L114.238 227.234L114.304 227.892L114.388 228.531L114.492 229.16L114.605 229.771L114.727 230.373L114.868 230.955L115.028 231.529L115.198 232.083L115.377 232.619L115.575 233.155L115.782 233.662L115.998 234.16L116.234 234.639L116.488 235.109L116.742 235.56L117.015 235.993L117.297 236.416L117.589 236.82L117.9 237.214L118.22 237.59L118.55 237.948L118.888 238.286L119.237 238.615L111.121 233.935L110.773 233.606L110.434 233.267L110.105 232.91L109.785 232.534L109.483 232.149L109.182 231.745L108.9 231.322L108.627 230.88L108.372 230.429L108.128 229.969L107.892 229.48L107.666 228.982L107.459 228.474L107.262 227.948L107.083 227.403L106.913 226.849L106.753 226.275L106.612 225.693L106.49 225.091L106.377 224.48L106.282 223.851L106.198 223.212L106.122 222.554L106.075 221.886L106.028 221.2L106.009 220.505L106 219.8L106.009 219.076L106.028 218.353L106.075 217.629L106.122 216.896L106.198 216.163L106.282 215.421L106.377 214.678L106.49 213.936L106.612 213.193L106.753 212.441L106.913 211.69L107.083 210.947L107.262 210.195L107.459 209.434L107.666 208.682L107.892 207.93L108.128 207.179L108.372 206.427L108.627 205.675L108.9 204.933L109.182 204.181L109.483 203.438L109.785 202.696L110.105 201.953L110.434 201.22L110.773 200.487L111.121 199.754L111.489 199.021L111.856 198.307L112.242 197.583L112.637 196.869L113.033 196.164L113.447 195.469L113.871 194.773L114.304 194.078L114.746 193.401L115.189 192.725L115.65 192.048L116.121 191.39L116.591 190.742L117.071 190.093L117.57 189.454L118.069 188.824L118.568 188.214L119.086 187.603L119.604 187.001L120.131 186.409L120.668 185.836L121.214 185.263L121.76 184.708L122.315 184.163L122.88 183.627L123.445 183.11L124.019 182.603L124.594 182.105L125.177 181.626L125.77 181.156L126.364 180.695L126.957 180.253L127.559 179.831L128.171 179.417L128.783 179.022L129.395 178.637L130.016 178.27Z" fill="url(#paint42_linear_966_835)"/>
<path fill-rule="evenodd" clip-rule="evenodd" d="M159.653 210.534L151.538 205.854L151.585 205.863L151.632 205.872H151.679L151.717 205.882L151.764 205.891L151.811 205.901L151.858 205.91L151.905 205.919L151.943 205.938L151.99 205.947L152.037 205.957L152.075 205.966L152.122 205.985L152.169 205.994L152.207 206.013L152.254 206.023L152.291 206.041L152.338 206.06L152.376 206.07L152.423 206.088L152.461 206.107L152.508 206.126L152.545 206.145L152.593 206.164L152.63 206.182L152.677 206.201L152.715 206.22L152.753 206.239L152.8 206.258L160.905 210.938L160.868 210.919L160.83 210.891L160.783 210.872L160.745 210.853L160.708 210.834L160.661 210.816L160.623 210.797L160.576 210.778L160.538 210.769L160.491 210.75L160.454 210.731L160.407 210.712L160.369 210.703L160.322 210.684L160.275 210.675L160.237 210.656L160.19 210.646L160.143 210.637L160.105 210.618L160.058 210.609L160.011 210.599L159.973 210.59L159.926 210.581L159.879 210.571L159.832 210.562L159.785 210.552L159.748 210.543L159.7 210.534H159.653Z" fill="#8CB0D4"/>
<path fill-rule="evenodd" clip-rule="evenodd" d="M149.683 230.063L141.577 225.392L141.502 225.336L141.426 225.289L141.351 225.232L141.285 225.176L141.21 225.11L141.144 225.054L141.078 224.988L141.012 224.931L140.956 224.866L140.89 224.8L140.833 224.725L140.767 224.659L140.711 224.584L148.826 229.264L148.883 229.33L148.939 229.405L149.005 229.471L149.062 229.536L149.127 229.602L149.193 229.668L149.259 229.734L149.325 229.79L149.401 229.847L149.466 229.903L149.542 229.959L149.608 230.016L149.683 230.063Z" fill="#8CB0D4"/>
<path fill-rule="evenodd" clip-rule="evenodd" d="M154.767 200.553V201.54L154.748 202.047L154.72 202.546L154.682 203.053L154.635 203.56L154.579 204.077L154.513 204.594L154.428 205.102L154.343 205.619L154.249 206.145L154.023 207.179L153.891 207.705L153.76 208.222L153.618 208.739L153.458 209.265L153.298 209.782L153.129 210.308L152.95 210.825L152.762 211.342L152.564 211.859L152.357 212.376L152.15 212.893L151.924 213.41L151.698 213.917L151.462 214.425L151.218 214.932L150.973 215.43L150.709 215.938L150.446 216.426L150.173 216.924L149.9 217.413L149.608 217.902L149.316 218.381L149.024 218.86L148.403 219.8L148.092 220.261L147.763 220.721L147.433 221.172L147.104 221.623L146.765 222.065L146.416 222.497L146.068 222.92L145.71 223.343L144.976 224.17L144.609 224.574L144.232 224.96L143.856 225.345L143.47 225.73L143.084 226.097L142.688 226.454L142.293 226.811L141.483 227.488L141.078 227.817L140.664 228.127L140.25 228.437L139.836 228.728L139.412 229.02L138.988 229.292L138.565 229.555L138.132 229.809L137.699 230.053L137.275 230.279L136.851 230.495L136.428 230.692L136.013 230.88L135.599 231.05L135.185 231.209L134.78 231.35L134.375 231.482L133.97 231.604L133.575 231.707L133.18 231.801L132.794 231.877L132.408 231.942L132.031 231.999L131.654 232.036L131.287 232.065L130.92 232.074H130.553L130.205 232.065L129.847 232.046L129.508 232.008L129.16 231.961L128.83 231.895L128.501 231.82L128.18 231.736L127.86 231.642L127.55 231.529L127.239 231.407L126.947 231.275L126.655 231.134L126.363 230.974L118.54 226.454L118.832 226.604L119.133 226.736L119.434 226.858L119.745 226.961L120.065 227.065L120.385 227.149L120.715 227.225L121.054 227.281L121.393 227.328L121.732 227.366L122.089 227.394L122.447 227.403H122.805L123.172 227.384L123.539 227.356L123.916 227.319L124.302 227.272L124.678 227.206L125.074 227.121L125.46 227.027L125.865 226.924L126.26 226.811L126.665 226.679L127.07 226.529L127.484 226.369L127.898 226.2L128.322 226.012L128.736 225.815L129.16 225.599L129.593 225.373L130.016 225.129L130.449 224.884L130.873 224.612L131.297 224.339L131.72 224.057L132.549 223.456L132.963 223.136L133.368 222.808L133.773 222.479L134.177 222.131L134.573 221.783L134.968 221.417L135.354 221.05L135.74 220.674L136.117 220.289L136.493 219.894L136.87 219.49L137.237 219.086L137.595 218.672L137.953 218.249L138.649 217.385L138.988 216.943L139.318 216.501L139.647 216.041L139.977 215.59L140.288 215.12L140.598 214.659L140.909 214.18L141.21 213.701L141.502 213.222L141.784 212.742L142.067 212.244L142.33 211.756L142.603 211.257L142.858 210.759L143.112 210.252L143.347 209.744L143.583 209.237L143.818 208.729L144.034 208.212L144.251 207.705L144.449 207.188L144.646 206.671L144.835 206.145L145.014 205.628L145.183 205.111L145.352 204.585L145.503 204.068L145.644 203.542L145.786 203.025L145.908 202.508L146.021 201.982L146.134 201.465L146.228 200.948L146.313 200.431L146.398 199.914L146.463 199.397L146.52 198.89L146.567 198.382L146.605 197.875L146.633 197.367L146.652 196.869V195.873L146.633 195.394L146.605 194.924L146.567 194.454L146.52 194.003L146.463 193.561L146.398 193.119L146.313 192.696L146.228 192.283L146.134 191.879L146.021 191.484L145.908 191.099L145.786 190.723L145.644 190.356L145.503 189.999L145.352 189.661L145.183 189.323L145.014 189.003L144.835 188.684L144.646 188.383L144.449 188.091L144.251 187.81L144.034 187.546L143.818 187.283L143.347 186.795L143.112 186.569L142.858 186.362L142.603 186.155L142.33 185.968L142.086 185.798L149.9 190.291L150.173 190.46L150.446 190.638L150.709 190.836L150.973 191.033L151.218 191.249L151.462 191.475L151.698 191.71L151.924 191.963L152.15 192.217L152.357 192.49L152.564 192.772L152.762 193.063L152.95 193.364L153.129 193.674L153.298 194.003L153.458 194.332L153.618 194.679L153.76 195.037L153.891 195.394L154.023 195.77L154.136 196.155L154.249 196.55L154.343 196.963L154.428 197.377L154.513 197.8L154.579 198.232L154.635 198.683L154.682 199.134L154.72 199.595L154.748 200.074L154.767 200.553Z" fill="url(#paint43_linear_966_835)"/>
<path fill-rule="evenodd" clip-rule="evenodd" d="M149.9 190.29L141.785 185.61L141.502 185.46L141.21 185.31L140.909 185.178L149.024 189.858L149.316 189.99L149.608 190.131L149.9 190.29Z" fill="#8CB0D4"/>
<path fill-rule="evenodd" clip-rule="evenodd" d="M138.132 182.941C144.759 179.116 150.766 178.759 155.115 181.259C159.465 183.768 162.148 189.135 162.148 196.775C162.148 201.192 161.254 205.891 159.653 210.515C160.143 210.59 160.604 210.74 161.028 210.985L178.699 221.172C181.758 222.93 181.758 228.7 178.699 233.972C175.639 239.254 170.649 242.139 167.59 240.382L149.919 230.194C149.495 229.95 149.128 229.63 148.826 229.245C145.607 232.948 141.973 236.087 138.132 238.295C131.504 242.12 125.497 242.477 121.148 239.978C116.798 237.468 114.115 232.102 114.115 224.461C114.115 216.821 116.808 208.344 121.148 200.835C125.497 193.317 131.494 186.757 138.132 182.941ZM149.9 190.281C146.887 188.552 142.726 188.796 138.132 191.446C133.537 194.097 129.376 198.636 126.363 203.842C123.351 209.049 121.496 214.913 121.496 220.214C121.496 225.514 123.36 229.236 126.363 230.965C129.376 232.703 133.537 232.45 138.132 229.8C142.726 227.149 146.887 222.61 149.9 217.404C152.912 212.197 154.767 206.333 154.767 201.032C154.767 195.732 152.903 192.01 149.9 190.281Z" fill="url(#paint44_linear_966_835)"/>
<defs>
<linearGradient id="paint0_linear_966_835" x1="143.937" y1="346.218" x2="80.0406" y2="325.99" gradientUnits="userSpaceOnUse">
<stop stop-color="#D9DEFC"/>
<stop offset="1" stop-color="#CCD6FF"/>
</linearGradient>
<linearGradient id="paint1_linear_966_835" x1="143.358" y1="293.344" x2="16.9993" y2="293.344" gradientUnits="userSpaceOnUse">
<stop stop-color="#E8EAFB"/>
<stop offset="1" stop-color="white"/>
</linearGradient>
<linearGradient id="paint2_linear_966_835" x1="87.3723" y1="267.608" x2="79.5182" y2="267.608" gradientUnits="userSpaceOnUse">
<stop stop-color="#6DB0F2"/>
<stop offset="1" stop-color="#4F85C4"/>
</linearGradient>
<linearGradient id="paint3_linear_966_835" x1="94.2734" y1="234.89" x2="63.4614" y2="234.89" gradientUnits="userSpaceOnUse">
<stop stop-color="#6DB0F2"/>
<stop offset="1" stop-color="#4F85C4"/>
</linearGradient>
<linearGradient id="paint4_linear_966_835" x1="100.649" y1="249.607" x2="82.6018" y2="249.607" gradientUnits="userSpaceOnUse">
<stop stop-color="#6DB0F2"/>
<stop offset="1" stop-color="#6DB0F2"/>
</linearGradient>
<linearGradient id="paint5_linear_966_835" x1="59.8112" y1="195.542" x2="90.3623" y2="265.327" gradientUnits="userSpaceOnUse">
<stop stop-color="#6DB0F2"/>
<stop offset="1" stop-color="#368DF1"/>
</linearGradient>
<linearGradient id="paint6_linear_966_835" x1="100.649" y1="257.19" x2="91.5485" y2="257.19" gradientUnits="userSpaceOnUse">
<stop stop-color="#456FA0"/>
<stop offset="1" stop-color="#4F85C4"/>
</linearGradient>
<linearGradient id="paint7_linear_966_835" x1="81.3418" y1="274.443" x2="67.1634" y2="274.443" gradientUnits="userSpaceOnUse">
<stop stop-color="#6DB0F2"/>
<stop offset="1" stop-color="#6DB0F2"/>
</linearGradient>
<linearGradient id="paint8_linear_966_835" x1="37.4959" y1="205.315" x2="68.047" y2="275.1" gradientUnits="userSpaceOnUse">
<stop stop-color="#6DB0F2"/>
<stop offset="1" stop-color="#368DF1"/>
</linearGradient>
<linearGradient id="paint9_linear_966_835" x1="81.3418" y1="280.411" x2="74.1947" y2="280.411" gradientUnits="userSpaceOnUse">
<stop stop-color="#456FA0"/>
<stop offset="1" stop-color="#4F85C4"/>
</linearGradient>
<linearGradient id="paint10_linear_966_835" x1="67.3945" y1="236.26" x2="58.0622" y2="236.26" gradientUnits="userSpaceOnUse">
<stop stop-color="#6DB0F2"/>
<stop offset="1" stop-color="#6DB0F2"/>
</linearGradient>
<linearGradient id="paint11_linear_966_835" x1="43.743" y1="202.574" x2="74.2941" y2="272.359" gradientUnits="userSpaceOnUse">
<stop stop-color="#6DB0F2"/>
<stop offset="1" stop-color="#368DF1"/>
</linearGradient>
<linearGradient id="paint12_linear_966_835" x1="67.3945" y1="240.18" x2="62.6898" y2="240.18" gradientUnits="userSpaceOnUse">
<stop stop-color="#456FA0"/>
<stop offset="1" stop-color="#4F85C4"/>
</linearGradient>
<linearGradient id="paint13_linear_966_835" x1="100.649" y1="227.371" x2="91.3171" y2="227.371" gradientUnits="userSpaceOnUse">
<stop stop-color="#6DB0F2"/>
<stop offset="1" stop-color="#6DB0F2"/>
</linearGradient>
<linearGradient id="paint14_linear_966_835" x1="74.9145" y1="188.933" x2="105.466" y2="258.717" gradientUnits="userSpaceOnUse">
<stop stop-color="#6DB0F2"/>
<stop offset="1" stop-color="#368DF1"/>
</linearGradient>
<linearGradient id="paint15_linear_966_835" x1="100.649" y1="231.291" x2="95.9447" y2="231.291" gradientUnits="userSpaceOnUse">
<stop stop-color="#456FA0"/>
<stop offset="1" stop-color="#4F85C4"/>
</linearGradient>
<linearGradient id="paint16_linear_966_835" x1="100.637" y1="191.072" x2="95.932" y2="191.072" gradientUnits="userSpaceOnUse">
<stop stop-color="#6DB0F2"/>
<stop offset="1" stop-color="#6DB0F2"/>
</linearGradient>
<linearGradient id="paint17_linear_966_835" x1="87.6539" y1="171.693" x2="103.064" y2="206.88" gradientUnits="userSpaceOnUse">
<stop stop-color="#6DB0F2"/>
<stop offset="1" stop-color="#368DF1"/>
</linearGradient>
<linearGradient id="paint18_linear_966_835" x1="100.637" y1="193.044" x2="98.2586" y2="193.044" gradientUnits="userSpaceOnUse">
<stop stop-color="#456FA0"/>
<stop offset="1" stop-color="#4F85C4"/>
</linearGradient>
<linearGradient id="paint19_linear_966_835" x1="95.9834" y1="279.092" x2="91.2787" y2="279.092" gradientUnits="userSpaceOnUse">
<stop stop-color="#6DB0F2"/>
<stop offset="1" stop-color="#6DB0F2"/>
</linearGradient>
<linearGradient id="paint20_linear_966_835" x1="83.0006" y1="259.7" x2="98.4103" y2="294.887" gradientUnits="userSpaceOnUse">
<stop stop-color="#6DB0F2"/>
<stop offset="1" stop-color="#368DF1"/>
</linearGradient>
<linearGradient id="paint21_linear_966_835" x1="95.9834" y1="281.065" x2="93.6053" y2="281.065" gradientUnits="userSpaceOnUse">
<stop stop-color="#456FA0"/>
<stop offset="1" stop-color="#4F85C4"/>
</linearGradient>
<linearGradient id="paint22_linear_966_835" x1="69.5156" y1="259.265" x2="64.8109" y2="259.265" gradientUnits="userSpaceOnUse">
<stop stop-color="#6DB0F2"/>
<stop offset="1" stop-color="#6DB0F2"/>
</linearGradient>
<linearGradient id="paint23_linear_966_835" x1="56.5328" y1="239.885" x2="71.9425" y2="275.072" gradientUnits="userSpaceOnUse">
<stop stop-color="#6DB0F2"/>
<stop offset="1" stop-color="#368DF1"/>
</linearGradient>
<linearGradient id="paint24_linear_966_835" x1="69.5156" y1="261.25" x2="67.1376" y2="261.25" gradientUnits="userSpaceOnUse">
<stop stop-color="#456FA0"/>
<stop offset="1" stop-color="#4F85C4"/>
</linearGradient>
<linearGradient id="paint25_linear_966_835" x1="82.46" y1="291.696" x2="80.2233" y2="291.696" gradientUnits="userSpaceOnUse">
<stop stop-color="#6DB0F2"/>
<stop offset="1" stop-color="#6DB0F2"/>
</linearGradient>
<linearGradient id="paint26_linear_966_835" x1="76.2902" y1="282.461" x2="83.6117" y2="299.208" gradientUnits="userSpaceOnUse">
<stop stop-color="#6DB0F2"/>
<stop offset="1" stop-color="#368DF1"/>
</linearGradient>
<linearGradient id="paint27_linear_966_835" x1="82.46" y1="292.631" x2="81.3288" y2="292.631" gradientUnits="userSpaceOnUse">
<stop stop-color="#456FA0"/>
<stop offset="1" stop-color="#4F85C4"/>
</linearGradient>
<linearGradient id="paint28_linear_966_835" x1="85.7002" y1="172.64" x2="83.4635" y2="172.64" gradientUnits="userSpaceOnUse">
<stop stop-color="#6DB0F2"/>
<stop offset="1" stop-color="#6DB0F2"/>
</linearGradient>
<linearGradient id="paint29_linear_966_835" x1="79.5175" y1="163.418" x2="86.8519" y2="180.166" gradientUnits="userSpaceOnUse">
<stop stop-color="#6DB0F2"/>
<stop offset="1" stop-color="#368DF1"/>
</linearGradient>
<linearGradient id="paint30_linear_966_835" x1="85.7002" y1="173.588" x2="84.569" y2="173.588" gradientUnits="userSpaceOnUse">
<stop stop-color="#456FA0"/>
<stop offset="1" stop-color="#4F85C4"/>
</linearGradient>
<linearGradient id="paint31_linear_966_835" x1="73.1279" y1="187.537" x2="70.6727" y2="187.537" gradientUnits="userSpaceOnUse">
<stop stop-color="#6DB0F2"/>
<stop offset="1" stop-color="#6DB0F2"/>
</linearGradient>
<linearGradient id="paint32_linear_966_835" x1="66.3671" y1="177.456" x2="74.3914" y2="195.768" gradientUnits="userSpaceOnUse">
<stop stop-color="#6DB0F2"/>
<stop offset="1" stop-color="#368DF1"/>
</linearGradient>
<linearGradient id="paint33_linear_966_835" x1="73.1279" y1="188.574" x2="71.8939" y2="188.574" gradientUnits="userSpaceOnUse">
<stop stop-color="#456FA0"/>
<stop offset="1" stop-color="#4F85C4"/>
</linearGradient>
<linearGradient id="paint34_linear_966_835" x1="96.0215" y1="214.563" x2="93.5791" y2="214.563" gradientUnits="userSpaceOnUse">
<stop stop-color="#6DB0F2"/>
<stop offset="1" stop-color="#6DB0F2"/>
</linearGradient>
<linearGradient id="paint35_linear_966_835" x1="89.2735" y1="204.482" x2="97.285" y2="222.781" gradientUnits="userSpaceOnUse">
<stop stop-color="#6DB0F2"/>
<stop offset="1" stop-color="#368DF1"/>
</linearGradient>
<linearGradient id="paint36_linear_966_835" x1="96.0215" y1="215.587" x2="94.7875" y2="215.587" gradientUnits="userSpaceOnUse">
<stop stop-color="#456FA0"/>
<stop offset="1" stop-color="#4F85C4"/>
</linearGradient>
<linearGradient id="paint37_linear_966_835" x1="78.8359" y1="206.045" x2="65.7501" y2="206.045" gradientUnits="userSpaceOnUse">
<stop stop-color="#6DB0F2"/>
<stop offset="1" stop-color="#6DB0F2"/>
</linearGradient>
<linearGradient id="paint38_linear_966_835" x1="60.1838" y1="191.712" x2="90.7349" y2="261.484" gradientUnits="userSpaceOnUse">
<stop stop-color="#6DB0F2"/>
<stop offset="1" stop-color="#368DF1"/>
</linearGradient>
<linearGradient id="paint39_linear_966_835" x1="78.8359" y1="211.54" x2="72.2416" y2="211.54" gradientUnits="userSpaceOnUse">
<stop stop-color="#456FA0"/>
<stop offset="1" stop-color="#4F85C4"/>
</linearGradient>
<linearGradient id="paint40_linear_966_835" x1="-0.215772" y1="63.4178" x2="31.312" y2="53.4404" gradientUnits="userSpaceOnUse">
<stop stop-color="#D9DEFC"/>
<stop offset="1" stop-color="#CCD6FF"/>
</linearGradient>
<linearGradient id="paint41_linear_966_835" x1="0.0683594" y1="37.3233" x2="62.4266" y2="37.3233" gradientUnits="userSpaceOnUse">
<stop stop-color="#E8EAFB"/>
<stop offset="1" stop-color="white"/>
</linearGradient>
<linearGradient id="paint42_linear_966_835" x1="106" y1="206.803" x2="153.411" y2="206.803" gradientUnits="userSpaceOnUse">
<stop stop-color="#92A6F3"/>
<stop offset="1" stop-color="#7F93E6"/>
</linearGradient>
<linearGradient id="paint43_linear_966_835" x1="118.54" y1="208.936" x2="154.767" y2="208.936" gradientUnits="userSpaceOnUse">
<stop stop-color="#174DBA"/>
<stop offset="1" stop-color="#7023FF"/>
</linearGradient>
<linearGradient id="paint44_linear_966_835" x1="114.115" y1="210.628" x2="180.996" y2="210.628" gradientUnits="userSpaceOnUse">
<stop stop-color="#92A6F3"/>
<stop offset="1" stop-color="#AAB9F3"/>
</linearGradient>
<clipPath id="clip0_966_835">
<rect width="31.6986" height="21.7654" fill="white" transform="matrix(-1 0 0 1 46.6982 0)"/>
</clipPath>
</defs>
</svg>
