<svg width="333" height="257" viewBox="0 0 333 257" fill="none" xmlns="http://www.w3.org/2000/svg">
<path d="M277.436 104.624L131.033 31.3329C127.915 29.771 125.092 29.6302 123.054 30.6574L114.901 34.7381C112.851 35.754 111.583 37.9435 111.583 41.0645V130.524C111.583 136.746 116.624 144.316 122.84 147.426L269.247 220.717C272.28 222.237 275.033 222.408 277.057 221.468C277.06 221.468 277.13 221.435 277.13 221.435C277.181 221.409 277.228 221.387 277.279 221.362L285.238 217.377C287.364 216.392 288.691 214.177 288.691 210.985V121.526C288.691 115.304 283.65 107.734 277.434 104.624H277.436Z" fill="#A4B5F5"/>
<path d="M111.585 130.524V41.0645C111.585 34.8422 116.626 32.3207 122.842 35.4304L269.249 108.722C275.465 111.834 280.506 119.402 280.506 125.624V215.083C280.506 221.305 275.465 223.827 269.249 220.717L122.842 147.429C116.626 144.316 111.585 136.749 111.585 130.526V130.524Z" fill="#889CEC"/>
<path style="mix-blend-mode:hard-light" d="M101.697 135.474V46.0147C101.697 39.7924 106.738 37.2709 112.954 40.3806L259.361 113.672C265.577 116.784 270.618 124.352 270.618 130.574V220.033C270.618 226.255 265.577 228.777 259.361 225.667L112.954 152.376C106.738 149.264 101.697 141.696 101.697 135.474Z" fill="url(#paint0_linear_966_836)"/>
<path d="M263.18 111.761L116.776 38.4697C113.658 36.9078 110.835 36.7671 108.797 37.7943L105.016 39.6883C107.051 38.678 109.857 38.8299 112.955 40.3806L259.362 113.672C265.578 116.784 270.619 124.352 270.619 130.574V220.033C270.619 223.106 269.387 225.276 267.394 226.312L270.984 224.513C273.11 223.528 274.437 221.314 274.437 218.122V128.663C274.437 122.441 269.396 114.871 263.18 111.761Z" fill="url(#paint1_linear_966_836)"/>
<path d="M234.244 132.001L151.413 90.536C150.243 89.9506 149.296 88.5294 149.296 87.3587V69.8091C149.296 68.6384 150.243 68.1656 151.413 68.751L234.244 110.216C235.414 110.801 236.361 112.225 236.361 113.393V130.943C236.361 132.114 235.414 132.586 234.244 132.001Z" fill="#F5F8FF"/>
<path d="M167.269 92.2006C169.816 90.2102 169.236 85.2051 165.972 81.0213C162.709 76.8376 157.999 75.0595 155.452 77.05C152.906 79.0404 153.486 84.0455 156.749 88.2293C160.012 92.413 164.722 94.1911 167.269 92.2006Z" fill="url(#paint2_linear_966_836)"/>
<path d="M220.609 119.278C219.917 118.932 219.357 119.213 219.357 119.905C219.357 120.598 219.917 121.439 220.609 121.785C221.3 122.131 221.86 121.85 221.86 121.158C221.86 120.465 221.3 119.624 220.609 119.278ZM224.536 121.245C223.845 120.899 223.285 121.18 223.285 121.873C223.285 122.565 223.845 123.406 224.536 123.753C225.228 124.099 225.787 123.817 225.787 123.125C225.787 122.433 225.228 121.591 224.536 121.245ZM228.464 123.212C227.772 122.866 227.213 123.147 227.213 123.84C227.213 124.532 227.772 125.374 228.464 125.72C229.155 126.066 229.715 125.784 229.715 125.092C229.715 124.4 229.155 123.558 228.464 123.212Z" fill="url(#paint3_linear_966_836)"/>
<path d="M174.655 86.0192V87.719L229.718 115.282V113.582L174.655 86.0192ZM174.655 91.172L208.455 108.091V107.072L174.655 90.1533V91.172ZM174.655 93.6823L208.455 110.602V109.583L174.655 92.6636V93.6823ZM174.655 96.1926L208.455 113.112V112.093L174.655 95.1739V96.1926Z" fill="url(#paint4_linear_966_836)"/>
<path d="M256.735 174.085L173.904 132.62C172.735 132.035 171.787 130.614 171.787 129.443V111.893C171.787 110.722 172.735 110.25 173.904 110.835L256.735 152.3C257.905 152.885 258.852 154.309 258.852 155.477V173.027C258.852 174.198 257.905 174.67 256.735 174.085Z" fill="#F5F8FF"/>
<path d="M189.761 134.285C192.308 132.294 191.728 127.289 188.465 123.106C185.202 118.922 180.492 117.144 177.945 119.134C175.398 121.125 175.978 126.13 179.241 130.314C182.505 134.497 187.214 136.275 189.761 134.285Z" fill="url(#paint5_linear_966_836)"/>
<path d="M243.1 161.362C242.408 161.016 241.849 161.297 241.849 161.989C241.849 162.682 242.408 163.523 243.1 163.869C243.791 164.215 244.351 163.934 244.351 163.242C244.351 162.549 243.791 161.708 243.1 161.362ZM247.027 163.329C246.336 162.983 245.776 163.264 245.776 163.957C245.776 164.649 246.336 165.49 247.027 165.836C247.719 166.183 248.278 165.901 248.278 165.209C248.278 164.517 247.719 163.675 247.027 163.329ZM250.955 165.296C250.263 164.95 249.704 165.231 249.704 165.924C249.704 166.616 250.263 167.457 250.955 167.804C251.647 168.15 252.206 167.868 252.206 167.176C252.206 166.484 251.647 165.642 250.955 165.296Z" fill="url(#paint6_linear_966_836)"/>
<path d="M197.146 128.103V129.803L252.209 157.366V155.666L197.146 128.103ZM197.146 133.256L230.946 150.175V149.157L197.146 132.237V133.256ZM197.146 135.766L230.946 152.686V151.667L197.146 134.748V135.766ZM197.146 138.277L230.946 155.196V154.177L197.146 137.258V138.277Z" fill="url(#paint7_linear_966_836)"/>
<path d="M245.489 199.281L162.658 157.816C161.488 157.231 160.541 155.807 160.541 154.639V137.089C160.541 135.918 161.488 135.446 162.658 136.031L245.489 177.496C246.659 178.081 247.606 179.505 247.606 180.673V198.223C247.606 199.394 246.659 199.866 245.489 199.281Z" fill="#F5F8FF"/>
<path d="M178.516 159.479C181.063 157.489 180.483 152.484 177.22 148.3C173.956 144.116 169.246 142.338 166.7 144.329C164.153 146.319 164.733 151.324 167.996 155.508C171.259 159.692 175.969 161.47 178.516 159.479Z" fill="url(#paint8_linear_966_836)"/>
<path d="M231.853 186.558C231.161 186.212 230.602 186.493 230.602 187.185C230.602 187.878 231.161 188.719 231.853 189.065C232.544 189.412 233.104 189.13 233.104 188.438C233.104 187.745 232.544 186.904 231.853 186.558ZM235.78 188.525C235.089 188.179 234.529 188.46 234.529 189.153C234.529 189.845 235.089 190.686 235.78 191.033C236.472 191.379 237.031 191.097 237.031 190.405C237.031 189.713 236.472 188.871 235.78 188.525ZM239.708 190.492C239.016 190.146 238.457 190.427 238.457 191.12C238.457 191.812 239.016 192.654 239.708 193C240.399 193.346 240.959 193.064 240.959 192.372C240.959 191.68 240.399 190.838 239.708 190.492Z" fill="url(#paint9_linear_966_836)"/>
<path d="M185.9 153.299V154.999L240.963 182.562V180.862L185.9 153.299ZM185.9 158.452L219.7 175.371V174.353L185.9 157.433V158.452ZM185.9 160.962L219.7 177.882V176.863L185.9 159.944V160.962ZM185.9 163.473L219.7 180.392V179.373L185.9 162.454V163.473Z" fill="url(#paint10_linear_966_836)"/>
<path d="M58.1671 174.732L43.703 167.491C42.6192 166.949 41.6438 166.906 40.9394 167.274L36.6547 169.425C36.5928 169.452 36.5347 169.479 36.4806 169.514C35.8264 169.89 35.4316 170.614 35.4316 171.633V186.111C35.4316 188.25 37.1618 190.85 39.2983 191.919L53.7625 199.16C54.8424 199.699 55.8139 199.745 56.5144 199.385L60.8068 197.231C60.8649 197.204 60.923 197.177 60.981 197.142C61.6313 196.77 62.0299 196.045 62.0299 195.023V180.544C62.0299 178.405 60.2998 175.806 58.1633 174.736L58.1671 174.732Z" fill="url(#paint11_linear_966_836)"/>
<path d="M53.7625 199.156L39.2983 191.915C37.1618 190.846 35.4316 188.246 35.4316 186.108V171.629C35.4316 169.49 37.1618 168.626 39.2983 169.696L53.7625 176.937C55.899 178.006 57.6291 180.606 57.6291 182.745V197.223C57.6291 199.362 55.899 200.226 53.7625 199.156Z" fill="url(#paint12_linear_966_836)"/>
<path d="M4.15308 225.153L13.8642 217.823L15.0641 216.917C15.335 216.696 15.5905 216.459 15.8305 216.215C16.3065 215.716 16.7246 215.169 17.0613 214.588C17.398 214.007 17.669 213.391 17.8509 212.759L18.5476 210.105L24.7172 186.553C25.6074 183.151 29.0832 181.117 32.4815 182.009C35.8798 182.9 37.9118 186.379 37.0216 189.781C36.9519 190.052 36.8474 190.346 36.7468 190.598L27.4498 213.096L26.8692 214.503L26.5673 215.235C26.4357 215.553 26.3041 215.87 26.1532 216.18C25.5726 217.42 24.8372 218.583 23.9857 219.636C23.1342 220.69 22.1588 221.632 21.0983 222.445C20.5641 222.848 20.0106 223.22 19.4378 223.561L18.0986 224.317L7.4856 230.264C6.0148 231.089 4.15695 230.562 3.33252 229.09C2.57777 227.742 2.95708 226.064 4.15695 225.157L4.15308 225.153Z" fill="#0DA1F9"/>
<path d="M1.71815 226.316L3.09606 226.219C4.06756 226.149 4.87263 226.955 4.8107 227.924L4.26109 236.335C4.15658 237.819 1.61752 238.253 1.30787 236.517L0.0847859 229.632C-0.128093 228.435 -0.058424 226.498 1.71815 226.316Z" fill="#8EAAE8"/>
<path d="M28.6454 250.577L30.031 247.667L38.6043 253.308C39.839 254.134 38.9642 256.559 37.3038 255.97L29.5201 253.212C28.3745 252.805 28.2583 251.375 28.6415 250.577H28.6454Z" fill="#8EAAE8"/>
<path d="M44.0499 200.024C44.0808 204.309 43.7944 208.517 43.3028 212.647C42.8113 216.777 42.1146 220.83 41.2824 224.828C39.6104 232.817 37.4042 240.573 34.9541 248.202C34.4393 249.806 32.7208 250.689 31.1145 250.174C29.6476 249.701 28.7845 248.221 29.0438 246.741C30.3946 238.989 31.4629 231.225 31.9854 223.53C32.5002 215.843 32.4615 208.191 31.3971 200.954C30.8862 197.475 33.2898 194.24 36.7655 193.728C40.2413 193.217 43.4731 195.623 43.9841 199.102C44.0266 199.385 44.0499 199.668 44.0537 199.951V200.028L44.0499 200.024Z" fill="#0DA1F9"/>
<path d="M32.3111 163.95L32.8723 168.611L27.6084 168.336V162.641L32.3111 163.95Z" fill="#F3ABC7"/>
<path d="M34.1991 162.881C34.2069 163.609 33.1928 164.713 31.8188 164.183C31.3543 164.004 28.3701 162.641 28.3701 162.641C28.3701 162.641 28.4475 157.643 29.0358 157.201C29.8525 156.585 31.8846 156.449 32.7051 157.058C33.9011 157.949 34.1798 161.254 34.1991 162.881Z" fill="#F3ABC7"/>
<path d="M32.5967 158.607C31.8613 159.061 31.8381 160.634 31.8381 161.172C31.8381 162.447 29.7751 164.186 27.6076 164.144C27.6076 162.001 24.2867 157.96 27.0967 157.96C28.1147 154.814 32.6625 156.531 33.7114 156.019C34.323 156.631 33.9592 157.767 32.6006 158.607H32.5967Z" fill="#0DA1F9"/>
<path d="M39.9661 171.625C35.5653 168.274 28.0913 166.081 23.0131 165.515C20.985 165.291 19.4832 166.205 18.802 168.224C18.3375 169.595 18.4304 171.098 19.0033 172.427C22.0184 179.436 22.0107 186.301 22.0107 192.442C22.8428 195.515 42.7916 200.524 43.7631 197.304L42.3039 175.531C42.1181 174.039 41.255 172.602 39.9661 171.621V171.625Z" fill="#A3B3F3"/>
<path d="M63.8122 190.47L62.7788 190.311L61.7725 189.432L60.7545 189.602C59.7869 189.738 59.365 190.129 59.2721 190.873L59.2373 191.164L59.1018 192.229C59.0321 192.779 59.423 193.279 59.9688 193.349L61.8189 193.585C62.5582 193.647 63.2549 193.225 63.5452 192.543L63.6884 192.202C63.8084 191.915 63.7503 191.582 63.5374 191.354L63.7232 191.361C63.9129 191.369 64.087 191.261 64.1606 191.086C64.2728 190.815 64.1025 190.513 63.8161 190.466L63.8122 190.47Z" fill="#F3ABC7"/>
<path d="M62.9598 189.428C63.1611 189.354 63.2695 189.133 63.2075 188.928C63.1495 188.734 62.9559 188.614 62.7547 188.649L60.7226 188.994L59.5576 190.168L61.8877 190.517L61.9535 189.796L62.9598 189.428Z" fill="#F3ABC7"/>
<path d="M58.533 193.759C56.0249 193.663 53.482 193.411 50.9584 192.71L50.014 192.442C49.7005 192.345 49.3947 192.21 49.0851 192.094L48.1561 191.733C47.8504 191.601 47.5562 191.439 47.2543 191.288L46.3563 190.827L45.5048 190.28C45.2261 190.09 44.9242 189.928 44.661 189.715L43.8676 189.079C41.7698 187.344 40.1054 185.155 38.8475 182.857C37.5818 180.556 36.649 178.161 35.8517 175.775L35.844 175.751C35.2866 174.082 36.1846 172.276 37.8528 171.714C39.521 171.156 41.3246 172.055 41.8859 173.725C41.9439 173.896 41.9865 174.085 42.0136 174.26C42.3465 176.449 42.8574 178.568 43.6431 180.521C44.4327 182.466 45.5203 184.217 46.9524 185.616C48.3729 187.022 50.1533 188.064 52.1544 188.692C54.1516 189.323 56.3384 189.552 58.5369 189.509H58.5756C59.7484 189.486 60.7199 190.42 60.747 191.594C60.7741 192.768 59.8374 193.74 58.6646 193.767C58.6259 193.767 58.5795 193.767 58.5408 193.767L58.533 193.759Z" fill="#A3B3F3"/>
<defs>
<linearGradient id="paint0_linear_966_836" x1="114.787" y1="482.008" x2="256.145" y2="607.958" gradientUnits="userSpaceOnUse">
<stop stop-color="#31C9FB"/>
<stop offset="1" stop-color="#22D2FD"/>
</linearGradient>
<linearGradient id="paint1_linear_966_836" x1="189.725" y1="220.593" x2="189.725" y2="40.6789" gradientUnits="userSpaceOnUse">
<stop stop-color="#C3CFF7"/>
<stop offset="1" stop-color="white"/>
</linearGradient>
<linearGradient id="paint2_linear_966_836" x1="154.203" y1="84.6256" x2="168.57" y2="84.6256" gradientUnits="userSpaceOnUse">
<stop stop-color="#1E69FF"/>
<stop offset="1" stop-color="#6697FF"/>
</linearGradient>
<linearGradient id="paint3_linear_966_836" x1="219.408" y1="122.497" x2="229.664" y2="122.497" gradientUnits="userSpaceOnUse">
<stop stop-color="#BBC9F8"/>
<stop offset="1" stop-color="#D3D7F2"/>
</linearGradient>
<linearGradient id="paint4_linear_966_836" x1="175.895" y1="100.653" x2="228.661" y2="100.653" gradientUnits="userSpaceOnUse">
<stop stop-color="#1E69FF"/>
<stop offset="1" stop-color="#6697FF"/>
</linearGradient>
<linearGradient id="paint5_linear_966_836" x1="176.16" y1="126.71" x2="186.295" y2="126.71" gradientUnits="userSpaceOnUse">
<stop stop-color="#174DBA"/>
<stop offset="1" stop-color="#7023FF"/>
</linearGradient>
<linearGradient id="paint6_linear_966_836" x1="241.899" y1="164.581" x2="252.155" y2="164.581" gradientUnits="userSpaceOnUse">
<stop stop-color="#BBC9F8"/>
<stop offset="1" stop-color="#D3D7F2"/>
</linearGradient>
<linearGradient id="paint7_linear_966_836" x1="198.386" y1="142.734" x2="251.152" y2="142.734" gradientUnits="userSpaceOnUse">
<stop stop-color="#1E69FF"/>
<stop offset="1" stop-color="#6697FF"/>
</linearGradient>
<linearGradient id="paint8_linear_966_836" x1="165.188" y1="151.904" x2="180.027" y2="151.904" gradientUnits="userSpaceOnUse">
<stop stop-color="#BBC9F8"/>
<stop offset="1" stop-color="#D3D7F2"/>
</linearGradient>
<linearGradient id="paint9_linear_966_836" x1="230.652" y1="189.777" x2="240.908" y2="189.777" gradientUnits="userSpaceOnUse">
<stop stop-color="#BBC9F8"/>
<stop offset="1" stop-color="#D3D7F2"/>
</linearGradient>
<linearGradient id="paint10_linear_966_836" x1="187.14" y1="167.93" x2="239.906" y2="167.93" gradientUnits="userSpaceOnUse">
<stop stop-color="#1E69FF"/>
<stop offset="1" stop-color="#6697FF"/>
</linearGradient>
<linearGradient id="paint11_linear_966_836" x1="59.5992" y1="196.669" x2="37.8985" y2="170.066" gradientUnits="userSpaceOnUse">
<stop stop-color="#2962D4"/>
<stop offset="1" stop-color="#3176FF"/>
</linearGradient>
<linearGradient id="paint12_linear_966_836" x1="46.5323" y1="195.743" x2="46.5323" y2="172.454" gradientUnits="userSpaceOnUse">
<stop stop-color="#3176FF"/>
<stop offset="1" stop-color="#66B3FF"/>
</linearGradient>
</defs>
</svg>
