<svg width="419" height="205" viewBox="0 0 419 205" fill="none" xmlns="http://www.w3.org/2000/svg">
<g clip-path="url(#clip0_966_837)">
<path d="M295.464 35.223L311.267 27.3315V33.0395L295.464 40.9339V35.223Z" fill="#3176FF"/>
<path d="M300.35 55.397L266.794 38.6356V44.3466L300.35 61.1079V55.397Z" fill="#3176FF"/>
<path d="M320.955 44.1775C335.352 46.956 348.228 51.1508 359.223 56.6413C370.218 62.1348 378.616 68.5645 384.18 75.7553C387.784 80.4122 390.085 85.2352 391.065 90.161H391.612V95.8477C391.606 96.3883 391.591 96.9319 391.555 97.4756L376.124 97.2309V94.2109C375.407 82.0732 365.661 70.7631 348.307 62.0955C334.27 55.083 316.77 50.5589 297.735 48.8948L295.467 40.934C304.164 41.5017 312.691 42.5829 320.958 44.1775H320.955Z" fill="#889CEC"/>
<path d="M300.351 55.397L311.267 49.9427V55.6537L300.351 61.1079V55.397Z" fill="#3176FF"/>
<path d="M311.267 27.3316L295.464 35.226C304.161 35.7938 312.688 36.875 320.955 38.4696C335.352 41.248 348.228 45.4429 359.223 50.9334C370.218 56.4269 378.616 62.8566 384.18 70.0473C389.55 76.9905 392.033 84.299 391.555 91.7676L376.124 91.523C376.971 78.2498 367.092 65.7709 348.307 56.3876C334.27 49.375 316.77 44.851 297.735 43.1869L311.27 49.9488L300.35 55.4031L266.794 38.6417L300.35 21.8804L311.27 27.3346L311.267 27.3316Z" fill="#A4B5F5"/>
<path d="M331.197 127.469C358.913 99.7887 358.913 54.9095 331.197 27.2288C303.481 -0.451898 258.544 -0.451906 230.828 27.2288C203.112 54.9095 203.112 99.7888 230.828 127.469C258.544 155.15 303.481 155.15 331.197 127.469Z" fill="url(#paint0_radial_966_837)"/>
<g style="mix-blend-mode:multiply">
<path d="M267.26 97.7594C266.102 95.7148 266.431 92.8397 264.629 91.3327C263.525 90.4086 261.926 90.327 260.513 90.623C259.101 90.9189 257.777 91.535 256.374 91.8672C250.271 93.3048 246.461 88.5542 240.924 88.0982C238.965 87.9381 237.335 88.4153 235.983 89.3032C235.227 87.618 235.082 85.652 235.678 83.9003C234.099 85.5915 231.937 87.4428 229.754 86.6667C228.481 86.2137 227.683 84.9845 226.975 83.8339C225.309 81.1158 223.643 78.4008 221.977 75.6827C221.351 74.6619 220.703 73.4539 221.112 72.3305C221.617 70.9443 223.41 70.5637 224.883 70.6966C228.43 71.0228 231.756 73.2093 233.452 76.3411C233.985 77.3226 234.393 78.4249 235.252 79.1407C236.11 79.8564 237.634 79.941 238.185 78.9716C236.966 77.0146 235.72 74.973 235.46 72.6838C235.2 70.3946 236.234 67.7853 238.399 66.985C240.244 66.3024 242.264 67.0786 244.184 67.5044C247.952 68.341 252.019 67.7732 255.409 65.9309C256.28 65.4568 257.214 64.6988 257.115 63.7142C256.888 61.4703 252.225 62.0743 252.146 59.8183C252.101 58.5046 253.915 57.9157 255.158 58.3536C256.398 58.7945 257.39 59.8002 258.657 60.1626C260.411 60.667 262.464 59.6583 263.132 57.964C264.175 55.3275 262.034 52.5913 260.057 50.5588C259.147 49.6256 258.218 48.6743 257.057 48.0794C255.896 47.4844 254.447 47.2972 253.301 47.9223C252.334 48.4508 251.741 49.4475 251.064 50.3142C249.503 52.3014 247.178 53.7812 244.653 53.9353C242.128 54.0863 239.47 52.7303 238.457 50.4139C237.444 48.0975 238.463 44.9898 240.8 44.0264C242.276 43.4194 243.951 43.6791 245.527 43.9479C247.102 44.2167 248.778 44.4764 250.25 43.8634C251.726 43.2503 252.802 41.4081 252.019 40.0158C250.928 40.4235 249.697 39.6262 249.147 38.5994C248.596 37.5726 248.518 36.3676 248.3 35.223C247.474 30.9043 244.357 27.093 240.283 25.4259C238.13 24.544 235.748 24.2813 233.443 24.5923C219.923 36.7934 211.13 54.1165 210.132 73.4992C210.337 73.7499 210.546 73.9945 210.764 74.2331C213.806 77.5491 216.633 80.986 219.766 84.2567C222.587 87.2012 225.569 90.2485 229.44 91.5411C230.652 91.9458 231.925 92.1572 233.201 92.1874C231.974 94.0598 231.169 96.3309 230.679 98.46C230.044 101.226 229.512 104.098 227.979 106.49C227.039 107.955 225.681 109.429 225.935 111.15C226.165 112.691 227.655 113.742 229.146 114.189C230.64 114.635 232.237 114.666 233.712 115.158C237.453 116.405 239.633 120.283 240.858 124.028C242.086 127.773 242.772 131.811 245.076 135.009C248.862 140.264 255.866 141.846 262.234 143.039C260.613 140.949 258.971 138.823 258.022 136.356C257.072 133.891 256.897 130.992 258.182 128.685C259.673 126.009 262.89 124.448 263.843 121.536C264.835 118.501 263.002 114.977 264.333 112.074C265.149 110.296 266.948 109.224 268.494 108.019C270.036 106.811 271.508 105.056 271.191 103.123C270.825 100.906 268.358 99.7194 267.248 97.7624L267.26 97.7594ZM254.732 35.4193C255.448 36.881 256.216 38.4031 257.544 39.3453C259.531 40.7587 262.512 40.6893 263.967 42.6463C264.384 43.208 264.626 43.8845 265.046 44.4462C265.467 45.0049 266.177 45.4519 266.846 45.2465C267.71 44.9808 267.946 43.8211 267.68 42.9573C267.414 42.0936 266.824 41.3537 266.582 40.4839C266.159 38.9618 266.858 37.3853 267.475 35.9297C268.091 34.477 268.633 32.7828 267.931 31.3694C267.115 29.7234 265.037 29.2372 263.226 28.9382C260.344 28.461 252.796 25.3594 252.796 30.8227C252.854 31.5868 253.199 32.2965 253.534 32.9851C253.933 33.7975 254.333 34.6099 254.732 35.4193ZM286.855 58.2751C287.859 59.1328 289.123 59.2174 289.97 58.0244C290.351 57.4899 290.559 56.8557 290.837 56.2607C291.113 55.6658 291.484 55.0768 292.059 54.7628C292.455 54.5483 292.915 54.4819 293.332 54.3158C293.752 54.1497 294.164 53.8296 294.218 53.3826C294.303 52.6487 293.456 52.2078 292.791 51.8877C290.169 50.6283 290 44.6909 288.24 44.9476C286.71 45.171 286.988 47.7713 286.362 49.1847C286.008 49.982 285.648 50.8427 285.818 51.6974C286.029 52.7514 287.024 53.6604 286.803 54.7114C286.477 56.2547 285.228 56.8859 286.858 58.2751H286.855ZM335.758 109.988C334.808 111.03 333.877 112.114 333.269 113.385C332.758 114.454 331.951 117.547 333.432 118.35C334.89 119.141 336.299 117.076 337.079 116.019C338.195 114.5 338.921 112.727 339.504 110.948C339.74 110.223 340.273 106.049 340.796 105.79C338.827 106.774 337.24 108.363 335.758 109.991V109.988ZM328.67 24.6739C326.151 22.4964 323.432 22.6172 322.637 22.886C320.838 23.493 322.214 26.9842 322.208 28.8808C322.189 36.0474 317.554 37.8293 315.446 36.0052C313.846 34.619 312.132 33.2237 310.063 32.7677C308.706 32.4687 307.508 32.7224 306.172 32.9489C305.207 33.1119 304.239 33.0968 303.39 33.6918C302.685 34.1871 302.15 34.8787 301.627 35.5612C301.188 36.135 300.747 36.7058 300.308 37.2796C299.906 37.8021 299.501 38.3306 298.975 38.7293C298.11 39.3876 297.012 39.6292 295.96 39.901C294.908 40.1698 293.816 40.5141 293.069 41.3023C291.312 43.1567 292.631 46.0016 294.445 47.1884C296.743 48.6894 300.275 47.9374 301.584 45.5274C302.712 46.5512 303.151 48.2666 302.652 49.7042C302.44 50.3172 302.071 50.8941 301.823 51.489C301.052 51.8031 300.299 52.1746 299.552 52.6457C296.613 54.5 295.059 57.8251 292.198 59.5888C290.789 60.4556 289.135 60.676 287.535 60.2593C287.057 60.1354 283.314 58.3204 283.873 57.5503C281.339 60.8331 280.356 65.3571 281.66 69.2953C282.963 73.2304 286.664 76.3622 290.807 76.6461C295.195 76.9481 299.313 74.2089 302.002 70.7359C303.804 68.4074 305.128 65.7135 305.869 62.8656C306.311 65.3873 309.162 66.535 311.318 67.9181C312.498 68.6762 313.629 69.7423 313.828 71.1285C314.031 72.5147 312.815 74.1063 311.448 73.7952C312.77 75.3445 315.156 75.873 317.009 75.0213C318.86 74.1727 320.015 72.0194 319.701 70.008C319.492 68.6883 318.739 67.5255 318.304 66.2601C317.868 64.9977 317.829 63.4092 318.824 62.5183C318.745 64.6112 319.912 66.7071 321.733 67.746C323.19 68.5765 324.92 68.7336 326.559 69.1081C328.195 69.4825 329.916 70.2074 330.696 71.6902C330.962 72.1976 331.037 72.8016 330.956 73.3784C329.338 74.665 327.723 76.1539 326.97 77.7545C323.145 77.3921 318.304 80.0528 314.899 79.8806C309.867 79.6269 305.316 76.3683 300.109 76.5555C296.776 76.6763 293.653 78.3615 291.206 80.6235C288.76 82.8856 286.903 85.7003 285.131 88.518C284.257 89.9072 283.365 91.4233 283.462 93.0602C283.589 95.2104 285.349 96.8534 286.985 98.2577C290.326 101.127 293.934 103.712 298.052 105.285C313.372 111.138 310.426 121.573 306.583 127.114C305.131 129.207 303.369 131.835 304.62 134.054C305.301 135.259 306.74 135.885 308.125 135.927C309.51 135.972 310.859 135.522 312.153 135.024C315.903 133.577 319.465 131.647 322.725 129.301C324.938 127.706 327.064 125.861 328.343 123.451C329.544 121.189 329.913 118.595 330.526 116.109C331.821 110.872 334.282 105.929 337.687 101.743C338.966 100.169 340.403 98.6563 341.11 96.7597C341.818 94.8631 341.57 92.4169 339.922 91.236C338.265 90.0492 335.839 90.5173 334.155 89.3697C332.979 88.5693 332.504 87.2828 332.226 85.8543C334.621 87.1982 337.258 88.1918 339.036 88.5029C340.926 88.8351 343.045 88.4606 344.382 87.0835C345.716 85.7063 345.909 83.2117 344.473 81.9373C343.487 81.0645 342.072 80.9407 340.805 80.5752C339.538 80.2128 338.18 79.2977 338.213 77.981C338.25 76.48 339.991 75.6857 341.464 75.3928C344.297 74.828 347.37 74.828 349.931 76.1659C350.693 76.5646 351.388 77.1052 351.981 77.7424C351.981 77.5552 351.987 77.3649 351.987 77.1777C351.987 56.3513 342.994 37.6269 328.676 24.6588L328.67 24.6739ZM307.823 49.7344C307.868 48.2455 307.641 46.7505 307.705 45.2586C307.777 43.5734 308.328 41.7674 309.725 40.8252C308.343 43.2593 309.317 46.6116 311.533 48.2304C310.345 48.8344 309.123 49.3357 307.823 49.7374V49.7344Z" fill="#A3B3F3"/>
</g>
<path style="mix-blend-mode:screen" d="M330.708 97.4545L330.992 96.6058L331.249 95.7512L331.76 94.0358C331.924 93.4619 332.066 92.8821 332.217 92.3053C332.534 91.1516 332.779 89.9828 333.042 88.8111C333.181 88.2252 333.284 87.6393 333.393 87.0504L333.723 85.2806C333.898 84.0967 334.098 82.9099 334.243 81.7139C334.554 79.3281 334.733 76.915 334.848 74.4899C335.038 69.6397 334.83 64.723 334.128 59.8034C333.786 57.342 333.315 54.8807 332.707 52.4284C332.102 49.9761 331.367 47.5329 330.484 45.1077L330.402 44.8812C330.233 44.4252 330.024 43.9752 329.774 43.5403C327.303 39.2247 321.796 37.7267 317.475 40.1941C313.154 42.6615 311.654 48.161 314.125 52.4767C315.068 54.1226 315.927 55.8471 316.707 57.6319C317.49 59.4168 318.189 61.2651 318.788 63.1617C320.006 66.9488 320.868 70.9202 321.394 74.9792C322.317 82.2243 322.174 89.7352 320.841 97.077L330.65 97.6055L330.702 97.4545H330.708Z" fill="url(#paint1_linear_966_837)"/>
<path style="mix-blend-mode:screen" d="M281.217 37.6391C297.688 37.6391 311.039 30.9704 311.039 22.7442C311.039 14.5179 297.688 7.84924 281.217 7.84924C264.747 7.84924 251.396 14.5179 251.396 22.7442C251.396 30.9704 264.747 37.6391 281.217 37.6391Z" fill="url(#paint2_linear_966_837)"/>
<path style="mix-blend-mode:screen" d="M229.914 126.674C242.823 140.055 260.943 148.388 281.018 148.388C301.094 148.388 319.25 140.04 332.162 126.634C318.784 138.509 300.798 145.784 281.015 145.784C261.233 145.784 243.289 138.527 229.914 126.677V126.674Z" fill="url(#paint3_linear_966_837)"/>
<path d="M281.012 106.889C262.814 106.889 244.616 103.428 230.761 96.5091C216.04 89.1552 208.486 78.9595 210.035 68.5282L210.633 68.6158C209.127 78.7692 216.56 88.7385 231.033 95.9655C258.593 109.731 303.435 109.731 330.995 95.9655C345.065 88.9378 352.537 79.2373 351.488 69.3527L352.09 69.2893C353.166 79.4397 345.576 89.3576 331.264 96.506C317.408 103.425 299.21 106.886 281.012 106.886V106.889Z" fill="#2CF0FF"/>
<path d="M281.003 138.482C264.952 138.482 248.898 135.429 236.679 129.325C230.534 126.257 225.811 122.666 222.639 118.652L223.113 118.278C226.231 122.219 230.885 125.755 236.951 128.785C261.242 140.916 300.768 140.916 325.059 128.785C331.7 125.469 336.629 121.567 339.71 117.188L340.206 117.535C337.064 121.995 332.059 125.964 325.328 129.325C313.108 135.429 297.054 138.482 281.003 138.482Z" fill="#2CF0FF"/>
<path d="M281.012 56.2759C268.602 56.2759 256.192 53.9172 246.742 49.1969C237.516 44.5883 232.436 38.4394 232.436 31.8768C232.436 25.3142 237.516 19.1654 246.742 14.5568L247.011 15.0974C238.003 19.5972 233.04 25.5558 233.04 31.8768C233.04 38.1978 238.003 44.1564 247.011 48.6563C265.759 58.0215 296.262 58.0215 315.01 48.6563C324.021 44.1564 328.98 38.1978 328.98 31.8768C328.98 25.5558 324.018 19.5972 315.01 15.0974L315.279 14.5568C324.505 19.1654 329.585 25.3142 329.585 31.8768C329.585 38.4394 324.505 44.5883 315.279 49.1969C305.832 53.9172 293.419 56.2759 281.009 56.2759H281.012Z" fill="#2CF0FF"/>
<path d="M281.315 17.9905H280.71V149.037H281.315V17.9905Z" fill="#2CF0FF"/>
<path d="M281.013 18.2865C278.473 18.2865 275.932 17.8033 274 16.8369C272.056 15.8644 270.985 14.5507 270.985 13.1313C270.985 11.7118 272.056 10.3981 274 9.42564C277.868 7.49582 284.161 7.49582 288.025 9.42564C289.97 10.3981 291.04 11.7118 291.04 13.1313C291.04 14.5507 289.97 15.8644 288.025 16.8369C286.093 17.8033 283.553 18.2865 281.013 18.2865ZM281.013 8.57398C278.569 8.57398 276.129 9.03907 274.269 9.96623C272.54 10.83 271.587 11.9534 271.587 13.1313C271.587 14.3091 272.54 15.4325 274.269 16.2963C277.986 18.1536 284.037 18.1536 287.753 16.2963C289.483 15.4325 290.435 14.3091 290.435 13.1313C290.435 11.9534 289.483 10.83 287.753 9.96623C285.893 9.03907 283.453 8.57398 281.01 8.57398H281.013Z" fill="#2CF0FF"/>
<path d="M281.012 149.339C268.281 149.339 256.322 142.133 247.334 129.05C238.372 116.001 233.437 98.6563 233.437 80.2128C233.437 64.282 237.256 48.7347 244.187 36.434C251.039 24.2782 260.606 15.807 271.13 12.5815L271.308 13.1584C260.933 16.3415 251.489 24.7131 244.713 36.73C237.83 48.9401 234.038 64.3816 234.038 80.2098C234.038 117.994 255.109 148.732 281.009 148.732C306.909 148.732 327.983 117.994 327.983 80.2098C327.983 64.3786 324.191 48.937 317.308 36.73C310.532 24.7101 301.088 16.3385 290.713 13.1584L290.891 12.5815C301.414 15.81 310.982 24.2813 317.834 36.434C324.768 48.7317 328.584 64.279 328.584 80.2128C328.584 98.6563 323.649 116.001 314.686 129.05C305.699 142.133 293.74 149.339 281.009 149.339H281.012Z" fill="#2CF0FF"/>
<path d="M170.411 89.8861H173.762V93.9843L185.9 94.1776C185.053 107.451 194.932 119.93 213.717 129.313C227.754 136.326 245.254 140.85 264.289 142.514L267.936 144.507L266.557 150.475C257.86 149.907 249.333 148.826 241.065 147.231C226.669 144.453 213.793 140.258 202.798 134.767C191.803 129.274 183.405 122.844 177.841 115.653C172.873 109.233 170.381 102.501 170.408 95.6182V89.8861H170.411Z" fill="#889CEC"/>
<path d="M264.19 136.757L250.758 130.047V135.758L264.19 142.465V136.757Z" fill="#889CEC"/>
<path d="M261.674 158.115L295.23 141.354V147.065L261.674 163.823V158.115Z" fill="#889CEC"/>
<path d="M185.9 88.4697C185.053 101.743 194.933 114.222 213.717 123.605C227.754 130.618 245.254 135.142 264.289 136.806L250.754 130.044L261.674 124.59L295.23 141.351L261.674 158.112L250.754 152.658L266.557 144.764C257.861 144.196 249.333 143.115 241.066 141.52C226.669 138.742 213.793 134.547 202.798 129.056C191.803 123.563 183.405 117.133 177.841 109.942C172.471 102.999 169.988 95.6907 170.466 88.222L185.897 88.4667L185.9 88.4697Z" fill="#A4B5F5"/>
<path d="M261.674 158.115L250.758 152.661V158.372L261.674 163.823V158.115Z" fill="#889CEC"/>
<path d="M411.023 135.915C409.859 135.915 408.558 135.682 407.149 135.214C400.131 132.877 392.516 125.272 390.176 118.263C389.018 114.79 389.299 111.96 390.968 110.29L393.342 107.919L393.768 108.345L391.395 110.716C389.895 112.213 389.665 114.826 390.747 118.069C393.034 124.922 400.475 132.354 407.337 134.64C410.584 135.722 413.2 135.492 414.7 133.994L417.074 131.623L417.5 132.049L415.126 134.42C414.131 135.414 412.725 135.915 411.02 135.915H411.023Z" fill="#889CEC"/>
<path d="M413.397 133.544C412.233 133.544 410.932 133.312 409.523 132.843C402.505 130.506 394.89 122.901 392.55 115.892C391.392 112.419 391.673 109.589 393.342 107.919C395.011 106.252 397.848 105.968 401.322 107.128C408.341 109.465 415.958 117.07 418.296 124.079C419.454 127.552 419.173 130.382 417.503 132.049C416.509 133.043 415.102 133.544 413.397 133.544ZM397.449 107.028C395.906 107.028 394.646 107.469 393.769 108.348C392.269 109.846 392.039 112.458 393.121 115.702C395.408 122.554 402.849 129.986 409.711 132.273C412.958 133.354 415.574 133.124 417.074 131.626C418.574 130.128 418.804 127.516 417.721 124.273C415.435 117.42 407.993 109.988 401.132 107.701C399.783 107.251 398.543 107.031 397.449 107.031V107.028Z" fill="#889CEC"/>
<path d="M412.2 131.551C411.208 131.551 410.095 131.352 408.894 130.953C402.919 128.963 396.436 122.491 394.443 116.52C393.454 113.551 393.696 111.129 395.13 109.701C396.563 108.269 398.985 108.028 401.958 109.015C407.933 111.002 414.416 117.477 416.409 123.448C417.398 126.417 417.156 128.839 415.723 130.267C414.87 131.119 413.663 131.551 412.2 131.551ZM398.649 109.021C397.349 109.021 396.291 109.393 395.556 110.13C394.295 111.389 394.101 113.591 395.018 116.33C396.956 122.14 403.267 128.443 409.085 130.379C411.828 131.291 414.032 131.101 415.293 129.841C416.554 128.582 416.748 126.38 415.831 123.641C413.893 117.831 407.582 111.528 401.764 109.592C400.624 109.211 399.575 109.024 398.649 109.024V109.021Z" fill="#889CEC"/>
<path d="M407.449 120.268L412.792 122.047L404.643 116.203L407.446 120.268H407.449ZM407.08 120.573L404.192 119.613L406.678 123.219L407.08 120.573ZM412.955 122.527L407.609 120.748L407.158 123.729L412.955 122.527ZM398.32 117.656L406.469 123.499L403.666 119.434L398.323 117.656H398.32ZM398.159 117.175L403.503 118.954L403.953 115.973L398.156 117.175H398.159ZM404.035 119.129L406.923 120.09L404.437 116.484L404.035 119.129Z" fill="#889CEC"/>
<path d="M359.078 29.5454C357.914 29.5454 356.607 29.3128 355.195 28.8417C348.162 26.5011 340.535 18.8815 338.192 11.8599C337.03 8.38077 337.315 5.54493 338.987 3.87484L341.367 1.49805L341.793 1.92388L339.413 4.30066C337.91 5.80163 337.681 8.41701 338.763 11.6696C341.055 18.5372 348.512 25.9817 355.386 28.2709C358.639 29.3521 361.261 29.1225 362.764 27.6216L365.144 25.2448L365.57 25.6706L363.19 28.0474C362.196 29.041 360.786 29.5454 359.075 29.5454H359.078Z" fill="#889CEC"/>
<path d="M361.458 27.1686C360.294 27.1686 358.987 26.936 357.575 26.4649C350.541 24.1243 342.915 16.5047 340.572 9.48307C339.41 6.00396 339.695 3.16812 341.367 1.49802C343.039 -0.17509 345.879 -0.455955 349.362 0.703748C356.396 3.0443 364.022 10.6639 366.366 17.6856C367.527 21.1647 367.243 24.0005 365.57 25.6706C364.575 26.6642 363.166 27.1686 361.455 27.1686H361.458ZM345.479 0.604086C343.934 0.604086 342.673 1.04804 341.793 1.92385C340.29 3.42482 340.061 6.0402 341.143 9.2928C343.435 16.1604 350.889 23.6049 357.766 25.8941C361.019 26.9783 363.641 26.7457 365.144 25.2448C366.647 23.7438 366.877 21.1284 365.794 17.8758C363.502 11.0082 356.045 3.56375 349.172 1.27454C347.82 0.824551 346.58 0.601066 345.482 0.601066L345.479 0.604086Z" fill="#889CEC"/>
<path d="M360.258 25.1722C359.263 25.1722 358.15 24.9729 356.946 24.5743C350.959 22.581 344.464 16.0939 342.468 10.1142C341.476 7.14247 341.721 4.71434 343.154 3.28283C344.588 1.8483 347.019 1.60669 349.994 2.59727C355.982 4.59051 362.477 11.0776 364.473 17.0573C365.465 20.0291 365.22 22.4572 363.787 23.8887C362.931 24.7434 361.724 25.1722 360.258 25.1722ZM346.683 2.60029C345.38 2.60029 344.322 2.97176 343.584 3.70866C342.32 4.97104 342.126 7.17871 343.042 9.92092C344.984 15.7436 351.307 22.0585 357.137 23.9974C359.886 24.9125 362.093 24.7192 363.36 23.4568C364.624 22.1945 364.818 19.9868 363.901 17.2446C361.96 11.4219 355.637 5.10694 349.807 3.16806C348.664 2.78754 347.615 2.59727 346.686 2.59727L346.683 2.60029Z" fill="#889CEC"/>
<path d="M347.874 10.9206L348.996 11.292C348.881 10.7545 348.854 10.3437 348.917 10.0538C348.981 9.76388 349.171 9.55852 349.489 9.43771C349.806 9.31691 350.248 9.33201 350.816 9.48301L351.403 10.679C350.831 10.5642 350.438 10.5733 350.23 10.6971C349.936 10.8783 349.84 11.1833 349.942 11.6061L353.511 12.793C353.444 12.3611 353.465 11.9504 353.574 11.5608C353.656 11.2709 353.84 11.0867 354.127 11.0112C354.415 10.9357 354.784 10.9719 355.231 11.1229C356.03 11.3887 356.767 11.884 357.451 12.6118C357.907 13.098 358.297 13.7262 358.621 14.4933L359.156 14.6715L359.377 15.3299L358.842 15.1517C358.996 15.7829 358.978 16.2329 358.784 16.5107C358.539 16.864 358.08 16.9728 357.405 16.8369L356.846 15.6228C357.263 15.7013 357.554 15.6772 357.72 15.5473C357.883 15.4174 357.944 15.1819 357.895 14.8406L354.663 13.7655C354.711 14.2819 354.723 14.6171 354.705 14.7742C354.669 15.0701 354.575 15.2936 354.43 15.4386C354.285 15.5835 354.079 15.6681 353.816 15.6832C353.553 15.7013 353.245 15.65 352.891 15.5322C352.114 15.2725 351.385 14.8104 350.701 14.146C350.018 13.4786 349.528 12.7507 349.229 11.9534L348.095 11.5759L347.874 10.9175V10.9206ZM357.687 14.1852C357.475 13.7292 357.185 13.3276 356.819 12.9833C356.453 12.639 356.078 12.4034 355.691 12.2736C355.31 12.1467 355.026 12.1467 354.838 12.2736C354.651 12.4004 354.566 12.6933 354.584 13.1524L357.684 14.1852H357.687ZM350.163 12.2675C350.363 12.7205 350.671 13.1433 351.088 13.5359C351.506 13.9285 351.953 14.2034 352.431 14.3604C352.839 14.4963 353.13 14.5054 353.311 14.3846C353.489 14.2668 353.577 13.9376 353.574 13.4031L350.163 12.2675Z" fill="#889CEC"/>
<path d="M178.912 64.2096C176.796 64.2096 175.054 63.5905 173.823 62.3613L170.851 59.3926L171.277 58.9668L174.249 61.9355C176.149 63.8321 179.451 64.1281 183.548 62.763C192.16 59.897 201.504 50.565 204.374 41.9638C205.738 37.8716 205.444 34.5737 203.545 32.6771L200.573 29.7084L200.999 29.2826L203.972 32.2513C206.043 34.3201 206.388 37.8354 204.948 42.1571C202.024 50.9183 192.511 60.4194 183.739 63.3368C181.982 63.9227 180.358 64.2126 178.909 64.2126L178.912 64.2096Z" fill="#889CEC"/>
<path d="M175.94 61.2408C173.82 61.2408 172.078 60.6187 170.851 59.3926C168.779 57.3238 168.434 53.8085 169.874 49.4868C172.798 40.7256 182.311 31.2244 191.081 28.3071C195.405 26.8665 198.928 27.2138 200.999 29.2825C203.07 31.3513 203.415 34.8697 201.976 39.1883C199.052 47.9495 189.538 57.4507 180.766 60.368C179.009 60.9539 177.385 61.2439 175.94 61.2439V61.2408ZM195.913 28.0353C194.531 28.0353 192.974 28.3161 191.277 28.8809C182.665 31.7469 173.321 41.0789 170.451 49.68C169.088 53.7722 169.381 57.0701 171.28 58.9667C173.179 60.8633 176.481 61.1593 180.578 59.7942C189.191 56.9282 198.535 47.5962 201.404 38.9951C202.768 34.9029 202.475 31.605 200.576 29.7084C199.463 28.597 197.866 28.0353 195.913 28.0353Z" fill="#889CEC"/>
<path d="M177.442 58.7463C175.631 58.7463 174.14 58.2148 173.085 57.1608C171.313 55.391 171.014 52.386 172.244 48.6985C174.733 41.245 182.828 33.1573 190.294 30.6718L190.391 30.9587L190.294 30.6718C193.986 29.4426 196.995 29.7416 198.767 31.5114C200.539 33.2811 200.839 36.2861 199.608 39.9736C197.119 47.4271 189.024 55.5148 181.558 58.0003C180.061 58.4986 178.676 58.7463 177.442 58.7463ZM194.413 30.5299C193.245 30.5299 191.924 30.7684 190.488 31.2456C183.182 33.6768 175.256 41.5923 172.822 48.8888C171.667 52.3468 171.915 55.1343 173.514 56.7319C175.117 58.3325 177.905 58.5772 181.367 57.4235C188.673 54.9924 196.599 47.0768 199.033 39.7803C200.188 36.3223 199.94 33.5348 198.341 31.9372C197.403 31.001 196.061 30.5299 194.413 30.5299Z" fill="#889CEC"/>
<path d="M189.953 42.6161C189.744 42.2537 189.33 42.0846 188.707 42.1118C189.33 41.6708 189.844 41.1906 190.252 40.6712C190.66 40.1517 190.945 39.6504 191.108 39.1642C191.283 38.6417 191.302 38.1887 191.162 37.8082C191.023 37.4277 190.73 37.2102 190.279 37.1558C189.829 37.1015 189.17 37.2193 188.299 37.5092L188.707 37.3733L189.203 35.8844L188.051 36.2679L187.555 37.7568L186.442 38.1283L186.938 36.6394L185.855 36.9988L185.36 38.4877L184.017 38.9347L180.216 50.3294L181.558 49.8824L181.063 51.3713L182.145 51.0119L182.641 49.523L183.754 49.1515L183.258 50.6404L184.41 50.2569L184.906 48.768L184.567 48.8797C185.293 48.6381 185.928 48.3693 186.472 48.0764C187.017 47.7834 187.494 47.4573 187.909 47.0979C188.323 46.7385 188.719 46.2915 189.1 45.76C189.478 45.2255 189.756 44.6939 189.935 44.1594C190.155 43.495 190.162 42.9815 189.953 42.6191V42.6161ZM187.358 39.0162C188.178 38.7444 188.74 38.6025 189.04 38.5994C189.342 38.5934 189.536 38.7051 189.62 38.9316C189.705 39.1581 189.687 39.4602 189.56 39.8407C189.427 40.2393 189.218 40.6048 188.937 40.9339C188.653 41.2631 188.302 41.547 187.878 41.7886C187.558 41.9728 187.065 42.1782 186.394 42.3987L183.926 43.2201L185.075 39.7773L187.355 39.0192L187.358 39.0162ZM187.821 45.7117C187.579 46.0378 187.316 46.3157 187.035 46.5362C186.754 46.7596 186.427 46.959 186.058 47.1372C185.849 47.2398 185.502 47.3697 185.012 47.5328L182.172 48.4781L183.479 44.561L186.115 43.6822C186.841 43.4406 187.376 43.3198 187.721 43.3168C188.066 43.3168 188.293 43.4346 188.408 43.6762C188.52 43.9178 188.507 44.25 188.365 44.6758C188.244 45.0382 188.063 45.3825 187.818 45.7117H187.821Z" fill="#889CEC"/>
</g>
<g clip-path="url(#clip1_966_837)">
<path d="M72.6088 125.234C72.1887 125.234 71.7971 125.144 71.4463 124.964L71.4626 124.931C71.0711 124.775 70.0962 124.283 67.3837 122.914C67.3307 122.894 67.2654 122.857 67.2002 122.82C66.4252 122.377 66.001 121.533 66.001 120.447V106.678C66.001 104.473 67.71 101.887 69.8882 100.788L83.5933 93.9061C84.7069 93.3487 85.7674 93.2749 86.5791 93.7012L86.5628 93.7299C86.9462 93.8857 87.9047 94.3693 90.6295 95.7466C90.6825 95.7671 90.7477 95.804 90.813 95.8409C91.5839 96.2876 92.0122 97.132 92.0122 98.21V111.978C92.0122 114.184 90.3032 116.77 88.125 117.869L74.4199 124.755C73.7876 125.075 73.1676 125.234 72.6007 125.234H72.6088ZM71.6544 124.152L71.8216 124.238C72.3886 124.529 73.2043 124.452 74.0609 124.025L87.7661 117.139C89.6628 116.188 91.2046 113.872 91.2046 111.983V98.2059C91.2046 97.4189 90.9313 96.8451 90.4174 96.5459C90.3766 96.5213 90.3358 96.5008 90.2909 96.4844C89.2018 95.9351 87.3541 95.0047 86.5791 94.6112C86.5791 94.6194 86.2079 94.4267 86.2079 94.4267C85.641 94.1275 84.8211 94.2054 83.9645 94.6399L70.2594 101.526C68.3627 102.477 66.8208 104.793 66.8208 106.683V120.451C66.8208 121.242 67.0941 121.816 67.6081 122.111C67.6489 122.136 67.6896 122.156 67.7345 122.177C68.9378 122.783 71.0588 123.853 71.6544 124.152Z" fill="#0080FF"/>
<path d="M72.6049 125.23C72.1195 125.23 71.6749 125.115 71.2996 124.882C70.5736 124.431 70.1738 123.603 70.1738 122.55V108.777C70.1738 106.572 71.8829 103.985 74.061 102.887L87.7662 96.0006C88.9368 95.4145 90.0749 95.3653 90.8947 95.8736C91.6208 96.3245 92.0205 97.1525 92.0205 98.2059V111.978C92.0205 114.184 90.3114 116.77 88.1333 117.869L74.4281 124.755L74.2446 124.39L74.4281 124.755C73.7959 125.07 73.1759 125.23 72.6049 125.23ZM89.5813 96.3409C89.1408 96.3409 88.6432 96.472 88.1251 96.7344L74.42 103.621C72.5233 104.572 70.9815 106.887 70.9815 108.777V122.545C70.9815 123.304 71.2425 123.886 71.7197 124.181C72.2908 124.538 73.1433 124.476 74.0529 124.017L87.758 117.131C89.6547 116.18 91.1966 113.864 91.1966 111.974V98.2059C91.1966 97.4476 90.9355 96.8655 90.4583 96.5704C90.2095 96.4187 89.9117 96.3409 89.5772 96.3409H89.5813Z" fill="#0080FF"/>
<path d="M39.6067 141.819C39.1866 141.819 38.795 141.729 38.4483 141.548L38.4646 141.52C38.0812 141.364 37.1226 140.88 34.3857 139.499C34.3327 139.478 34.2674 139.441 34.2021 139.405C33.4271 138.962 33.0029 138.117 33.0029 137.031V123.263C33.0029 121.058 34.712 118.471 36.8901 117.373L50.5912 110.486C51.7048 109.929 52.7653 109.855 53.577 110.282L53.5607 110.31C53.9522 110.466 54.9189 110.958 57.6314 112.323C57.6804 112.343 57.7497 112.38 57.815 112.417C58.59 112.868 59.0142 113.708 59.0142 114.79V128.563C59.0142 130.768 57.3051 133.355 55.127 134.453L41.4218 141.339C40.7855 141.659 40.1696 141.819 39.6026 141.819H39.6067ZM38.4524 140.63L38.8195 140.819C39.3864 141.11 40.2022 141.036 41.0588 140.606L54.7639 133.719C56.6606 132.764 58.2025 130.452 58.2025 128.563V114.79C58.2025 114.003 57.9292 113.43 57.4152 113.13C57.3785 113.11 57.3337 113.085 57.2888 113.069C56.3139 112.577 53.9971 111.409 53.373 111.097C53.3689 111.097 53.2058 111.011 53.2058 111.011C52.6388 110.716 51.819 110.79 50.9624 111.22L37.2613 118.106C35.3646 119.057 33.8228 121.373 33.8228 123.263V137.031C33.8228 137.822 34.0961 138.396 34.61 138.691C34.6508 138.716 34.6916 138.736 34.7365 138.757C34.7528 138.765 37.4612 140.13 38.4564 140.63H38.4524Z" fill="#0080FF"/>
<path d="M39.6029 141.815C39.1175 141.815 38.6729 141.7 38.2977 141.466C37.5716 141.015 37.1719 140.187 37.1719 139.134V125.362C37.1719 123.156 38.8809 120.57 41.0591 119.471L54.7642 112.585C55.9349 111.999 57.0729 111.95 57.8928 112.458C58.6188 112.909 59.0185 113.737 59.0185 114.79V128.563C59.0185 130.768 57.3095 133.355 55.1313 134.453L41.4262 141.339L41.2426 140.974L41.4262 141.339C40.794 141.655 40.174 141.815 39.6029 141.815ZM56.5834 112.925C56.1429 112.925 55.6453 113.057 55.1273 113.319L41.4221 120.205C39.5254 121.16 37.9836 123.472 37.9836 125.362V139.134C37.9836 139.892 38.2446 140.474 38.7219 140.77C39.2929 141.126 40.1454 141.065 41.055 140.606L54.7602 133.719C56.6569 132.764 58.1987 130.452 58.1987 128.563V114.79C58.1987 114.032 57.9376 113.45 57.4604 113.155C57.2116 113.003 56.9138 112.925 56.5794 112.925H56.5834Z" fill="#0080FF"/>
<path d="M6.60784 158.403C6.18771 158.403 5.79614 158.313 5.44535 158.133L5.46167 158.1C5.07009 157.944 4.09523 157.452 1.38275 156.083C1.3338 156.063 1.26446 156.026 1.1992 155.989C0.424207 155.546 0 154.702 0 153.616V139.843C0 137.638 1.70906 135.051 3.88721 133.953L17.5883 127.067C18.6977 126.509 19.7623 126.435 20.574 126.862L20.5577 126.895C20.9575 127.054 21.9364 127.546 24.6285 128.903C24.6815 128.923 24.7468 128.96 24.812 128.997C25.587 129.444 26.0112 130.288 26.0112 131.366V145.135C26.0112 147.34 24.3022 149.927 22.124 151.025L8.41888 157.911C7.78665 158.231 7.16665 158.391 6.60376 158.391L6.60784 158.403ZM5.65338 157.321L5.82061 157.407C6.38758 157.698 7.20336 157.62 8.05993 157.194L21.7651 150.308C23.6618 149.357 25.2036 147.041 25.2036 145.151V131.383C25.2036 130.596 24.9303 130.022 24.4164 129.723C24.3756 129.698 24.3348 129.678 24.2899 129.657C23.0948 129.055 20.9901 127.993 20.3864 127.69C20.3823 127.69 20.2069 127.6 20.2069 127.6C19.64 127.3 18.8201 127.378 17.9595 127.809L4.25431 134.695C2.35761 135.646 0.815783 137.962 0.815783 139.851V153.624C0.815783 154.415 1.08907 154.989 1.60301 155.284C1.6438 155.308 1.68459 155.329 1.72946 155.345C2.93274 155.952 5.05785 157.022 5.65338 157.321Z" fill="#0080FF"/>
<path d="M6.60388 158.399C6.11849 158.399 5.67389 158.284 5.29863 158.051C4.57259 157.6 4.17285 156.772 4.17285 155.718V141.95C4.17285 139.745 5.88192 137.158 8.06006 136.06L21.7611 129.173C22.9318 128.587 24.0739 128.538 24.8897 129.046C25.6157 129.497 26.0154 130.325 26.0154 131.379V145.147C26.0154 147.352 24.3064 149.939 22.1282 151.037L8.42716 157.924C7.79493 158.239 7.17493 158.399 6.60388 158.399ZM23.5803 129.514C23.1398 129.514 22.6422 129.645 22.1242 129.907L8.42308 136.793C6.52639 137.744 4.98456 140.06 4.98456 141.95V155.718C4.98456 156.477 5.24561 157.059 5.72284 157.354C6.29389 157.71 7.14638 157.649 8.05598 157.19L21.7571 150.304C23.6537 149.353 25.1956 147.037 25.1956 145.147V131.379C25.1956 130.62 24.9345 130.038 24.4573 129.743C24.2085 129.592 23.9107 129.514 23.5762 129.514H23.5803Z" fill="#0080FF"/>
<path d="M138.797 169.56L127.612 163.269L126.201 162.469C125.597 162.113 125.014 161.715 124.451 161.289C123.333 160.428 122.301 159.432 121.408 158.317C120.511 157.202 119.736 155.977 119.124 154.661C118.965 154.333 118.826 154.001 118.688 153.661L118.369 152.886L117.758 151.398L107.96 127.595C106.545 124.156 108.172 120.221 111.59 118.799C115.012 117.377 118.928 119.012 120.344 122.447C120.458 122.722 120.56 123.033 120.633 123.312L127.135 148.23L127.869 151.037C128.061 151.705 128.342 152.357 128.701 152.972C129.056 153.591 129.497 154.169 129.998 154.694C130.255 154.952 130.52 155.202 130.806 155.435L132.07 156.395L142.304 164.15C143.724 165.224 144.005 167.249 142.937 168.675C141.958 169.983 140.179 170.327 138.797 169.548V169.56Z" fill="#0080FF"/>
<path d="M144.866 165.388L143.414 165.285C142.39 165.211 141.542 166.064 141.607 167.089L142.186 175.988C142.296 177.557 144.972 178.017 145.298 176.18L146.587 168.896C146.812 167.63 146.738 165.58 144.866 165.388Z" fill="#8EAAE8"/>
<path d="M116.489 191.055L115.029 187.977L105.994 193.945C104.693 194.818 105.615 197.384 107.364 196.761L115.567 193.843C116.775 193.412 116.897 191.9 116.493 191.055H116.489Z" fill="#8EAAE8"/>
<path d="M113.594 138.556C112.472 146.213 112.431 154.308 112.974 162.441C113.52 170.585 114.65 178.795 116.07 186.989C116.376 188.76 115.205 190.432 113.455 190.736C111.856 191.014 110.323 190.055 109.841 188.543C107.259 180.472 104.934 172.266 103.172 163.814C102.295 159.588 101.561 155.296 101.043 150.927C100.529 146.557 100.227 142.11 100.256 137.572V137.527C100.28 133.805 103.303 130.813 107.006 130.838C110.71 130.862 113.692 133.9 113.663 137.621C113.663 137.925 113.635 138.261 113.594 138.556Z" fill="#0080FF"/>
<path d="M112.632 99.4069L112.036 104.338L117.583 104.047V98.0215L112.632 99.4069Z" fill="#F3ABC7"/>
<path d="M110.641 98.2798C110.633 99.0504 111.701 100.219 113.149 99.657C113.639 99.4684 116.784 98.0256 116.784 98.0256C116.784 98.0256 116.702 92.738 116.082 92.2707C115.221 91.619 113.08 91.4755 112.215 92.119C110.955 93.0618 110.661 96.5582 110.641 98.2798Z" fill="#F3ABC7"/>
<path d="M112.325 93.7545C113.1 94.2341 113.124 95.8982 113.124 96.468C113.124 97.8166 115.298 99.657 117.583 99.6119C117.583 97.3452 121.082 93.07 118.121 93.07C117.048 89.7416 112.255 91.5575 111.15 91.0164C110.506 91.664 110.889 92.865 112.321 93.7545H112.325Z" fill="#0080FF"/>
<path d="M104.559 107.527C109.197 103.981 117.073 101.661 122.425 101.063C124.562 100.825 126.145 101.793 126.863 103.928C127.352 105.379 127.254 106.97 126.65 108.375C123.473 115.79 123.481 123.054 123.481 129.551C122.604 132.801 101.581 138.101 100.558 134.695L102.095 111.659C102.291 110.081 103.201 108.56 104.559 107.523V107.527Z" fill="#A4B5F5"/>
<path d="M83.7519 110.786C83.7356 110.56 83.8987 110.359 84.1231 110.331C84.3352 110.302 84.535 110.437 84.5881 110.646L85.1428 112.753L84.5269 114.389L83.1768 112.294L83.8416 111.917L83.756 110.786H83.7519Z" fill="#F3ABC7"/>
<path d="M80.5175 111.585L80.7827 111.298C80.954 111.109 81.2028 111.019 81.4475 111.036L81.37 110.7L80.3258 109.794C80.2238 109.703 80.1831 109.564 80.2198 109.433C80.2891 109.207 80.5542 109.113 80.7459 109.248L84.2742 111.941L84.5516 112.995C84.8412 113.987 84.6495 114.565 83.9805 114.979L83.7195 115.143L82.7568 115.737C82.2592 116.045 81.6107 115.889 81.3048 115.393L80.2728 113.708C79.8894 113.024 79.9913 112.167 80.5216 111.589L80.5175 111.585Z" fill="#F3ABC7"/>
<path d="M85.9302 114.356C86.5869 115.221 87.317 116.012 88.1002 116.713C88.8874 117.405 89.7481 117.975 90.6332 118.41C92.4116 119.27 94.3368 119.504 96.0459 118.971C97.7591 118.471 99.2764 117.291 100.365 115.729C101.463 114.171 102.144 112.274 102.409 110.314C102.658 108.466 104.351 107.17 106.19 107.416C108.03 107.666 109.319 109.367 109.074 111.216C109.045 111.421 109.001 111.618 108.943 111.802L108.907 111.909C108.022 114.61 106.655 117.188 104.693 119.336C103.714 120.41 102.584 121.365 101.308 122.132C100.035 122.894 98.6197 123.456 97.1472 123.747C95.6747 124.046 94.1492 124.042 92.7012 123.783C91.2532 123.521 89.8827 123.021 88.6427 122.361C86.1423 121.041 84.1763 119.16 82.459 117.184C81.6433 116.245 81.7411 114.823 82.6711 114.007C83.6011 113.192 85.0206 113.286 85.8323 114.221C85.8609 114.257 85.8935 114.29 85.918 114.327L85.9343 114.348L85.9302 114.356Z" fill="#A4B5F5"/>
</g>
<defs>
<radialGradient id="paint0_radial_966_837" cx="0" cy="0" r="1" gradientUnits="userSpaceOnUse" gradientTransform="translate(288.223 55.2268) scale(91.25 91.1334)">
<stop stop-color="#F5F5FF"/>
<stop offset="0.28" stop-color="#DCDFF5"/>
<stop offset="0.74" stop-color="#75A4FF"/>
<stop offset="1" stop-color="#BBC9F8"/>
</radialGradient>
<linearGradient id="paint1_linear_966_837" x1="325.899" y1="94.5616" x2="322.982" y2="41.1773" gradientUnits="userSpaceOnUse">
<stop/>
<stop offset="1" stop-color="#AFC4FF"/>
</linearGradient>
<linearGradient id="paint2_linear_966_837" x1="281.217" y1="35.1838" x2="281.217" y2="9.39249" gradientUnits="userSpaceOnUse">
<stop/>
<stop offset="1" stop-color="#AFC4FF"/>
</linearGradient>
<linearGradient id="paint3_linear_966_837" x1="281.037" y1="146.594" x2="281.037" y2="127.761" gradientUnits="userSpaceOnUse">
<stop stop-color="#395DCE"/>
<stop offset="1"/>
</linearGradient>
<clipPath id="clip0_966_837">
<rect width="250" height="168" fill="white" transform="translate(169)"/>
</clipPath>
<clipPath id="clip1_966_837">
<rect width="147" height="114" fill="white" transform="translate(0 91)"/>
</clipPath>
</defs>
</svg>
