<svg xmlns="http://www.w3.org/2000/svg" width="112" height="38" viewBox="0 0 112 38" fill="none">
<path d="M18.886 0C8.47235 0 0 8.47351 0 18.8886C0 28.1996 6.77242 35.9531 15.6477 37.4938L17.1294 31.5495C15.8282 30.9009 14.93 29.5597 14.93 28.0107C14.93 25.8298 16.7034 24.0562 18.8839 24.0562C21.0644 24.0562 22.8378 25.8298 22.8378 28.0107C22.8378 29.5597 21.9396 30.9009 20.6384 31.5495L22.12 37.4938C30.9953 35.9531 37.7678 28.1996 37.7678 18.8886C37.772 8.47351 29.2996 0 18.886 0ZM23.9207 28.0128C23.9207 25.2358 21.6625 22.9773 18.886 22.9773C16.1094 22.9773 13.8513 25.2358 13.8513 28.0128C13.8513 30.0194 15.0328 31.7489 16.7327 32.5591C14.0779 31.6587 12.1618 29.1441 12.1618 26.1888C12.1618 22.4799 15.1776 19.4637 18.886 19.4637C22.5943 19.4637 25.6101 22.4799 25.6101 26.1888C25.6101 29.1441 23.694 31.6587 21.0392 32.5591C22.7391 31.7489 23.9207 30.0173 23.9207 28.0128ZM26.691 26.1867C26.691 21.8817 23.1904 18.3806 18.886 18.3806C14.5816 18.3806 11.081 21.8817 11.081 26.1867C11.081 29.3435 12.9656 32.0659 15.6666 33.2958C12.0107 31.9735 9.39157 28.4682 9.39157 24.3627C9.39157 19.1257 13.6519 14.867 18.886 14.867C24.1201 14.867 28.3804 19.1278 28.3804 24.3627C28.3804 28.4682 25.7612 31.9735 22.1053 33.2958C24.8063 32.068 26.691 29.3435 26.691 26.1867ZM29.4612 24.3627C29.4612 18.5296 24.7161 13.786 18.886 13.786C13.0559 13.786 8.31075 18.5317 8.31075 24.3627C8.31075 28.6802 10.9131 32.4017 14.6299 34.0431C9.95821 32.3093 6.62132 27.8071 6.62132 22.5387C6.62132 15.7758 12.124 10.2723 18.886 10.2723C25.6479 10.2723 31.1506 15.7758 31.1506 22.5387C31.1506 27.8071 27.8137 32.3093 23.1421 34.0431C26.8588 32.4017 29.4612 28.6802 29.4612 24.3627ZM32.2315 22.5387C32.2315 15.1797 26.2439 9.19136 18.886 9.19136C11.528 9.19136 5.5405 15.1797 5.5405 22.5387C5.5405 28.0023 8.84172 32.7081 13.5532 34.7714C7.88892 32.6137 3.85107 27.1291 3.85107 20.7147C3.85107 12.4238 10.5962 5.67769 18.886 5.67769C27.1757 5.67769 33.9209 12.4238 33.9209 20.7147C33.9209 27.1291 29.883 32.6137 24.2187 34.7714C28.9302 32.7081 32.2315 28.0023 32.2315 22.5387ZM25.2953 35.4977C31.0016 33.0146 35.0017 27.3222 35.0017 20.7126C35.0017 11.8256 27.7718 4.59463 18.886 4.59463C10.0002 4.59463 2.77025 11.8256 2.77025 20.7126C2.77025 27.3222 6.77243 33.0146 12.4766 35.4977C5.81753 32.918 1.08082 26.449 1.08082 18.8886C1.08082 9.06962 9.06838 1.08097 18.886 1.08097C28.7036 1.08097 36.6911 9.06962 36.6911 18.8886C36.6911 26.449 31.9544 32.918 25.2953 35.4977Z" fill="url(#paint0_linear_150_51)"/>
<path d="M69.4431 28.3234L69.9908 31.7594C68.7946 32.2044 67.5081 32.429 66.1293 32.429C62.8469 32.429 60.0809 31.05 57.8311 28.294C54.5886 28.2331 51.8625 27.0787 49.6547 24.8286C47.4259 22.5596 46.3115 19.8436 46.3115 16.6805C46.3115 13.4585 47.4469 10.7215 49.7155 8.47141C51.9842 6.20243 54.7502 5.06689 58.0137 5.06689C61.2771 5.06689 64.0327 6.20243 66.2825 8.47141C68.5323 10.7215 69.6571 13.4564 69.6571 16.6805C69.6571 19.0733 68.9982 21.252 67.6823 23.2166C66.3853 25.1435 64.6518 26.5498 62.4839 27.4418C63.6193 28.3948 64.9267 28.8712 66.4042 28.8712C67.336 28.8712 68.3497 28.6886 69.4431 28.3234ZM50.5655 16.7413C50.5655 18.8907 51.2853 20.6832 52.7229 22.1231C54.1416 23.542 55.9045 24.2514 58.0116 24.2514C60.0977 24.2514 61.8522 23.542 63.2709 22.1231C64.7085 20.6832 65.4283 18.8907 65.4283 16.7413C65.4283 14.5941 64.7085 12.7785 63.2709 11.2987C61.8312 9.83994 60.0788 9.1095 58.0116 9.1095C55.9045 9.1095 54.1416 9.83994 52.7229 11.2987C51.2853 12.7785 50.5655 14.592 50.5655 16.7413Z" fill="white"/>
<path d="M88.4109 27.9287H73.4852V5.46143H88.4109V9.3529H77.651V14.6423H87.5903V18.5044H77.651V24.0372H88.4109V27.9287Z" fill="white"/>
<path d="M101.116 27.9287H92.6356V5.46143H101.299C104.623 5.46143 107.236 6.47523 109.142 8.50072C111.047 10.4863 112 13.2339 112 16.7392C112 20.1856 111.028 22.9101 109.083 24.9167C107.175 26.9254 104.52 27.9287 101.116 27.9287ZM96.7699 9.44526V23.947H101.269C103.276 23.947 104.846 23.2585 105.981 21.8795C107.116 20.5005 107.683 18.7584 107.683 16.651C107.683 14.5835 107.125 12.8708 106.01 11.5127C104.875 10.1358 103.305 9.44526 101.299 9.44526H96.7699V9.44526Z" fill="white"/>
<defs>
<linearGradient id="paint0_linear_150_51" x1="18.8853" y1="0.000608699" x2="18.8853" y2="37.4513" gradientUnits="userSpaceOnUse">
<stop stop-color="#97CBFF"/>
<stop offset="1" stop-color="#377FEE"/>
</linearGradient>
</defs>
</svg>