<svg width="448" height="395" viewBox="0 0 448 395" fill="none" xmlns="http://www.w3.org/2000/svg">
<path d="M175.926 158.049C176.418 156.583 374.813 115.585 374.813 115.585V208.235C321.651 209.462 269.183 220.594 228.596 241.602C188.01 262.609 166.531 289.782 164.132 317.313H35V252.674C35 252.674 175.464 159.546 175.926 158.049Z" fill="#E3E5F9"/>
<path d="M137.334 129.71C71.5396 163.765 37.4283 208.025 35 252.674H164.132C166.502 225.143 187.981 198 228.596 176.962C269.183 155.955 321.651 144.822 374.813 143.595V76.7417C288.609 77.9986 203.128 95.6547 137.334 129.71Z" fill="url(#paint0_linear_599_4485)"/>
<path d="M189.368 104.931L192.635 106.637V123.395C192.635 127.196 195.612 131.805 199.283 133.69L208.505 138.478V141.86L190.524 151.166L179.279 143.655L173.064 134.648L171.387 114.238L189.368 104.931Z" fill="#E3E5F9"/>
<path d="M190.524 147.785L181.303 142.997C177.631 141.111 174.654 136.473 174.654 132.702V115.944L171.387 114.238V130.997C171.387 136.653 175.839 143.565 181.303 146.378L190.524 151.166L208.505 141.86V138.478L190.524 147.785Z" fill="#D2D6F2"/>
<path d="M141.121 80.8114L217.524 41.2797C218.449 40.8009 219.288 40.771 219.895 41.0702L223.017 42.6862L220.878 44.5715V93.4101C220.878 95.3253 219.375 97.6595 217.524 98.6171L141.612 137.909L141.901 139.974L138.779 138.358C138.143 138.029 137.796 137.341 137.796 136.413V86.0184C137.796 84.1032 139.3 81.769 141.15 80.8114H141.121Z" fill="url(#paint1_linear_599_4485)"/>
<path d="M144.387 139.855L220.791 100.293C222.641 99.3355 224.144 97.0013 224.144 95.0861V44.6914C224.144 42.7762 222.641 41.9981 220.791 42.9557L144.387 82.5173C142.537 83.475 141.034 85.8092 141.034 87.7244V138.149C141.034 140.064 142.537 140.842 144.387 139.885V139.855Z" fill="url(#paint2_linear_599_4485)"/>
<path d="M220.849 96.8814V46.3071L144.301 85.9286V136.503L220.849 96.8814Z" fill="#4066FF"/>
<path d="M35.0001 317.283H164.132V252.644H35.0001V317.283Z" fill="url(#paint3_linear_599_4485)"/>
<path d="M267.189 148.563L240.16 134.558C239.062 133.989 237.269 133.989 236.171 134.558L173.412 167.057C172.313 167.626 172.313 168.553 173.412 169.122L200.441 183.127C201.539 183.696 203.331 183.696 204.43 183.127L267.189 150.628C268.288 150.059 268.288 149.132 267.189 148.563Z" fill="url(#paint4_linear_599_4485)"/>
<path d="M267.189 146.558L240.16 132.553C239.062 131.984 237.269 131.984 236.171 132.553L173.412 165.052C172.313 165.621 172.313 166.548 173.412 167.117L200.441 181.122C201.539 181.691 203.331 181.691 204.43 181.122L267.189 148.623C268.288 148.054 268.288 147.127 267.189 146.558Z" fill="url(#paint5_linear_599_4485)"/>
<path d="M203.187 167.267L206.627 165.501L203.187 163.735L199.747 165.501L203.187 167.267ZM221.543 165.112L224.983 166.878L245.306 156.344L241.866 154.578L221.543 165.112ZM208.824 160.803L205.384 162.568L214.056 167.057L223.104 162.359L219.664 160.593L214.027 163.496L208.766 160.773L208.824 160.803ZM208.448 169.99L211.888 168.224L208.448 166.459L205.008 168.224L208.448 169.99ZM197.55 170.199L200.99 168.434L197.55 166.668L194.11 168.434L197.55 170.199ZM197.926 164.573L201.366 162.808L197.926 161.042L194.486 162.808L197.926 164.573ZM236.604 155.416L240.044 153.65L236.604 151.885L233.164 153.65L236.604 155.416ZM202.782 172.923L206.222 171.157L202.782 169.391L199.342 171.157L202.782 172.923ZM230.967 154.788L227.527 156.553L230.967 158.319L234.407 156.553L230.967 154.788ZM231.343 152.693L234.783 150.927L231.343 149.162L227.903 150.927L231.343 152.693ZM192.289 167.476L195.729 165.71L192.289 163.945L188.848 165.71L192.289 167.476ZM214.461 157.9L211.021 159.666L214.461 161.431L217.901 159.666L214.461 157.9ZM220.098 154.997L216.658 156.763L220.098 158.528L223.538 156.763L220.098 154.997ZM225.359 157.72L221.919 159.486L225.359 161.252L228.799 159.486L225.359 157.72ZM225.735 152.094L222.295 153.86L225.735 155.626L229.175 153.86L225.735 152.094ZM207.003 159.905L203.563 158.139L200.123 159.905L203.563 161.671L207.003 159.905ZM202.435 178.608L205.875 176.843L202.435 175.077L198.995 176.843L202.435 178.608ZM210.269 171.007L213.709 172.773L217.149 171.007L213.709 169.242L210.269 171.007ZM204.632 173.91L208.072 175.676L211.512 173.91L208.072 172.144L204.632 173.91ZM215.906 168.075L219.346 169.84L222.786 168.075L219.346 166.309L215.906 168.075ZM212.64 157.002L209.2 155.237L205.76 157.002L209.2 158.768L212.64 157.002ZM191.942 173.162L195.382 171.396L191.942 169.631L188.502 171.396L191.942 173.162ZM197.203 175.885L200.643 174.12L197.203 172.354L193.763 174.12L197.203 175.885ZM186.68 170.439L190.12 168.673L186.68 166.907L183.24 168.673L186.68 170.439ZM223.914 151.167L220.474 149.401L217.034 151.167L220.474 152.932L223.914 151.167ZM218.277 154.069L214.837 152.304L211.397 154.069L214.837 155.835L218.277 154.069ZM226.111 150L229.551 148.234L226.111 146.468L222.671 148.234L226.111 150ZM231.748 147.097L235.188 145.331L231.748 143.566L228.308 145.331L231.748 147.097ZM242.27 152.543L245.71 150.778L242.27 149.012L238.83 150.778L242.27 152.543ZM244.092 153.501L247.532 155.266L250.972 153.501L247.532 151.735L244.092 153.501ZM237.009 149.82L240.449 148.054L237.009 146.289L233.569 148.054L237.009 149.82ZM242.646 146.917L246.086 145.152L242.646 143.386L239.206 145.152L242.646 146.917ZM249.729 150.598L253.169 152.364L256.609 150.598L253.169 148.832L249.729 150.598ZM247.907 149.64L251.347 147.875L247.907 146.109L244.467 147.875L247.907 149.64ZM237.385 144.194L240.825 142.428L237.385 140.663L233.945 142.428L237.385 144.194ZM253.544 146.708L256.984 144.942L253.544 143.177L250.104 144.942L253.544 146.708ZM255.366 147.665L258.806 149.431L262.246 147.665L258.806 145.9L255.366 147.665ZM248.283 143.984L251.723 142.219L248.283 140.453L244.843 142.219L248.283 143.984ZM243.022 141.261L246.462 139.496L243.022 137.73L239.582 139.496L243.022 141.261ZM191.363 161.192L194.803 159.426L193.098 158.528L189.658 160.294L191.363 161.192ZM185.726 164.094L189.166 162.329L187.461 161.431L184.021 163.197L185.726 164.094ZM200.412 156.493L198.706 155.596L195.266 157.361L196.972 158.259L200.412 156.493ZM206.049 153.591L204.343 152.693L200.903 154.458L202.609 155.356L206.049 153.591ZM180.089 167.027L183.529 165.262L181.824 164.364L178.384 166.129L180.089 167.027ZM217.323 147.755L215.617 146.857L212.177 148.623L213.883 149.521L217.323 147.755ZM211.686 150.658L209.98 149.76L206.54 151.526L208.246 152.424L211.686 150.658ZM219.52 146.588L222.96 144.822L221.254 143.925L217.814 145.69L219.52 146.588ZM225.157 143.685L228.597 141.92L226.891 141.022L223.451 142.787L225.157 143.685ZM230.794 140.782L234.234 139.017L232.528 138.119L229.088 139.885L230.794 140.782ZM236.431 137.88L239.871 136.114L238.165 135.216L234.725 136.982L236.431 137.88Z" fill="url(#paint6_linear_599_4485)"/>
<g style="mix-blend-mode:multiply">
<path opacity="0.05" d="M372.152 326.74L288.753 369.923C280.196 374.352 266.291 374.352 257.734 369.923L174.335 326.74C165.778 322.311 165.778 315.129 174.335 310.67L257.734 267.488C266.291 263.059 280.196 263.059 288.753 267.488L372.152 310.67C380.709 315.099 380.709 322.281 372.152 326.74Z" fill="#A7B1F2"/>
<path opacity="0.1" d="M373.858 325.872L290.458 369.055C281.901 373.484 267.997 373.484 259.44 369.055L176.041 325.872C167.484 321.443 167.484 314.261 176.041 309.802L259.44 266.62C267.997 262.191 281.901 262.191 290.458 266.62L373.858 309.802C382.414 314.231 382.414 321.414 373.858 325.872Z" fill="#A7B1F2"/>
<path opacity="0.14" d="M375.592 324.975L292.193 368.157C283.636 372.586 269.731 372.586 261.174 368.157L177.775 324.975C169.218 320.546 169.218 313.364 177.775 308.905L261.174 265.722C269.731 261.293 283.636 261.293 292.193 265.722L375.592 308.905C384.149 313.334 384.149 320.516 375.592 324.975Z" fill="#A7B1F2"/>
<path opacity="0.19" d="M377.298 324.077L293.899 367.26C285.342 371.689 271.437 371.689 262.88 367.26L179.481 324.077C170.924 319.648 170.924 312.466 179.481 308.007L262.88 264.824C271.437 260.395 285.342 260.395 293.899 264.824L377.298 308.007C385.855 312.436 385.855 319.618 377.298 324.077Z" fill="#A7B1F2"/>
<path opacity="0.24" d="M379.032 323.179L295.633 366.362C287.076 370.791 273.172 370.791 264.615 366.362L181.215 323.179C172.659 318.75 172.659 311.568 181.215 307.109L264.615 263.927C273.172 259.498 287.076 259.498 295.633 263.927L379.032 307.109C387.589 311.538 387.589 318.72 379.032 323.179Z" fill="#A7B1F2"/>
<path opacity="0.29" d="M380.767 322.281L297.367 365.464C288.811 369.893 274.906 369.893 266.349 365.464L182.95 322.281C174.393 317.852 174.393 310.67 182.95 306.211L266.349 263.029C274.906 258.6 288.811 258.6 297.367 263.029L380.767 306.211C389.323 310.64 389.323 317.823 380.767 322.281Z" fill="#A7B1F2"/>
<path opacity="0.33" d="M382.472 321.414L299.073 364.596C290.516 369.025 276.611 369.025 268.055 364.596L184.655 321.414C176.099 316.985 176.099 309.803 184.655 305.344L268.055 262.161C276.611 257.732 290.516 257.732 299.073 262.161L382.472 305.344C391.029 309.773 391.029 316.955 382.472 321.414Z" fill="#A7B1F2"/>
<path opacity="0.38" d="M384.207 320.516L300.807 363.698C292.251 368.127 278.346 368.127 269.789 363.698L186.39 320.516C177.833 316.087 177.833 308.905 186.39 304.446L269.789 261.263C278.346 256.834 292.251 256.834 300.807 261.263L384.207 304.446C392.763 308.875 392.763 316.057 384.207 320.516Z" fill="#A7B1F2"/>
<path opacity="0.43" d="M385.912 319.618L302.513 362.801C293.956 367.23 280.051 367.23 271.495 362.801L188.095 319.618C179.539 315.189 179.539 308.007 188.095 303.548L271.495 260.365C280.051 255.936 293.956 255.936 302.513 260.365L385.912 303.548C394.469 307.977 394.469 315.159 385.912 319.618Z" fill="#A7B1F2"/>
<path opacity="0.48" d="M387.647 318.72L304.248 361.903C295.691 366.332 281.786 366.332 273.23 361.903L189.83 318.72C181.273 314.291 181.273 307.109 189.83 302.65L273.23 259.468C281.786 255.039 295.691 255.039 304.248 259.468L387.647 302.65C396.204 307.079 396.204 314.261 387.647 318.72Z" fill="#A7B1F2"/>
<path opacity="0.52" d="M389.353 317.853L305.953 361.035C297.397 365.464 283.492 365.464 274.935 361.035L191.536 317.853C182.979 313.424 182.979 306.242 191.536 301.783L274.935 258.6C283.492 254.171 297.397 254.171 305.953 258.6L389.353 301.783C397.909 306.212 397.909 313.394 389.353 317.853Z" fill="#A7B1F2"/>
<path opacity="0.57" d="M391.087 316.955L307.688 360.138C299.131 364.567 285.226 364.567 276.669 360.138L193.27 316.955C184.713 312.526 184.713 305.344 193.27 300.885L276.669 257.702C285.226 253.273 299.131 253.273 307.688 257.702L391.087 300.885C399.644 305.314 399.644 312.496 391.087 316.955Z" fill="#A7B1F2"/>
<path opacity="0.62" d="M392.821 316.057L309.422 359.24C300.865 363.669 286.961 363.669 278.404 359.24L195.004 316.057C186.448 311.628 186.448 304.446 195.004 299.987L278.404 256.804C286.961 252.375 300.865 252.375 309.422 256.804L392.821 299.987C401.378 304.416 401.378 311.598 392.821 316.057Z" fill="#A7B1F2"/>
<path opacity="0.67" d="M394.527 315.159L311.128 358.342C302.571 362.771 288.666 362.771 280.109 358.342L196.71 315.159C188.153 310.73 188.153 303.548 196.71 299.089L280.109 255.907C288.666 251.478 302.571 251.478 311.128 255.907L394.527 299.089C403.084 303.518 403.084 310.7 394.527 315.159Z" fill="#A7B1F2"/>
<path opacity="0.71" d="M396.261 314.262L312.862 357.444C304.305 361.873 290.401 361.873 281.844 357.444L198.444 314.262C189.888 309.833 189.888 302.651 198.444 298.192L281.844 255.009C290.401 250.58 304.305 250.58 312.862 255.009L396.261 298.192C404.818 302.621 404.818 309.803 396.261 314.262Z" fill="#A7B1F2"/>
<path opacity="0.76" d="M397.967 313.394L314.568 356.576C306.011 361.005 292.107 361.005 283.55 356.576L200.15 313.394C191.594 308.965 191.594 301.783 200.15 297.324L283.55 254.141C292.107 249.712 306.011 249.712 314.568 254.141L397.967 297.324C406.524 301.753 406.524 308.935 397.967 313.394Z" fill="#A7B1F2"/>
<path opacity="0.81" d="M399.702 312.496L316.302 355.679C307.746 360.108 293.841 360.108 285.284 355.679L201.885 312.496C193.328 308.067 193.328 300.885 201.885 296.426L285.284 253.243C293.841 248.814 307.746 248.814 316.302 253.243L399.702 296.426C408.259 300.855 408.259 308.037 399.702 312.496Z" fill="#A7B1F2"/>
<path opacity="0.86" d="M401.407 311.598L318.008 354.781C309.451 359.21 295.547 359.21 286.99 354.781L203.59 311.598C195.034 307.169 195.034 299.987 203.59 295.528L286.99 252.345C295.547 247.916 309.451 247.916 318.008 252.345L401.407 295.528C409.964 299.957 409.964 307.139 401.407 311.598Z" fill="#A7B1F2"/>
<path opacity="0.9" d="M403.142 310.7L319.742 353.883C311.186 358.312 297.281 358.312 288.724 353.883L205.325 310.7C196.768 306.271 196.768 299.089 205.325 294.63L288.724 251.448C297.281 247.019 311.186 247.019 319.742 251.448L403.142 294.63C411.698 299.059 411.698 306.241 403.142 310.7Z" fill="#A7B1F2"/>
<path opacity="0.95" d="M404.876 309.803L321.477 352.985C312.92 357.414 299.015 357.414 290.459 352.985L207.059 309.803C198.502 305.374 198.502 298.192 207.059 293.733L290.459 250.55C299.015 246.121 312.92 246.121 321.477 250.55L404.876 293.733C413.433 298.162 413.433 305.344 404.876 309.803Z" fill="#A7B1F2"/>
<path d="M406.581 308.935L323.182 352.117C314.625 356.546 300.72 356.546 292.164 352.117L208.764 308.935C200.207 304.506 200.207 297.324 208.764 292.865L292.164 249.682C300.72 245.253 314.625 245.253 323.182 249.682L406.581 292.865C415.138 297.294 415.138 304.476 406.581 308.935Z" fill="#A7B1F2"/>
</g>
<path d="M202.347 258.69V300.855C202.347 303.758 204.486 306.66 208.764 308.875L292.164 352.058C300.72 356.486 314.625 356.486 323.182 352.058L406.581 308.875C410.86 306.66 412.999 303.758 412.999 300.855V258.69H202.347Z" fill="url(#paint7_linear_599_4485)"/>
<path d="M202.347 258.69V300.855C202.347 303.758 204.486 306.66 208.764 308.875L292.164 352.058C296.442 354.272 302.05 355.379 307.687 355.379V258.69H202.347Z" fill="url(#paint8_linear_599_4485)"/>
<path d="M406.581 266.71L323.182 309.892C314.625 314.321 300.72 314.321 292.164 309.892L208.764 266.71C200.207 262.281 200.207 255.099 208.764 250.64L292.164 207.457C300.72 203.028 314.625 203.028 323.182 207.457L406.581 250.64C415.138 255.069 415.138 262.251 406.581 266.71Z" fill="url(#paint9_linear_599_4485)"/>
<path d="M258.052 150.03L254.959 146.469C254.381 145.81 253.658 145.361 252.849 145.092L248.946 143.895C248.224 143.685 247.443 143.656 246.692 143.805L243.252 144.583C242.76 144.703 242.384 145.122 242.355 145.661C242.327 146.109 242.558 146.558 242.934 146.768L247.357 149.371L245.709 149.132C245.217 149.072 244.755 149.401 244.668 149.88C244.581 150.359 244.813 150.808 245.246 150.957L251.895 153.142L252.849 153.98C253.225 154.309 253.774 154.339 254.179 154.07L257.792 151.765C258.399 151.376 258.515 150.509 258.024 149.97L258.052 150.03Z" fill="#F3ABC7"/>
<path d="M280.86 171.457C270.714 171.457 260.451 167.028 253.542 159.397C251.172 156.763 251.287 152.633 253.831 150.179C256.375 147.726 260.365 147.845 262.735 150.479C267.187 155.416 275.715 159.666 284.647 158.08C293.695 156.464 301.183 149.282 306.27 137.252C307.658 133.96 311.387 132.464 314.567 133.9C317.747 135.336 319.192 139.197 317.805 142.489C309.103 162.988 296.124 169.272 286.757 170.948C284.821 171.307 282.826 171.457 280.86 171.457Z" fill="#3176FF"/>
<path d="M235.244 314.95C228.913 315.458 216.483 315.099 211.366 313.723C206.018 312.286 206.105 307.229 210.73 305.613L237.788 297.413L239.522 307.259C240.158 310.76 239.32 314.65 235.244 314.98V314.95Z" fill="#8A96E6"/>
<path d="M231.862 306.9C231.862 306.9 231.775 306.9 231.747 306.9C225.56 306.84 220.617 301.573 220.675 295.199L221.398 224.784C221.455 218.44 226.456 213.322 232.585 213.322H273.143C279.329 213.322 284.33 218.499 284.33 224.903C284.33 231.308 279.329 236.485 273.143 236.485H243.657L243.05 295.438C242.992 301.782 237.991 306.9 231.862 306.9Z" fill="#130F40"/>
<path d="M314.018 184.175L271.957 203.178C271.292 214.011 271.003 221.582 271.523 235.018C302.715 235.018 315.607 234.121 315.607 217.632C315.607 206.08 314.018 197.342 314.018 184.175Z" fill="#130F40"/>
<path d="M314.018 194.649C314.018 184.474 317.776 149.252 316.533 141.291C316.272 139.616 315.029 138.299 313.41 138.03C305.808 136.743 281.409 141.621 275.657 150.419C273.026 160.683 271.957 192.674 271.957 203.507C287.827 206.619 314.018 201.681 314.018 194.649Z" fill="#3176FF"/>
<path d="M216.714 162.898C216.454 163.317 216.541 163.915 216.945 164.215L219.316 166.07L216.57 165.681C216.28 165.651 215.962 165.681 215.673 165.801L211.886 167.446C211.424 167.656 211.077 168.045 210.933 168.554L209.979 171.726C209.747 172.504 210.065 173.372 210.759 173.791C211.048 173.97 211.366 174.03 211.684 174.03L217.292 173.731L223.479 174.898C224.722 175.107 225.878 174.21 226.08 172.923L226.456 170.379L226.572 169.691C226.832 167.925 226.167 166.758 224.172 165.771L217.899 162.539C217.495 162.329 217.003 162.479 216.743 162.868L216.714 162.898Z" fill="#F3ABC7"/>
<path d="M249.351 188.305C240.389 188.305 231.37 184.983 224.663 178.938C222.033 176.574 221.772 172.444 224.056 169.751C226.34 167.027 230.329 166.758 232.931 169.122C237.845 173.581 246.72 176.933 255.479 174.449C264.325 171.905 271.089 163.975 274.992 151.496C276.061 148.085 279.617 146.199 282.942 147.306C286.237 148.414 288.058 152.095 286.989 155.536C280.311 176.843 267.996 184.414 258.832 187.048C255.739 187.916 252.559 188.364 249.351 188.364V188.305Z" fill="#3176FF"/>
<path d="M284.157 129.261C284.793 134.977 292.193 129.89 292.916 129.112C295.286 126.718 299.247 118.788 293.407 115.735C291.471 114.718 287.25 114.777 285.689 116.274C283.434 118.488 283.752 125.73 284.128 129.261H284.157Z" fill="#F3ABC7"/>
<path d="M286.354 131.925L296.442 120.942L297.599 139.496L289.678 141.71L289.736 133.182L286.354 131.925Z" fill="#F3ABC7"/>
<path d="M285.833 98.827C294.708 98.827 300.287 105.471 308.41 113.7C314.625 119.984 308.844 124.743 318.644 129.8C328.935 135.127 324.743 150.119 331.97 152.065C338.099 153.711 340.758 161.312 336.884 166.489C320.812 188.035 283.202 171.367 295.17 139.735C291.759 132.134 288.811 124.473 291.412 118.698C274.154 112.144 278.751 98.7971 285.833 98.7971V98.827Z" fill="#130F40"/>
<defs>
<linearGradient id="paint0_linear_599_4485" x1="374.813" y1="164.693" x2="35" y2="164.693" gradientUnits="userSpaceOnUse">
<stop stop-color="#E8EAFB"/>
<stop offset="1" stop-color="white"/>
</linearGradient>
<linearGradient id="paint1_linear_599_4485" x1="138.201" y1="90.4175" x2="222.554" y2="90.4175" gradientUnits="userSpaceOnUse">
<stop stop-color="#D3D7F2"/>
<stop offset="0.45" stop-color="#BBC9F8"/>
<stop offset="0.55" stop-color="#D3D7F2"/>
<stop offset="1" stop-color="#F2F3FF"/>
</linearGradient>
<linearGradient id="paint2_linear_599_4485" x1="182.574" y1="131.535" x2="182.574" y2="79.3452" gradientUnits="userSpaceOnUse">
<stop stop-color="#E8EAFB"/>
<stop offset="1" stop-color="white"/>
</linearGradient>
<linearGradient id="paint3_linear_599_4485" x1="164.132" y1="284.964" x2="34.9712" y2="284.964" gradientUnits="userSpaceOnUse">
<stop stop-color="#D9DEFC"/>
<stop offset="1" stop-color="#CCD6FF"/>
</linearGradient>
<linearGradient id="paint4_linear_599_4485" x1="172.602" y1="158.827" x2="267.998" y2="158.827" gradientUnits="userSpaceOnUse">
<stop stop-color="#D9DEFC"/>
<stop offset="1" stop-color="#CCD6FF"/>
</linearGradient>
<linearGradient id="paint5_linear_599_4485" x1="172.602" y1="156.823" x2="267.998" y2="156.823" gradientUnits="userSpaceOnUse">
<stop stop-color="#E8EAFB"/>
<stop offset="1" stop-color="white"/>
</linearGradient>
<linearGradient id="paint6_linear_599_4485" x1="262.217" y1="156.823" x2="178.384" y2="156.823" gradientUnits="userSpaceOnUse">
<stop stop-color="#D9DEFC"/>
<stop offset="1" stop-color="#CCD6FF"/>
</linearGradient>
<linearGradient id="paint7_linear_599_4485" x1="406.928" y1="331.678" x2="215.811" y2="245.389" gradientUnits="userSpaceOnUse">
<stop stop-color="#92A6F3"/>
<stop offset="1" stop-color="#AAB9F3"/>
</linearGradient>
<linearGradient id="paint8_linear_599_4485" x1="311.994" y1="277.244" x2="216.104" y2="324.04" gradientUnits="userSpaceOnUse">
<stop stop-color="#92A6F3"/>
<stop offset="1" stop-color="#7F93E6"/>
</linearGradient>
<linearGradient id="paint9_linear_599_4485" x1="203.648" y1="258.69" x2="415.369" y2="258.69" gradientUnits="userSpaceOnUse">
<stop stop-color="#AAB9F3"/>
<stop offset="1" stop-color="#CCD6FF"/>
</linearGradient>
</defs>
</svg>
