<svg width="37" height="37" viewBox="0 0 37 37" fill="none" xmlns="http://www.w3.org/2000/svg">
<path d="M18.4998 26.2084C22.757 26.2084 26.2082 22.7573 26.2082 18.5001C26.2082 14.2429 22.757 10.7917 18.4998 10.7917C14.2426 10.7917 10.7915 14.2429 10.7915 18.5001C10.7915 22.7573 14.2426 26.2084 18.4998 26.2084Z" stroke="#EDEE4E" stroke-width="2" stroke-linecap="round" stroke-linejoin="round"/>
<path d="M17.5 6.16659C17.5 6.71887 17.9477 7.16658 18.5 7.16658C19.0523 7.16658 19.5 6.71887 19.5 6.16659H17.5ZM19.5 3.08325C19.5 2.53097 19.0523 2.08325 18.5 2.08325C17.9477 2.08325 17.5 2.53097 17.5 3.08325H19.5ZM19.5 30.8333C19.5 30.281 19.0523 29.8333 18.5 29.8333C17.9477 29.8333 17.5 30.281 17.5 30.8333H19.5ZM17.5 33.9166C17.5 34.4689 17.9477 34.9166 18.5 34.9166C19.0523 34.9166 19.5 34.4689 19.5 33.9166H17.5ZM19.5 6.16659V3.08325H17.5V6.16659H19.5ZM17.5 30.8333V33.9166H19.5V30.8333H17.5Z" fill="#EDEE4E"/>
<path d="M9.18163 10.5956C9.57216 10.9861 10.2053 10.9861 10.5958 10.5956C10.9864 10.2051 10.9864 9.57191 10.5958 9.18139L9.18163 10.5956ZM8.4156 7.00115C8.02508 6.61062 7.39191 6.61062 7.00139 7.00115C6.61086 7.39167 6.61086 8.02483 7.00139 8.41536L8.4156 7.00115ZM28.0378 26.6234C27.6473 26.2328 27.0141 26.2328 26.6236 26.6234C26.2331 27.0139 26.2331 27.647 26.6236 28.0376L28.0378 26.6234ZM28.8038 30.2178C29.1944 30.6083 29.8275 30.6083 30.2181 30.2178C30.6086 29.8273 30.6086 29.1941 30.2181 28.8036L28.8038 30.2178ZM10.5958 9.18139L8.4156 7.00115L7.00139 8.41536L9.18163 10.5956L10.5958 9.18139ZM26.6236 28.0376L28.8038 30.2178L30.2181 28.8036L28.0378 26.6234L26.6236 28.0376Z" fill="#EDEE4E"/>
<path d="M6.16683 19.5C6.71911 19.5 7.16683 19.0523 7.16683 18.5C7.16683 17.9477 6.71911 17.5 6.16683 17.5V19.5ZM3.0835 17.5C2.53121 17.5 2.0835 17.9477 2.0835 18.5C2.0835 19.0523 2.53121 19.5 3.0835 19.5V17.5ZM30.8335 17.5C30.2812 17.5 29.8335 17.9477 29.8335 18.5C29.8335 19.0523 30.2812 19.5 30.8335 19.5V17.5ZM33.9168 19.5C34.4691 19.5 34.9168 19.0523 34.9168 18.5C34.9168 17.9477 34.4691 17.5 33.9168 17.5V19.5ZM6.16683 17.5H3.0835V19.5H6.16683V17.5ZM30.8335 19.5H33.9168V17.5H30.8335V19.5Z" fill="#EDEE4E"/>
<path d="M26.6236 9.18139C26.2331 9.57191 26.2331 10.2051 26.6236 10.5956C27.0141 10.9861 27.6473 10.9861 28.0378 10.5956L26.6236 9.18139ZM30.2181 8.41536C30.6086 8.02483 30.6086 7.39167 30.2181 7.00115C29.8275 6.61062 29.1944 6.61062 28.8038 7.00115L30.2181 8.41536ZM10.5958 28.0376C10.9864 27.647 10.9864 27.0139 10.5958 26.6234C10.2053 26.2328 9.57216 26.2328 9.18163 26.6234L10.5958 28.0376ZM7.00139 28.8036C6.61086 29.1941 6.61087 29.8273 7.00139 30.2178C7.39191 30.6083 8.02508 30.6083 8.4156 30.2178L7.00139 28.8036ZM28.0378 10.5956L30.2181 8.41536L28.8038 7.00115L26.6236 9.18139L28.0378 10.5956ZM9.18163 26.6234L7.00139 28.8036L8.4156 30.2178L10.5958 28.0376L9.18163 26.6234Z" fill="#EDEE4E"/>
</svg>
