<svg width="50" height="36" viewBox="0 0 50 36" fill="none" xmlns="http://www.w3.org/2000/svg">
<g clip-path="url(#clip0_928_1103)">
<path d="M29.3556 13.6516L23.724 19.2515L21.268 16.8094L19.7109 18.3577L22.1665 20.7999L23.724 22.3482L25.281 20.7999L30.9127 15.1999L29.3556 13.6516Z" fill="#0080FF"/>
<path d="M8.19118 5.57155V10.8516L4.09559 8.21157L0 5.57155L4.09559 2.93153L8.19118 0.291504V5.57155Z" fill="#0080FF"/>
<path d="M41.8086 30.4282V25.1482L45.9042 27.7882L49.9998 30.4282L45.9042 33.0683L41.8086 35.7083V30.4282Z" fill="#0080FF"/>
<path d="M43.5151 28.1281H35.7527H24.9996C19.3742 28.1281 14.814 23.5935 14.814 17.9998C14.814 15.2099 15.9485 12.6834 17.7837 10.8516H12.0465C10.8625 12.9684 10.188 15.4059 10.188 17.9998C10.188 26.134 16.8198 32.7281 24.9996 32.7281C25.0074 32.7281 25.0148 32.7281 25.0226 32.7281H43.5151V28.1285V28.1281Z" fill="#0080FF"/>
<path d="M14.2468 7.87148H24.9998C30.6256 7.87148 35.1858 12.406 35.1858 17.9998C35.1858 20.7897 34.0513 23.3162 32.2162 25.148H37.953C39.1369 23.0312 39.8115 20.5937 39.8115 17.9998C39.8115 9.86554 33.1801 3.27148 24.9998 3.27148C24.9924 3.27148 24.9854 3.27148 24.978 3.27148H6.48438V7.8711H14.2468V7.87148Z" fill="#0080FF"/>
</g>
<defs>
<clipPath id="clip0_928_1103">
<rect width="50" height="35.4167" fill="white" transform="translate(0 0.291504)"/>
</clipPath>
</defs>
</svg>
