<svg width="45" height="34" viewBox="0 0 45 34" fill="none" xmlns="http://www.w3.org/2000/svg">
<g clip-path="url(#clip0_599_4555)">
<path d="M5.22207 19.4804L8.03973 17.6643C8.3885 17.4348 8.80151 17.301 9.24206 17.301C10.5086 17.301 11.5366 18.3716 11.5366 19.6907C11.5366 20.551 11.096 21.2965 10.4444 21.7171L7.62672 23.5332C7.27796 23.7627 6.86494 23.8965 6.4244 23.8965C5.15782 23.8965 4.12988 22.8259 4.12988 21.5068C4.12988 20.6465 4.57043 19.901 5.22207 19.4804V19.4804Z" stroke="#0080FF" stroke-width="2" stroke-miterlimit="10"/>
<path d="M8.89346 22.7209L11.7111 20.9047C12.0599 20.6753 12.4729 20.5415 12.9134 20.5415C14.18 20.5415 15.208 21.6121 15.208 22.9312C15.208 23.7914 14.7674 24.537 14.1158 24.9576L11.2981 26.7737C10.9493 27.0031 10.5363 27.1369 10.0958 27.1369C8.82921 27.1369 7.80127 26.0664 7.80127 24.7473C7.80127 23.887 8.24182 23.1414 8.89346 22.7209Z" stroke="#0080FF" stroke-width="2" stroke-miterlimit="10"/>
<path d="M12.5648 25.9709L15.3825 24.1547C15.7313 23.9253 16.1443 23.7915 16.5848 23.7915C17.8514 23.7915 18.8793 24.8621 18.8793 26.1812C18.8793 27.0414 18.4388 27.787 17.7872 28.2076L14.9695 30.0237C14.6207 30.2531 14.2077 30.387 13.7672 30.387C12.5006 30.387 11.4727 29.3164 11.4727 27.9973C11.4727 27.137 11.9132 26.3914 12.5648 25.9709V25.9709Z" stroke="#0080FF" stroke-width="2" stroke-miterlimit="10"/>
<path d="M17.1537 28.6281L19.9714 26.812C20.3201 26.5826 20.7332 26.4487 21.1737 26.4487C22.4403 26.4487 23.4682 27.5193 23.4682 28.8384C23.4682 29.6987 23.0277 30.4442 22.376 30.8648L19.5584 32.6809C19.2096 32.9104 18.7966 33.0442 18.356 33.0442C17.0895 33.0442 16.0615 31.9736 16.0615 30.6545C16.0615 29.7942 16.5021 29.0487 17.1537 28.6281Z" stroke="#0080FF" stroke-width="2" stroke-miterlimit="10"/>
<path d="M29.4893 18.4672L36.0883 22.7208L37.3549 23.5333C37.7036 23.7627 38.1166 23.8965 38.5572 23.8965C39.8238 23.8965 40.8517 22.8259 40.8517 21.5068C40.8517 20.6466 40.4112 19.901 39.7595 19.4804L21.9449 7.99095L19.7422 9.95047V13.382C19.7422 14.9687 18.5123 16.2496 16.9888 16.2496H14.2354V8.60271C14.2354 7.72331 14.63 6.93951 15.2174 6.41378L20.7426 1.62491C21.2199 1.21389 21.8256 0.955811 22.4956 0.955811C22.7985 0.955811 23.0922 1.01316 23.3675 1.10875L31.8848 4.16751C34.6841 5.17116 37.7495 4.96087 40.402 3.58443L43.6051 1.91167" stroke="#0080FF" stroke-width="2" stroke-miterlimit="10"/>
<path d="M1.38574 1.91167L4.58888 3.58443C7.24134 4.96087 10.3068 5.17116 13.1061 4.16751L21.6233 1.10875C21.8987 1.01316 22.1924 0.955811 22.4953 0.955811" stroke="#0080FF" stroke-width="2" stroke-miterlimit="10"/>
<path d="M29.489 18.4673L36.088 22.7209C36.7397 23.1414 37.1802 23.8966 37.1802 24.7569C37.1802 26.0759 36.1523 27.1465 34.8857 27.1465C34.4452 27.1465 34.0322 27.0127 33.6834 26.7833L32.4168 25.9708L27.0752 22.5201" stroke="#0080FF" stroke-width="2" stroke-miterlimit="10"/>
<path d="M24.6616 26.5824L27.828 28.6279L30.0124 30.0331C30.3612 30.2529 30.7742 30.3867 31.2147 30.3867C32.4813 30.3867 33.5093 29.3162 33.5093 27.9971C33.5093 27.1368 33.0687 26.3912 32.4171 25.9706L27.0754 22.5295" stroke="#0080FF" stroke-width="2" stroke-miterlimit="10"/>
<path d="M5.08482 19.5761C3.87332 18.6584 2.41401 18.1614 0.917986 18.1614H0.468262" stroke="#0080FF" stroke-width="2" stroke-miterlimit="10"/>
<path d="M39.9062 19.5761C41.1178 18.6584 42.5771 18.1614 44.0731 18.1614H44.5228" stroke="#0080FF" stroke-width="2" stroke-miterlimit="10"/>
<path d="M25.4233 32.6905L22.4863 30.7979" stroke="#0080FF" stroke-width="2" stroke-miterlimit="10"/>
<path d="M24.6616 26.5825L27.828 28.6281C28.4797 29.0486 28.9202 29.7942 28.9202 30.6545C28.9202 31.9736 27.8923 33.0441 26.6257 33.0441C26.1852 33.0441 25.7722 32.9103 25.4234 32.6905" stroke="#0080FF" stroke-width="2" stroke-miterlimit="10"/>
<path d="M16.9888 12.4263H14.2354" stroke="#0080FF" stroke-width="2" stroke-miterlimit="10"/>
</g>
<defs>
<clipPath id="clip0_599_4555">
<rect width="45" height="34" fill="white"/>
</clipPath>
</defs>
</svg>
