<svg width="20" height="20" viewBox="0 0 20 20" fill="none" xmlns="http://www.w3.org/2000/svg">
<rect width="20" height="20" fill="#DEE5EF"/>
<path d="M20 10C20 15.5225 15.5225 20 10 20C4.4775 20 0 15.5225 0 10C0 4.4775 4.4775 0 10 0C15.5225 0 20 4.4775 20 10Z" fill="#DEE5EF"/>
<path fill-rule="evenodd" clip-rule="evenodd" d="M17.597 16.5028C15.7628 18.6435 13.0397 20 10 20C6.96044 20 4.23743 18.6436 2.40332 16.5031C3.69439 14.6171 7.77271 13.6677 10.0002 13.6677C12.2276 13.6677 16.3057 14.617 17.597 16.5028ZM9.29538 4.07745C9.39338 4.03245 9.49702 4.00753 9.5992 4.00148C9.90574 3.98333 10.2105 4.13266 10.3891 4.40608L10.8891 5.17111C11.6153 5.17111 13.5558 5.9446 13.5558 8.33548C13.5558 10.464 11.7509 12.1625 9.61309 11.9327C7.47975 11.7029 6.10728 9.48809 6.54017 7.34959C6.92772 5.43635 8.40116 4.48724 9.29538 4.07745Z" fill="#A4B0C0"/>
<circle cx="10" cy="8" r="4" fill="#A4B0C0"/>
<path d="M19 20C10.5 20 15.5228 20 10 20C4.47715 20 6 20 1.5 20C1.5 14.4772 4.47715 13 10 13C15.5228 13 19 14.4772 19 20Z" fill="#A4B0C0"/>
</svg>
