<svg width="38" height="34" viewBox="0 0 38 34" fill="none" xmlns="http://www.w3.org/2000/svg">
<g clip-path="url(#clip0_928_1098)">
<path d="M37.8174 31.6184L20.3642 0.84822C19.8101 -0.0927648 18.9904 0.00271753 18.9904 0.00271753C18.1044 0.00271753 17.7494 0.616433 17.7494 0.616433L0.0856101 31.9478C-0.387891 33.5903 1.24599 33.9308 1.24599 33.9308L34.0388 34H36.6306C38.6865 33.5696 37.8174 31.6184 37.8174 31.6184ZM5.27448 30.2153L18.983 5.9752L32.7226 30.2471L5.27516 30.2153H5.27448Z" fill="#0080FF"/>
<path d="M20.6892 26.9461C20.6892 27.9154 19.9203 28.7007 18.9713 28.7007C18.0223 28.7007 17.2534 27.9154 17.2534 26.9461C17.2534 25.9767 18.0223 25.1914 18.9713 25.1914C19.9203 25.1914 20.6892 25.9767 20.6892 26.9461Z" fill="#0080FF"/>
<path d="M17.2911 13.5584C17.2911 13.5584 17.1902 11.5789 18.9271 11.5789C18.9271 11.5789 20.84 11.3734 20.651 13.5584C20.462 15.7434 19.8205 23.418 19.8205 23.418C19.8205 23.418 19.7325 24.2344 19.0212 24.2344C19.0212 24.2344 18.1846 24.2794 18.1088 23.418C18.0336 22.5566 17.2905 13.5584 17.2905 13.5584H17.2911Z" fill="#0080FF"/>
</g>
<defs>
<clipPath id="clip0_928_1098">
<rect width="38" height="34" fill="white"/>
</clipPath>
</defs>
</svg>
